<svg xmlns="http://www.w3.org/2000/svg" width="24" height="24" viewBox="0 0 24 24"><path d="M6.078 9.14c.115.511.46.894.911 1.045.36 2.512 2.364 5.057 5.002 5.057s4.642-2.545 5.001-5.057c.451-.151.797-.534.911-1.044.121-.537-.04-1.056-.408-1.398a6.34 6.34 0 0 0 .199-1.579c0-3.319-2.559-6.02-5.704-6.02s-5.704 2.7-5.704 6.02c0 .534.067 1.063.199 1.578-.367.342-.528.861-.407 1.398zM7.28 8.4a.5.5 0 0 0 .262-.605 5.335 5.335 0 0 1-.255-1.631c0-2.768 2.11-5.02 4.704-5.02 2.593 0 4.704 2.252 4.704 5.02a5.31 5.31 0 0 1-.255 1.63.5.5 0 0 0 .262.605c.296.14.24.459.227.521-.019.08-.098.336-.392.336h-.001a.5.5 0 0 0-.499.463c-.158 2.14-1.859 4.523-4.046 4.523-2.188 0-3.889-2.384-4.047-4.523a.507.507 0 0 0-.507-.462h-.013c-.274-.003-.353-.257-.37-.335-.015-.063-.07-.382.226-.522zM23.729 20.62c-1.419-1.377-7.988-4.729-8.806-4.297-1.616.866-4.248.865-5.872-.003-.876-.473-7.551 3.086-8.801 4.3a.989.989 0 0 0-.3.708v1.733c0 .543.442.984.985.984h22.11a.985.985 0 0 0 .984-.984v-1.733a.976.976 0 0 0-.3-.708zM.951 23.061l-.004-1.723c1.861-1.807 6.788-3.716 7.817-4.044 1.853.902 4.597.901 6.452.002 1.026.333 6.006 2.285 7.814 4.038l.016 1.711-22.095.016z"/></svg>
