<svg xmlns="http://www.w3.org/2000/svg" width="24" height="24" viewBox="0 0 24 24"><path d="M23.59 18.53c0-.001 0-.001 0 0L14.589 2.672a2.933 2.933 0 0 0-2.582-1.501 2.936 2.936 0 0 0-2.581 1.501l-9 15.857a2.938 2.938 0 0 0 .018 2.958 2.94 2.94 0 0 0 2.564 1.476h18a2.94 2.94 0 0 0 2.563-1.475 2.94 2.94 0 0 0 .019-2.958zm-.883 2.454a1.947 1.947 0 0 1-1.699.979h-18a1.948 1.948 0 0 1-1.7-.979 1.95 1.95 0 0 1-.012-1.961l9-15.858a1.944 1.944 0 0 1 1.711-.995c.719 0 1.359.372 1.712.995l9.001 15.857a1.95 1.95 0 0 1-.013 1.962z"/><path d="M12.008 7.306a.5.5 0 0 0-.5.5v7.181a.5.5 0 0 0 1 0V7.806a.5.5 0 0 0-.5-.5zM12.008 17.622a.5.5 0 0 0-.5.5v.249a.5.5 0 0 0 1 0v-.249a.5.5 0 0 0-.5-.5z"/></svg>
