<svg xmlns="http://www.w3.org/2000/svg" width="24" height="24" viewBox="0 0 24 24"><path d="M21.954 4.292l-.894-1.955.878-1.596A.501.501 0 0 0 21.5 0h-19a.5.5 0 0 0-.438.741l.878 1.596-.895 1.955v.006A.496.496 0 0 0 2 4.5v17C2 22.879 3.122 24 4.5 24h15c1.379 0 2.5-1.121 2.5-2.5v-17a.496.496 0 0 0-.045-.203v-.005zM3.938 2.076L3.346 1h17.308l-.592 1.076a.499.499 0 0 0-.016.449L20.72 4H3.279l.676-1.475a.5.5 0 0 0-.017-.45zM21 21.5c0 .827-.673 1.5-1.5 1.5h-15c-.827 0-1.5-.673-1.5-1.5V5h18v16.5z"/><path d="M12.001 15.999h.002a5.007 5.007 0 0 0 5.002-5.002L17 8.412a.5.5 0 0 0-.5-.5h-.001a.5.5 0 0 0-.499.502l.005 2.584a4.006 4.006 0 0 1-4.002 4.001h-.002a3.974 3.974 0 0 1-2.828-1.172A3.972 3.972 0 0 1 8 10.997V8.414a.5.5 0 1 0-1 0v2.585c0 1.336.521 2.592 1.466 3.537A4.968 4.968 0 0 0 12 16z"/></svg>
