<svg xmlns="http://www.w3.org/2000/svg" width="24" height="24" viewBox="0 0 24 24"><path d="M21.458 14.073a.496.496 0 0 0-.56.432l-1.04 8.055a.49.49 0 0 1-.49.44H4.56a.495.495 0 0 1-.492-.454L3.03 14.545a.5.5 0 0 0-.991.129l1.037 7.988C3.155 23.425 3.793 24 4.56 24h14.807c.769 0 1.406-.575 1.484-1.325l1.039-8.041a.5.5 0 0 0-.432-.56z"/><path d="M7.996 21.504v-5.942a.5.5 0 1 0-1 0v5.942a.5.5 0 1 0 1 0zM16.926 21.504v-5.942a.5.5 0 1 0-1 0v5.942a.5.5 0 1 0 1 0zM13.95 21.504v-5.942a.5.5 0 1 0-1 0v5.942a.5.5 0 1 0 1 0zM10.973 21.504v-5.942a.5.5 0 1 0-1 0v5.942a.5.5 0 1 0 1 0zM22.504 9.07h-2.1l-7.032-6.852a1.45 1.45 0 0 0 .136-.607c0-.81-.662-1.47-1.476-1.47s-1.476.66-1.476 1.47c0 .217.05.421.135.607L3.658 9.07H1.504c-.827 0-1.5.673-1.5 1.5v1c0 .827.673 1.5 1.5 1.5h21c.827 0 1.5-.673 1.5-1.5v-1c0-.827-.673-1.5-1.5-1.5zM12.032 1.14c.262 0 .476.212.476.47a.465.465 0 0 1-.138.33l-.001.002a.478.478 0 0 1-.674 0l-.002-.002a.465.465 0 0 1-.137-.33c0-.258.213-.47.476-.47zm-.638 1.79c.194.094.408.15.638.15.23 0 .444-.056.638-.15l6.302 6.14H5.092l6.302-6.14zm11.61 8.64a.5.5 0 0 1-.5.5h-21a.5.5 0 0 1-.5-.5v-1a.5.5 0 0 1 .5-.5h21a.5.5 0 0 1 .5.5v1z"/></svg>
