<svg xmlns="http://www.w3.org/2000/svg" width="24" height="24" viewBox="0 0 24 24"><path d="M23.475 4.434a.498.498 0 0 0-.613.351l-.332 1.217H4.554l.36-1.687a.491.491 0 0 0 0-.209A1.357 1.357 0 0 0 3.593 3.04H.629a.5.5 0 0 0 0 1h2.964c.136 0 .258.079.315.195l-.461 2.163v.008a.503.503 0 0 0 .001.208l.001.004v.001l2.045 8.962-.535 1.906A1.205 1.205 0 0 0 6.14 18.93h14.277a.5.5 0 0 0 0-1H6.141a.205.205 0 0 1-.16-.076c-.022-.027-.058-.086-.05-.131l.469-1.668 13.805-1.497c.63 0 1.171-.428 1.312-1.023l2.31-8.487a.502.502 0 0 0-.352-.614zm-2.927 8.855c-.038.159-.179.27-.396.272L6.399 15.05 4.562 7.002h17.696l-1.71 6.287zM6.978 19.905a2.015 2.015 0 0 0-2.017 2.009 2.016 2.016 0 0 0 4.033 0 2.015 2.015 0 0 0-2.016-2.009zm0 3.019c-.561 0-1.017-.453-1.017-1.01s.456-1.009 1.017-1.009c.56 0 1.016.452 1.016 1.009s-.456 1.01-1.016 1.01zM18.901 19.905a2.015 2.015 0 0 0-2.016 2.009c0 1.108.904 2.01 2.016 2.01a2.015 2.015 0 0 0 2.017-2.01 2.015 2.015 0 0 0-2.017-2.009zm0 3.019c-.56 0-1.016-.453-1.016-1.01s.456-1.009 1.016-1.009c.561 0 1.017.452 1.017 1.009s-.456 1.01-1.017 1.01z"/></svg>
