<svg xmlns="http://www.w3.org/2000/svg" width="24" height="24" viewBox="0 0 24 24"><path d="M23.33 13.197l-1.683-1.145-1.645-3.753A.5.5 0 0 0 19.544 8H2.486a.5.5 0 0 0-.5.5v2.027a.5.5 0 0 0 1 0V8.999h13v8.996H3.069c-.007 0-.013.004-.019.004h-.089v-1.451a.5.5 0 0 0-1 0v1.951a.5.5 0 0 0 .5.5h.107v1.451a.5.5 0 0 0 .5.5H4.07a2.459 2.459 0 0 0 2.403 1.954c1.159 0 2.128-.81 2.383-1.892h8.305a2.455 2.455 0 0 0 2.383 1.892 2.456 2.456 0 0 0 2.388-1.905h1.553a.5.5 0 0 0 .5-.5v-6.062a1.496 1.496 0 0 0-.655-1.24zm-6.344-4.198h2.231l1.571 3.586c.038.086.099.16.177.213l1.801 1.226a.5.5 0 0 1 .22.414v3.558h-6V8.999zm.149 11.013h-8.25a2.432 2.432 0 0 0-.444-1.018h9.139a2.421 2.421 0 0 0-.445 1.018zM3.569 18.995h.939c-.208.28-.363.601-.437.955h-.502v-.955zm2.905 2.909a1.456 1.456 0 1 1 1.455-1.454c0 .802-.653 1.454-1.455 1.454zm13.071 0a1.455 1.455 0 1 1 .003-2.91 1.455 1.455 0 0 1-.003 2.91zm2.409-1.905a2.444 2.444 0 0 0-.443-1.004h1.475v1.004h-1.032z"/><path d="M4.02 14.512a.5.5 0 0 0-.5-.5h-2a.5.5 0 0 0 0 1h2a.5.5 0 0 0 .5-.5zM5.02 12.512a.5.5 0 0 0-.5-.5h-4a.5.5 0 0 0 0 1h4a.5.5 0 0 0 .5-.5z"/></svg>
