<svg xmlns="http://www.w3.org/2000/svg" width="24" height="24" viewBox="0 0 24 24"><path d="M23.549 11.998L11.808.37c-.426-.422-.948-.406-1.368-.395L1.335.022A1.352 1.352 0 0 0-.012 1.387l.046 9.507c.001.354.147.703.402.958L12.177 23.48c.265.261.61.391.955.391.351 0 .7-.134.965-.401l9.459-9.551a1.358 1.358 0 0 0-.007-1.921zm-.703 1.217l-9.46 9.552a.37.37 0 0 1-.505.002L1.142 11.144a.369.369 0 0 1-.108-.254L.988 1.383a.36.36 0 0 1 .357-.361L10.228.98l.241-.005.204-.003c.23 0 .344.022.432.109l11.741 11.628a.358.358 0 0 1 0 .506z"/><path d="M5.542 3.07c-1.349 0-2.446 1.097-2.446 2.446s1.097 2.446 2.446 2.446 2.446-1.097 2.446-2.446S6.891 3.07 5.542 3.07zm0 3.891a1.447 1.447 0 1 1 .001-2.889 1.447 1.447 0 0 1-.001 2.889zM11.773 14.98c-.974.973-1.086 2.445-.25 3.282.367.368.861.563 1.409.563.076 0 .152-.003.229-.011a2.724 2.724 0 0 0 1.645-.803c.974-.974 1.086-2.446.25-3.282s-2.31-.723-3.283.251zm2.326 2.325a1.72 1.72 0 0 1-1.034.515c-.34.029-.631-.062-.834-.265-.446-.446-.334-1.284.25-1.868.343-.343.774-.523 1.161-.523.272 0 .523.089.708.273.445.447.333 1.284-.251 1.868zM12.558 12.191c.648 0 1.335-.275 1.87-.81.974-.974 1.086-2.446.25-3.283-.837-.836-2.308-.725-3.283.25-.974.974-1.085 2.447-.25 3.283.376.376.882.56 1.413.56zm-.456-3.136c.343-.343.773-.522 1.161-.522.272 0 .523.089.708.273.446.447.334 1.285-.25 1.869-.584.583-1.422.695-1.869.25-.446-.448-.334-1.286.25-1.87zM17.947 11.842l-9.963 1.594a.5.5 0 1 0 .158.988l9.963-1.595a.5.5 0 0 0-.158-.987z"/></svg>
