<svg xmlns="http://www.w3.org/2000/svg" width="24" height="24" viewBox="0 0 24 24"><path d="M20.557 5.489l-7.927 7.128a1.134 1.134 0 0 1-1.481 0L3.222 5.489a.5.5 0 0 0-.669.743l7.927 7.128c.395.355.902.533 1.41.533.507 0 1.014-.178 1.409-.533l7.927-7.128a.499.499 0 1 0-.669-.743zM15.9 13.341a.5.5 0 0 0-.639.769l5.311 4.417a.499.499 0 0 0 .704-.066.5.5 0 0 0-.065-.704L15.9 13.341zM7.878 13.341l-5.311 4.417a.5.5 0 0 0 .64.77l5.311-4.417a.5.5 0 0 0-.64-.77z"/><path d="M21.15 3H2.842C1.249 3 0 4.226 0 5.791v12.422C0 19.775 1.249 21 2.842 21H21.15c1.571 0 2.85-1.25 2.85-2.787V5.791C24 4.252 22.722 3 21.15 3zM23 18.213C23 19.215 22.188 20 21.15 20H2.842C1.809 20 1 19.215 1 18.213V5.791C1 4.786 1.809 4 2.842 4H21.15C22.188 4 23 4.786 23 5.791v12.422z"/></svg>
