<svg xmlns="http://www.w3.org/2000/svg" width="24" height="24" viewBox="0 0 24 24"><path d="M16.982 7.028a.5.5 0 0 0-.707 0l-4.267 4.267-4.267-4.267a.5.5 0 0 0-.707.707l4.267 4.267-4.267 4.267a.5.5 0 0 0 .708.707l4.267-4.267 4.267 4.267a.498.498 0 0 0 .708 0 .5.5 0 0 0 0-.707l-4.267-4.267 4.267-4.267a.5.5 0 0 0-.002-.707z"/><path d="M12.007.12C5.455.12.125 5.451.125 12.002s5.331 11.882 11.882 11.882 11.882-5.33 11.882-11.882S18.559.12 12.007.12zm0 22.765c-6 0-10.882-4.882-10.882-10.882S6.007 1.121 12.007 1.121s10.882 4.882 10.882 10.882-4.882 10.882-10.882 10.882z"/></svg>
