<svg xmlns="http://www.w3.org/2000/svg" width="24" height="24" viewBox="0 0 24 24"><path d="M21.568 6.992H16.42a2.743 2.743 0 0 0 .657-1.769v-.462a2.772 2.772 0 0 0-2.768-2.769 2.772 2.772 0 0 0-2.77 2.77v2.23H9.77A1.77 1.77 0 0 1 8 5.223v-.462c0-.975.794-1.769 1.77-1.769h.002c.323 0 .64.089.914.256a.5.5 0 1 0 .52-.854 2.756 2.756 0 0 0-1.433-.402H9.77A2.772 2.772 0 0 0 7 4.762v.461c0 .676.253 1.288.657 1.77H2.51a.5.5 0 0 0-.5.5v3.973a.5.5 0 0 0 .5.5h9.03v11h-7.53v-9.827a.5.5 0 1 0-1 0v10.327a.5.5 0 0 0 .5.5H20.502a.5.5 0 0 0 .5-.5V13.139a.5.5 0 1 0-1 0v9.827h-7.463v-11h9.03a.5.5 0 0 0 .5-.5V7.492a.5.5 0 0 0-.5-.5zm-9.03-2.23a1.77 1.77 0 0 1 3.538 0v.461a1.77 1.77 0 0 1-1.768 1.77h-1.77V4.76zM3.01 10.965V7.992h8.53v2.974h-8.53zm18.06 0h-8.53V7.992h8.529v2.974z"/></svg>
