<svg xmlns="http://www.w3.org/2000/svg" width="24" height="24" viewBox="0 0 24 24"><path d="M22.005 4.083a6.34 6.34 0 0 0-8.955 0l-1.021 1.021-1.021-1.021C9.811 2.887 8.221 2.228 6.529 2.228s-3.281.659-4.477 1.855a6.34 6.34 0 0 0 0 8.955l9.623 9.623a.498.498 0 0 0 .708 0l9.623-9.623a6.34 6.34 0 0 0-.001-8.955zm-.707 8.248l-9.27 9.269-9.27-9.269a5.338 5.338 0 0 1 0-7.541c1.007-1.007 2.346-1.562 3.771-1.562s2.763.555 3.771 1.562l1.375 1.375a.5.5 0 0 0 .707 0l1.375-1.375a5.34 5.34 0 0 1 7.541 0 5.338 5.338 0 0 1 0 7.541z"/></svg>
