<!-- Generated by IcoMoon.io -->
<svg version="1.1" xmlns="http://www.w3.org/2000/svg" width="64" height="32" viewBox="0 0 64 32">
<path d="M10.192 15.343h21.551l2.441-2.441h7.905l-6.752 7.476h-25.145v-5.035zM28.489 10.116l-4.645 4.786h7.598l2.511-2.447h9.129l-2.338 2.691h12.889v-5.029h-25.145zM54.299-0.173h-44.536c-1.986 0.004-3.594 1.614-3.594 3.6 0 0.002 0 0.005 0 0.007v-0 23.537c0 0.002 0 0.004 0 0.006 0 1.986 1.608 3.597 3.594 3.6h44.537c0 0 0 0 0 0 1.988 0 3.6-1.612 3.6-3.6 0-0.002 0-0.005 0-0.007v0-23.537c0-0.002 0-0.004 0-0.006 0-1.988-1.612-3.6-3.6-3.6 0 0 0 0 0 0v0zM57.016 26.983c0 1.567-1.271 2.838-2.838 2.838v0h-44.293c-1.567 0-2.838-1.271-2.838-2.838v-23.562c0-1.567 1.271-2.838 2.838-2.838v0h44.293c1.567 0 2.838 1.271 2.838 2.838v0zM13.6 2.012c0.821 0.215 1.416 0.95 1.416 1.825 0 0.007-0 0.014-0 0.022v-0.001c-0.014 0.427-0.187 0.81-0.462 1.096l0.001-0.001-0.122 0.135c0.548 0.303 0.913 0.877 0.913 1.536 0 0.268-0.060 0.522-0.168 0.749l0.005-0.011c-0.27 0.643-0.888 1.088-1.613 1.102l-0.002 0c-0.035-0.002-0.077-0.004-0.119-0.004s-0.083 0.001-0.124 0.004l0.006-0h-2.8c-0.192 0-0.205 0-0.205-0.205q0-3.101 0-6.208h3.049c0.086-0.009 0.162-0.023 0.236-0.041l-0.012 0.002zM12.095 3.293q0 0.641 0 1.23v0h0.717c0.004 0 0.008 0 0.012 0 0.245 0 0.449-0.179 0.487-0.414l0-0.003c0.008-0.038 0.013-0.083 0.013-0.128 0-0.209-0.1-0.394-0.255-0.511l-0.002-0.001c-0.183-0.143-0.416-0.229-0.67-0.229-0.108 0-0.213 0.016-0.312 0.045l0.008-0.002zM12.095 7.188c0.127 0.008 0.276 0.013 0.426 0.013s0.299-0.005 0.446-0.014l-0.020 0.001c0.309-0.021 0.551-0.276 0.551-0.588 0-0.003-0-0.005-0-0.008v0c0.001-0.016 0.002-0.035 0.002-0.053 0-0.295-0.2-0.544-0.472-0.618l-0.005-0.001c-0.139-0.012-0.301-0.019-0.464-0.019s-0.325 0.007-0.485 0.020l0.021-0.001c-0.002 0.019-0.003 0.042-0.003 0.064s0.001 0.045 0.004 0.067l-0-0.003q0 0.538 0 1.076s-0.026 0.026-0.013 0.051zM28.982 6.336c0.005-1.081 0.749-1.987 1.752-2.239l0.016-0.003c0.197-0.056 0.424-0.088 0.658-0.088 0.945 0 1.768 0.525 2.192 1.299l0.007 0.013c0.169 0.308 0.269 0.675 0.269 1.066 0 0.992-0.642 1.834-1.534 2.133l-0.016 0.005c-0.213 0.070-0.459 0.114-0.714 0.122l-0.004 0c-0.073 0.007-0.158 0.010-0.243 0.010-0.209 0-0.412-0.022-0.608-0.065l0.019 0.003c-1.034-0.239-1.794-1.153-1.794-2.243 0-0.004 0-0.008 0-0.012v0.001zM30.564 6.336c-0.001 0.012-0.001 0.025-0.001 0.039 0 0.464 0.366 0.843 0.825 0.864l0.002 0c0.004 0 0.009 0 0.013 0 0.486 0 0.882-0.387 0.896-0.87l0-0.001c0.002-0.019 0.002-0.042 0.002-0.065 0-0.471-0.381-0.852-0.852-0.852-0.012 0-0.024 0-0.036 0.001l0.002-0c-0.014-0.001-0.030-0.001-0.047-0.001-0.446 0-0.807 0.361-0.807 0.807 0 0.019 0.001 0.037 0.002 0.055l-0-0.002zM19.744 8.521h-1.243c-0.058 0-0.122-0.051-0.218-0.096-0.301 0.136-0.653 0.218-1.023 0.224l-0.002 0c-0.058 0.005-0.125 0.009-0.193 0.009-0.367 0-0.713-0.091-1.017-0.251l0.012 0.006c-0.337-0.189-0.561-0.545-0.561-0.953 0-0.053 0.004-0.104 0.011-0.155l-0.001 0.006c0.035-0.802 0.633-1.455 1.406-1.575l0.009-0.001c0.258-0.058 0.577-0.107 0.902-0.138l0.033-0.003c0.051 0 0.109 0 0.154 0s0.167-0.096 0.192-0.167-0.077-0.128-0.122-0.192-0.096-0.083-0.147-0.083c-0.231 0-0.461 0-0.685 0-0.061 0.016-0.114 0.040-0.162 0.072l0.002-0.001c-0.263 0.058-0.525 0.109-0.788 0.173-0.154 0.038-0.301 0.103-0.474 0.167 0-0.147 0.038-0.269 0.064-0.397s0.090-0.436 0.122-0.641c0-0.103 0.058-0.173 0.167-0.192l0.871-0.141c0.189-0.035 0.41-0.058 0.635-0.064l0.006-0c0.019-0 0.041-0.001 0.063-0.001 0.508 0 0.989 0.118 1.416 0.329l-0.019-0.008c0.346 0.162 0.604 0.463 0.703 0.83l0.002 0.009c-0.002 0.016-0.003 0.035-0.003 0.054s0.001 0.038 0.004 0.057l-0-0.002c0 0.948 0 1.922 0 2.851-0.025 0.104-0.065 0.196-0.117 0.279l0.002-0.004zM18.322 6.932c0.003-0.036 0.005-0.079 0.005-0.122s-0.002-0.085-0.006-0.127l0 0.005c0-0.038-0.058-0.096-0.090-0.096-0.030-0.003-0.065-0.004-0.101-0.004-0.338 0-0.645 0.131-0.874 0.344l0.001-0.001c-0.080 0.081-0.129 0.192-0.129 0.315 0 0.077 0.019 0.149 0.054 0.213l-0.001-0.002c0.102 0.142 0.267 0.233 0.453 0.233 0.016 0 0.033-0.001 0.049-0.002l-0.002 0c0.003 0 0.007 0 0.010 0 0.354 0 0.641-0.287 0.641-0.641 0-0.041-0.004-0.081-0.011-0.119l0.001 0.004zM43.261 8.623c-0.235-0.058-0.436-0.126-0.629-0.209l0.027 0.010c-0.343-0.166-0.575-0.511-0.577-0.909v-0c-0.008-0.059-0.013-0.126-0.013-0.195 0-0.507 0.257-0.954 0.648-1.218l0.005-0.003c0.228-0.151 0.492-0.274 0.774-0.354l0.020-0.005c0.273-0.063 0.605-0.115 0.944-0.145l0.030-0.002h0.070c0.115 0 0.243-0.058 0.25-0.192s-0.115-0.173-0.218-0.173c-0.144-0.012-0.311-0.019-0.48-0.019s-0.337 0.007-0.502 0.021l0.022-0.001c-0.416 0.064-0.82 0.179-1.249 0.275l0.128-0.711c0-0.083 0.038-0.167 0.045-0.256-0-0.003-0-0.007-0-0.010 0-0.122 0.088-0.224 0.204-0.246l0.002-0c0.384-0.115 0.825-0.181 1.281-0.181s0.897 0.066 1.314 0.189l-0.033-0.008c0.355 0.085 0.654 0.281 0.869 0.548l0.002 0.003c0.081 0.131 0.156 0.283 0.218 0.442l0.007 0.019c-0.018 0.039-0.031 0.084-0.038 0.132l-0 0.003q0 1.416 0 2.832c0.001 0.009 0.002 0.020 0.002 0.031 0 0.102-0.057 0.191-0.141 0.237l-0.001 0.001c-0.391 0-0.775 0-1.166 0-0.082-0.019-0.155-0.050-0.221-0.091l0.003 0.002-0.73 0.186-0.814-0.032s-0.026 0.019-0.051 0.032zM43.78 7.515c0.081 0.131 0.225 0.218 0.388 0.218 0.094 0 0.182-0.029 0.254-0.078l-0.002 0.001c0.279-0.073 0.482-0.323 0.482-0.621 0-0.057-0.008-0.113-0.022-0.165l0.001 0.004c-0.002-0.020-0.004-0.044-0.004-0.067s0.001-0.047 0.004-0.070l-0 0.003c0-0.109-0.038-0.173-0.147-0.147-0.241 0.039-0.457 0.099-0.662 0.18l0.021-0.007c-0.219 0.067-0.375 0.267-0.375 0.503 0 0.090 0.023 0.175 0.063 0.249l-0.001-0.003zM20.295 8.514c-0.002-0.030-0.004-0.064-0.004-0.099s0.001-0.070 0.004-0.104l-0 0.005q0-1.967 0-3.927c0-0.218 0-0.218 0.218-0.218h1.192c0.205 0 0.205 0 0.211 0.205 0 0 0 0.045 0 0.096l0.179-0.109c0.266-0.178 0.594-0.285 0.947-0.285 0.496 0 0.943 0.21 1.256 0.546l0.001 0.001c0.258 0.275 0.416 0.646 0.416 1.055 0 0.005-0 0.011-0 0.016v-0.001c0 0.897 0 1.794 0 2.691 0.002 0.019 0.003 0.041 0.003 0.064s-0.001 0.045-0.003 0.067l0-0.003c-0.026-0.017-0.056-0.031-0.088-0.038l-0.002-0h-1.102c-0.086 0.008-0.164 0.024-0.239 0.047l0.009-0.002h-0.038c-0.044-0.080-0.077-0.172-0.095-0.27l-0.001-0.006c0-0.641 0-1.339 0-2.005-0.006-0.085-0.017-0.164-0.034-0.241l0.002 0.011c-0.029-0.26-0.21-0.47-0.45-0.543l-0.005-0.001c-0.057-0.018-0.122-0.029-0.189-0.029-0.26 0-0.484 0.155-0.584 0.377l-0.002 0.004c-0.128 0-0.102 0.115-0.102 0.192s0 0.173 0 0.256q0 0.89 0 1.775c0 0.141 0 0.282 0 0.41h-0.192c-0.282 0-0.557 0-0.839 0.032-0.167 0-0.327-0.064-0.468 0.032zM34.19 4.177h1.397c0.102 0 0.167 0.038 0.16 0.147s0 0.077 0 0.147l0.282-0.16c0.252-0.148 0.554-0.235 0.877-0.235 0.483 0 0.92 0.195 1.237 0.51l-0-0c0.227 0.226 0.383 0.524 0.428 0.857l0.001 0.008c-0.002 0.035-0.004 0.077-0.004 0.119s0.001 0.083 0.004 0.124l-0-0.006c0 0.846 0 1.691 0 2.563-0.012 0.11-0.035 0.209-0.067 0.305l0.003-0.010h-1.352c-0.147 0-0.154-0.083-0.154-0.186q0-0.923 0-1.845c0-0.16 0-0.32 0-0.48 0-0.003 0-0.006 0-0.009 0-0.3-0.23-0.547-0.523-0.574l-0.002-0c-0.017-0.002-0.038-0.003-0.058-0.003-0.257 0-0.479 0.152-0.581 0.37l-0.002 0.004c0 0.051-0.038 0.109-0.058 0.16-0.002 0.030-0.004 0.064-0.004 0.099s0.001 0.070 0.004 0.104l-0-0.005q0 1.172 0 2.351h-1.557c-0.002-0.043-0.004-0.093-0.004-0.144s0.001-0.101 0.004-0.151l-0 0.007q-0.032-2.012-0.032-4.068zM38.816 5.004c0-0.231 0-0.461 0-0.692 0-0.115 0.045-0.147 0.154-0.147 0.372 0 0.372 0 0.372-0.391 0-0.186 0-0.365 0-0.551-0-0.005-0.001-0.011-0.001-0.017 0-0.071 0.033-0.133 0.084-0.175l0-0c0.487-0.256 0.98-0.506 1.467-0.762h0.051c0 0.045 0 0.096 0 0.141 0 0.519 0 1.031 0 1.55 0 0.135 0.038 0.186 0.179 0.179s0.391 0 0.583 0c0.077 0 0.135 0 0.135 0.115 0 0.346 0 0.685 0 1.063h-0.839c-0.021 0.061-0.037 0.133-0.044 0.207l-0 0.004c0 0.352 0 0.711 0 1.063 0 0.192 0 0.391 0 0.583 0 0.032-0.032 0.128 0.070 0.070 0.205 0.186 0.429 0.109 0.641 0.038 0.072 0.017 0.125 0.080 0.125 0.156 0 0.020-0.004 0.039-0.010 0.056l0-0.001c-0.008 0.043-0.012 0.093-0.012 0.144s0.004 0.101 0.013 0.149l-0.001-0.005c0.010 0.036 0.015 0.078 0.015 0.121 0 0.218-0.146 0.403-0.345 0.461l-0.003 0.001c-0.062 0.040-0.114 0.086-0.159 0.14l-0.001 0.001c-0.167 0.063-0.36 0.1-0.561 0.1-0.237 0-0.463-0.051-0.666-0.143l0.010 0.004c-0.444-0.182-0.75-0.611-0.75-1.111 0-0.015 0-0.029 0.001-0.044l-0 0.002c0-0.641 0-1.281 0-1.922-0.102 0-0.205-0.032-0.307-0.038s-0.16 0-0.154-0.147c-0.011-0.078-0.026-0.147-0.047-0.214l0.002 0.009zM52.986 7.31c0.085 0.049 0.186 0.078 0.295 0.078s0.21-0.029 0.298-0.080l-0.003 0.002c0.078 0.011 0.138 0.078 0.138 0.159 0 0.012-0.001 0.023-0.004 0.035l0-0.001c0 0.058 0 0.115 0 0.173 0.008 0.056 0.013 0.121 0.013 0.187 0 0.162-0.028 0.318-0.080 0.463l0.003-0.010c-0.262 0.192-0.591 0.307-0.947 0.307-0.070 0-0.14-0.005-0.208-0.013l0.008 0.001c-0.504-0.019-0.931-0.326-1.124-0.761l-0.003-0.008c-0.061-0.152-0.096-0.327-0.096-0.512 0-0.003 0-0.005 0-0.008v0c0-0.557 0-1.115 0-1.666-0.002-0.074-0.012-0.144-0.027-0.213l0.001 0.008c-0.045-0.003-0.098-0.004-0.151-0.004s-0.106 0.001-0.158 0.004l0.007-0c-0.122 0-0.179-0.038-0.179-0.167 0-0.295 0-0.596 0-0.89 0-0.064 0.064-0.122 0.096-0.186h0.070c0.359 0 0.359 0 0.352-0.359 0-0.192 0-0.378 0-0.564-0.010-0.023-0.016-0.050-0.016-0.078 0-0.078 0.045-0.146 0.111-0.178l0.001-0.001 1.185-0.641c0.237 0 0.237 0 0.237 0.275 0 0.423 0 0.846 0 1.281 0.009 0.079 0.025 0.151 0.047 0.219l-0.002-0.008h0.852v1.185h-0.769c-0.022 0.055-0.040 0.12-0.051 0.187l-0.001 0.005c0 0.224 0 0.442 0 0.641 0 0.327 0 0.641 0 0.974 0 0.096-0.038 0.211 0.102 0.16zM50.462 5.734c-0.087-0.053-0.19-0.107-0.297-0.154l-0.017-0.007c-0.206-0.097-0.448-0.154-0.703-0.154-0.208 0-0.407 0.038-0.59 0.107l0.012-0.004c-0.342 0.136-0.58 0.464-0.58 0.848 0 0.047 0.004 0.093 0.010 0.137l-0.001-0.005c0.017 0.183 0.117 0.34 0.26 0.434l0.002 0.001c0.26 0.162 0.575 0.258 0.913 0.258 0.302 0 0.585-0.077 0.833-0.211l-0.009 0.005 0.147-0.077c0.001 0.013 0.002 0.029 0.002 0.045s-0.001 0.031-0.002 0.047l0-0.002c0 0.378 0 0.756 0 1.134 0.001 0.007 0.001 0.015 0.001 0.022 0 0.075-0.045 0.14-0.109 0.169l-0.001 0c-0.343 0.182-0.749 0.288-1.181 0.288-1.007 0-1.879-0.581-2.298-1.426l-0.007-0.015c-0.11-0.255-0.174-0.552-0.174-0.864 0-1.064 0.745-1.954 1.742-2.176l0.015-0.003c0.22-0.054 0.472-0.085 0.731-0.085 0.4 0 0.783 0.073 1.136 0.207l-0.022-0.007c0.121 0.028 0.209 0.135 0.209 0.262 0 0.016-0.001 0.032-0.004 0.047l0-0.002c0 0.34 0 0.679 0 1.019-0.006 0.019-0.013 0.096-0.019 0.16zM28.572 5.651c-0.252-0.146-0.554-0.232-0.877-0.232-0.132 0-0.261 0.014-0.384 0.042l0.012-0.002c-0.383 0.066-0.683 0.354-0.768 0.724l-0.001 0.006c-0.017 0.055-0.026 0.117-0.026 0.182 0 0.18 0.074 0.342 0.193 0.458l0 0c0.173 0.194 0.415 0.323 0.688 0.346l0.004 0c0.078 0.009 0.169 0.014 0.261 0.014 0.264 0 0.518-0.043 0.756-0.122l-0.017 0.005 0.243-0.038c0 0.077 0 0.135 0 0.199 0 0.256 0 0.519 0 0.775-0.014 0.118-0.036 0.224-0.067 0.327l0.003-0.013c-0.329 0.184-0.722 0.292-1.14 0.292-0.131 0-0.26-0.011-0.386-0.031l0.014 0.002c-0.453-0.040-0.859-0.21-1.19-0.471l0.005 0.004c-0.109-0.128-0.211-0.256-0.327-0.372-0.057-0.050-0.12-0.097-0.186-0.138l-0.006-0.003c-0.259-0.337-0.414-0.765-0.414-1.229 0-0.109 0.009-0.216 0.025-0.32l-0.002 0.011c0.081-1.017 0.855-1.831 1.846-1.972l0.011-0.001c0.169-0.037 0.363-0.058 0.562-0.058 0.437 0 0.849 0.102 1.216 0.283l-0.016-0.007c0.028 0.076 0.051 0.164 0.063 0.256l0.001 0.007c0 0.288 0 0.583 0 0.871-0.022 0.078-0.055 0.146-0.098 0.207l0.001-0.002zM10.327 2.038q0 3.101 0 6.208c0 0.192 0 0.205 0.205 0.205h2.793c0.035-0.002 0.077-0.004 0.119-0.004s0.083 0.001 0.124 0.004l-0.006-0h-3.267c0-0.070 0-0.128 0-0.192q0-3.056 0-6.118c0.006-0.071 0.017-0.137 0.034-0.2l-0.002 0.008zM20.295 8.514c0.141-0.096 0.301-0.032 0.455-0.045 0.282 0 0.557 0 0.839-0.032h0.192c0-0.128 0-0.269 0-0.41q0-0.89 0-1.775c0-0.083 0-0.173 0-0.256s0-0.179 0.102-0.192c-0.017 0.076-0.031 0.168-0.038 0.262l-0 0.007c0 0.75 0 1.493 0 2.242 0 0.211 0 0.211-0.211 0.211zM34.19 4.177q0 2.024 0 4.055c-0.002 0.043-0.004 0.093-0.004 0.144s0.001 0.101 0.004 0.151l-0-0.007c-0.030-0.048-0.052-0.104-0.064-0.163l-0.001-0.003c0-0.564 0-1.134 0-1.698q0-1.153 0-2.3c0.017-0.069 0.039-0.128 0.067-0.185l-0.002 0.006zM46.26 8.521c0.086-0.046 0.143-0.135 0.143-0.238 0-0.011-0.001-0.022-0.002-0.033l0 0.001q0-1.416 0-2.832c0.007-0.050 0.021-0.096 0.040-0.138l-0.001 0.003c0 0.429 0 0.858 0 1.281 0 0.57 0 1.147 0 1.717 0 0.070 0 0.135 0 0.224zM19.744 8.521c0.044-0.080 0.077-0.172 0.095-0.27l0.001-0.006c0-0.948 0-1.922 0-2.851-0.002-0.016-0.003-0.035-0.003-0.054s0.001-0.038 0.004-0.057l-0 0.002c0 0.103 0 0.205 0 0.308q0 1.377 0 2.748c0.019 0.102 0.058 0.205-0.096 0.179zM41.295 8.533c0.046-0.055 0.099-0.101 0.157-0.139l0.003-0.002c0.203-0.059 0.349-0.244 0.349-0.462 0-0.043-0.006-0.085-0.016-0.124l0.001 0.003c-0.008-0.043-0.012-0.093-0.012-0.144s0.004-0.101 0.013-0.149l-0.001 0.005c0.006-0.016 0.010-0.035 0.010-0.055 0-0.076-0.053-0.14-0.124-0.156l-0.001-0 0.173-0.109c0 0.359 0 0.685 0 1.019 0 0.032-0.045 0.077-0.083 0.096zM38.438 8.521c0.029-0.085 0.052-0.185 0.063-0.288l0.001-0.006c0-0.846 0-1.691 0-2.563-0.002-0.035-0.004-0.077-0.004-0.119s0.001-0.083 0.004-0.124l-0 0.006q0 1.467 0 2.94c0.070 0.102 0.070 0.173-0.064 0.154zM23.12 6.003c0.015 0.066 0.026 0.145 0.032 0.226l0 0.005c0 0.641 0 1.339 0 2.005 0.019 0.103 0.052 0.196 0.099 0.28l-0.002-0.005c-0.141 0-0.141-0.064-0.141-0.16q0.013-1.172 0.013-2.351zM35.708 8.521q0-1.172 0-2.351c-0.002-0.030-0.004-0.064-0.004-0.099s0.001-0.070 0.004-0.104l-0 0.005q0 1.211 0 2.428c0.002 0.018 0.004 0.039 0.004 0.061s-0.001 0.043-0.004 0.063l0-0.002zM52.858 4.177c-0.020-0.061-0.036-0.132-0.044-0.206l-0.001-0.005c0-0.423 0-0.846 0-1.281 0-0.256 0-0.256-0.237-0.275l0.282-0.154zM52.986 7.31c-0.141 0.051-0.102-0.064-0.102-0.122 0-0.327 0-0.641 0-0.974 0-0.224 0-0.448 0-0.641 0.011-0.072 0.029-0.137 0.053-0.198l-0.002 0.006c0 0.577 0 1.153 0 1.73 0.011 0.074 0.029 0.141 0.053 0.205l-0.002-0.006zM41 7.278c-0.102 0.058-0.070-0.038-0.070-0.070 0-0.192 0-0.391 0-0.583 0-0.352 0-0.711 0-1.063 0.017-0.080 0.042-0.151 0.073-0.218l-0.003 0.006c0 0.589 0 1.172 0 1.762-0.002 0.025-0.004 0.054-0.004 0.083s0.001 0.058 0.004 0.087l-0-0.004zM50.846 4.177c-0.032 0.058-0.096 0.122-0.096 0.186 0 0.295 0 0.596 0 0.89 0 0.128 0.058 0.167 0.179 0.167 0.045-0.003 0.098-0.004 0.151-0.004s0.106 0.001 0.158 0.004l-0.007-0h-0.519c0-0.173 0-0.333 0-0.487s0-0.436 0-0.641c-0.006-0.090 0.026-0.135 0.135-0.115zM28.604 8.316c0.028-0.090 0.050-0.196 0.063-0.305l0.001-0.009c0-0.256 0-0.513 0-0.775 0-0.064 0-0.122 0-0.199l-0.243 0.038 0.295-0.173c0 0.122 0 0.218 0 0.314 0 0.308 0 0.641 0 0.922-0.006 0.090-0.019 0.16-0.115 0.186zM28.572 5.651c0.043-0.064 0.076-0.139 0.095-0.22l0.001-0.005c0-0.288 0-0.583 0-0.871-0.013-0.098-0.036-0.187-0.067-0.272l0.003 0.009c0.032 0.045 0.096 0.090 0.096 0.135 0 0.429 0 0.852 0 1.281zM23.293 8.521c0.067-0.021 0.145-0.037 0.226-0.044l0.005-0h1.057c0.034 0.008 0.064 0.021 0.091 0.039l-0.001-0.001zM17.085 5.215c0.046-0.031 0.099-0.055 0.157-0.070l0.004-0.001c0.231 0 0.461 0 0.685 0 0.051 0 0.096 0.051 0.147 0.083zM53.64 8.322c0.049-0.135 0.077-0.291 0.077-0.454 0-0.066-0.005-0.131-0.014-0.194l0.001 0.007c0-0.058 0-0.115 0-0.173 0.002-0.010 0.004-0.022 0.004-0.034 0-0.081-0.060-0.147-0.137-0.159l-0.001-0 0.167-0.109c0 0.352 0 0.679 0 0.999 0 0.045-0.058 0.077-0.096 0.115zM25.394 7.598c0.073 0.044 0.135 0.091 0.194 0.142l-0.001-0.001c0.115 0.122 0.218 0.25 0.327 0.372zM43.261 8.623s0.051-0.038 0.077-0.032l0.814 0.032zM53.71 5.343v-1.166s0 0.038 0 0.058q0 0.532 0 1.057s0.013 0.032 0 0.051zM38.816 5.004c0.023 0.079 0.039 0.171 0.045 0.266l0 0.004c0 0.122 0.058 0.141 0.154 0.147s0.205 0 0.307 0.038h-0.372c-0.109 0-0.141-0.038-0.141-0.141s0-0.211 0.006-0.314zM12.082 5.9v1.281s-0.038-0.045-0.038-0.070q0-0.538 0-1.076c0.008-0.051 0.022-0.096 0.040-0.138l-0.001 0.004zM12.095 3.28v1.224q-0.006-0.609 0-1.224zM43.78 7.515c0.126 0.101 0.288 0.162 0.464 0.162 0.063 0 0.124-0.008 0.182-0.022l-0.005 0.001c-0.071 0.048-0.158 0.077-0.253 0.077-0.163 0-0.307-0.086-0.387-0.216l-0.001-0.002zM14.638 28.316c-0.002-0.033-0.004-0.071-0.004-0.109s0.001-0.076 0.004-0.114l-0 0.005q0-1.595 0-3.203c0-0.005 0-0.011 0-0.017 0-0.059-0.014-0.115-0.040-0.164l0.001 0.002-1.249 1.768-0.122-0.16-1.108-1.576c-0.022-0.028-0.045-0.053-0.070-0.077l-0-0c-0.015 0.047-0.027 0.101-0.032 0.157l-0 0.003q0 1.73 0 3.459h-1.55c-0.115 0-0.147-0.051-0.147-0.154q0-1.582 0-3.165c0.002-0.025 0.004-0.054 0.004-0.083s-0.001-0.058-0.004-0.087l0 0.004q0-1.352 0-2.703c-0.008-0.062-0.021-0.118-0.040-0.172l0.002 0.006c0.028-0.002 0.060-0.003 0.093-0.003s0.065 0.001 0.097 0.003l-0.004-0h1.365c0.006-0 0.012-0.001 0.019-0.001 0.112 0 0.21 0.062 0.262 0.153l0.001 0.002c0.352 0.525 0.711 1.044 1.070 1.563l0.122 0.173 0.147-0.231c0.34-0.5 0.685-0.993 1.025-1.493 0.055-0.097 0.157-0.161 0.274-0.161 0.007 0 0.014 0 0.022 0.001l-0.001-0c0.468 0 0.929 0 1.397 0 0.122 0 0.173 0.038 0.173 0.173 0 0.987 0 1.973-0.038 2.96-0.029 0.042-0.051 0.091-0.063 0.144l-0.001 0.003c0 0.442 0 0.884 0 1.326s0 1.031 0 1.55c0 0.115-0.038 0.16-0.16 0.154-0.404 0-0.801 0-1.204 0-0.199 0-0.211 0-0.218-0.199q0-1.493 0-2.979c0-0.070 0-0.147 0-0.218s0-0.045-0.032-0.070h-0.032zM50.68 28.316h-1.281c-0.083 0-0.128-0.032-0.128-0.122s0-0.090 0-0.135q0-2.934 0-5.868c0-0.25 0-0.25 0.243-0.25h1.095c0.030-0.002 0.064-0.003 0.099-0.003s0.070 0.001 0.104 0.004l-0.005-0c-0.002 0.013-0.003 0.029-0.003 0.045s0.001 0.031 0.004 0.047l-0-0.002q0 0.961 0 1.922c-0.002 0.028-0.004 0.060-0.004 0.093s0.001 0.065 0.004 0.097l-0-0.004c0.074-0.025 0.136-0.051 0.195-0.081l-0.009 0.004c0.286-0.19 0.637-0.303 1.014-0.303 0.442 0 0.849 0.155 1.167 0.414l-0.003-0.003c0.391 0.293 0.641 0.755 0.641 1.275 0 0.002 0 0.005 0 0.007v-0q0 1.281 0 2.563c0 0.275 0 0.275-0.275 0.256-0.030-0.002-0.064-0.003-0.099-0.003s-0.070 0.001-0.104 0.004l0.005-0h-0.878c-0.243 0-0.263 0-0.263-0.269 0-0.75 0-1.499 0-2.249 0 0-0.032-0.045-0.051-0.064-0.16-0.391-0.372-0.551-0.711-0.512-0.295 0.015-0.537 0.228-0.595 0.508l-0.001 0.004c0 0.051 0 0.102 0 0.154 0 0.73 0 1.467 0 2.197 0.001 0.010 0.002 0.021 0.002 0.033 0 0.109-0.066 0.202-0.16 0.242l-0.002 0.001zM35.055 24.696c0.174-1.316 1.127-2.37 2.374-2.692l0.022-0.005c0.335-0.086 0.719-0.136 1.115-0.136 0.553 0 1.084 0.097 1.576 0.274l-0.032-0.010 0.090 0.045s0 0.058 0 0.083c0.043 0.064 0.076 0.139 0.095 0.219l0.001 0.005c0 0.34 0 0.673 0 1.012-0.016 0.066-0.043 0.124-0.078 0.175l0.001-0.002c-0.251-0.161-0.547-0.276-0.865-0.325l-0.013-0.002c-0.177-0.032-0.381-0.051-0.59-0.051-0.305 0-0.6 0.040-0.882 0.114l0.024-0.005c-0.655 0.209-1.136 0.776-1.216 1.465l-0.001 0.008c-0.002 0.031-0.003 0.068-0.003 0.105 0 1.093 0.886 1.98 1.98 1.98 0.033 0 0.065-0.001 0.097-0.002l-0.005 0c0.027 0.001 0.058 0.002 0.089 0.002 0.505 0 0.977-0.144 1.376-0.392l-0.011 0.006c0.043 0.062 0.076 0.135 0.095 0.213l0.001 0.004c0 0.34 0 0.673 0 1.012-0.002 0.021-0.003 0.046-0.003 0.070s0.001 0.049 0.004 0.074l-0-0.003c-0.219 0.12-0.478 0.232-0.746 0.323l-0.035 0.010c-0.303 0.088-0.651 0.139-1.011 0.139-0.886 0-1.7-0.309-2.34-0.824l0.007 0.006c-0.628-0.487-1.059-1.204-1.164-2.022l-0.002-0.015zM44.953 28.239h-1.281s-0.045 0-0.051 0c-0.141-0.147-0.269 0-0.397 0-0.256 0.083-0.55 0.131-0.855 0.131s-0.6-0.048-0.876-0.136l0.020 0.006c-0.52-0.138-0.898-0.605-0.898-1.16 0-0.077 0.007-0.152 0.021-0.225l-0.001 0.007c0.094-0.718 0.642-1.285 1.342-1.408l0.010-0.001c0.28-0.060 0.627-0.112 0.981-0.145l0.038-0.003c0.097-0.006 0.186-0.032 0.267-0.072l-0.004 0.002c0.063-0.041 0.106-0.108 0.115-0.185l0-0.001c0-0.051-0.083-0.122-0.147-0.141-0.087-0.028-0.187-0.045-0.29-0.045-0.004 0-0.008 0-0.011 0h0.001c-0.048-0.002-0.104-0.003-0.16-0.003-0.634 0-1.24 0.123-1.794 0.347l0.032-0.011-0.115 0.038c0-0.167 0.051-0.314 0.077-0.461s0.077-0.429 0.135-0.641c0.019-0.061 0.063-0.11 0.12-0.134l0.001-0.001c0.327-0.077 0.641-0.135 0.993-0.199 0.173 0 0.346 0 0.525 0s0.314 0 0.474 0c0.48 0.036 0.918 0.191 1.292 0.436l-0.010-0.006c0.277 0.182 0.469 0.475 0.512 0.814l0.001 0.006c-0.002 0.033-0.003 0.071-0.003 0.109s0.001 0.076 0.004 0.114l-0-0.005c0 0.897 0 1.8 0 2.697-0.013 0.103-0.035 0.196-0.067 0.285l0.003-0.009zM43.434 26.663c0-0.41 0-0.41-0.41-0.327-0.252 0.037-0.473 0.152-0.641 0.32l-0 0c-0.079 0.082-0.128 0.193-0.128 0.316 0 0.071 0.016 0.139 0.046 0.199l-0.001-0.003c0.108 0.149 0.282 0.245 0.478 0.245 0.014 0 0.029-0 0.043-0.002l-0.002 0c0.348-0.028 0.62-0.318 0.62-0.671 0-0.028-0.002-0.055-0.005-0.082l0 0.003zM26.951 26.279c-0.012 0.043-0.019 0.091-0.019 0.142 0 0.222 0.133 0.413 0.323 0.497l0.003 0.001c0.243 0.123 0.53 0.195 0.833 0.195 0.159 0 0.313-0.020 0.461-0.057l-0.013 0.003c0.346-0.083 0.685-0.218 1.031-0.327 0.102 0 0.115 0.077 0.115 0.16 0 0.205 0 0.416 0 0.641s0 0.282 0 0.423c-0.294 0.207-0.644 0.354-1.024 0.415l-0.014 0.002c-0.147 0.032-0.295 0.045-0.442 0.064v0l-0.756-0.064v0.070c-1.197-0.108-2.129-1.107-2.129-2.323 0-1.109 0.774-2.037 1.812-2.274l0.016-0.003c0.159-0.036 0.342-0.057 0.529-0.057 0.358 0 0.697 0.075 1.005 0.21l-0.016-0.006c0.62 0.302 1.048 0.91 1.089 1.622l0 0.005c0 0.096 0 0.192 0 0.288-0.003 0.030-0.005 0.064-0.005 0.099s0.002 0.070 0.005 0.104l-0-0.004c0 0.135-0.051 0.173-0.173 0.173h-2.396c-0.035-0.003-0.077-0.004-0.119-0.004s-0.083 0.001-0.124 0.004l0.006-0zM26.906 25.382h1.39c-0.017-0.3-0.262-0.538-0.563-0.545h-0.001c-0.551-0.026-0.782 0.147-0.826 0.545zM24.44 23.864c0.25 0 0.493 0 0.743 0 0.135 0 0.199 0.038 0.192 0.186 0 0.301 0 0.596 0 0.897 0 0.122-0.045 0.16-0.16 0.16h-0.705c-0.001 0.022-0.002 0.048-0.002 0.074s0.001 0.052 0.002 0.077l-0-0.004q0 0.794 0 1.582c0 0.243 0.122 0.359 0.372 0.32 0.193-0.045 0.356-0.096 0.514-0.156l-0.027 0.009c0.002 0.013 0.003 0.029 0.003 0.045s-0.001 0.031-0.003 0.047l0-0.002c0 0.282 0 0.564 0 0.846-0.003 0.067-0.035 0.126-0.083 0.166l-0 0c-0.288 0.201-0.645 0.321-1.030 0.321-0.202 0-0.396-0.033-0.578-0.094l0.013 0.004c-0.501-0.14-0.863-0.593-0.863-1.131 0-0.071 0.006-0.141 0.019-0.209l-0.001 0.007c0.015-0.052 0.026-0.113 0.032-0.176l0-0.004q0-0.718 0-1.435c-0.006-0.066-0.017-0.128-0.034-0.186l0.002 0.007c-0.147 0-0.295 0-0.442 0s-0.154-0.038-0.154-0.147q0-0.506 0-1.012c0-0.115 0.051-0.147 0.154-0.147s0.288 0 0.436-0.038c0.015-0.057 0.026-0.125 0.032-0.194l0-0.005c0-0.218 0-0.436 0-0.641 0-0.102 0-0.192 0.128-0.224 0 0 0-0.045 0-0.070l1.281-0.679c0.029 0.069 0.051 0.148 0.063 0.232l0.001 0.005c0 0.48 0 0.961 0 1.441 0.029 0.048 0.061 0.090 0.097 0.129l-0-0zM22.351 27.374c-0.223 0.483-0.669 0.829-1.202 0.909l-0.009 0.001c-0.248 0.050-0.533 0.079-0.825 0.079-0.489 0-0.958-0.080-1.397-0.229l0.031 0.009c-0.126-0.018-0.221-0.125-0.221-0.254 0-0.014 0.001-0.029 0.003-0.042l-0 0.002c0-0.34 0-0.673 0-1.051l0.455 0.167h-0.032c0.299 0.097 0.643 0.153 1 0.153 0.124 0 0.246-0.007 0.366-0.020l-0.015 0.001c0.045 0 0.090-0.070 0.135-0.102 0.16-0.205 0.141-0.34-0.102-0.442s-0.397-0.102-0.596-0.16c-0.186-0.048-0.344-0.103-0.496-0.168l0.021 0.008c-0.411-0.184-0.692-0.59-0.692-1.061 0-0.234 0.069-0.452 0.189-0.634l-0.003 0.004c0.243-0.426 0.671-0.723 1.172-0.781l0.007-0.001c0.138-0.018 0.298-0.028 0.46-0.028 0.46 0 0.901 0.083 1.308 0.235l-0.026-0.008c0.038 0 0.090 0.051 0.096 0.083 0.032 0.365 0.058 0.73 0.090 1.115-0.167-0.057-0.382-0.114-0.602-0.16l-0.039-0.007c-0.208-0.030-0.449-0.049-0.695-0.051l-0.003-0c-0.072 0.001-0.139 0.025-0.193 0.065l0.001-0.001c-0.061 0.026-0.102 0.085-0.102 0.154s0.042 0.128 0.101 0.153l0.001 0c0.11 0.042 0.24 0.075 0.374 0.095l0.010 0.001c0.459 0.065 0.861 0.268 1.173 0.565l-0.001-0.001c0.103 0.129 0.197 0.274 0.275 0.428l0.007 0.014c-0.002 0.022-0.003 0.048-0.003 0.074s0.001 0.052 0.004 0.077l-0-0.003c0 0.135 0 0.275 0 0.41s-0.019 0.263-0.026 0.404zM48.329 23.973c0.218 0.032 0.231 0.045 0.243 0.256l0.051 0.967-0.147-0.045c-0.301-0.122-0.651-0.193-1.017-0.193-0.016 0-0.033 0-0.049 0l0.002-0c-0.011-0.001-0.024-0.001-0.037-0.001-0.072 0-0.141 0.015-0.204 0.041l0.003-0.001c-0.071 0.040-0.124 0.105-0.147 0.184l-0.001 0.002c0 0.051 0.077 0.141 0.135 0.167 0.1 0.040 0.216 0.071 0.337 0.089l0.008 0.001c0.384 0.062 0.726 0.206 1.020 0.415l-0.007-0.005c0.323 0.222 0.532 0.59 0.532 1.006 0 0.275-0.091 0.529-0.246 0.733l0.002-0.003c-0.245 0.358-0.626 0.609-1.067 0.678l-0.009 0.001c-0.255 0.055-0.549 0.086-0.849 0.086-0.475 0-0.932-0.078-1.359-0.223l0.030 0.009-0.070-0.019c-0.084-0.057-0.138-0.152-0.138-0.26 0-0.017 0.001-0.033 0.004-0.049l-0 0.002c0-0.269 0-0.538 0-0.801-0.002-0.014-0.003-0.031-0.003-0.048s0.001-0.034 0.003-0.050l-0 0.002h0.243c0.334 0.123 0.72 0.194 1.122 0.194 0.033 0 0.067-0 0.1-0.001l-0.005 0c0.12-0.005 0.231-0.036 0.331-0.085l-0.005 0.002c0.073-0.029 0.123-0.098 0.123-0.179s-0.051-0.151-0.122-0.179l-0.001-0c-0.118-0.068-0.254-0.125-0.398-0.164l-0.012-0.003c-0.231-0.070-0.474-0.109-0.692-0.199-0.446-0.177-0.755-0.605-0.755-1.104 0-0.293 0.106-0.561 0.282-0.768l-0.001 0.002c0.081-0.092 0.165-0.175 0.253-0.254l0.003-0.003 0.391-0.077s0-0.032 0.045-0.045 0.115-0.115 0.179-0.128c0.162-0.044 0.351-0.074 0.545-0.083l0.006-0c0.206 0.007 0.402 0.030 0.593 0.068l-0.023-0.004 0.641 0.115s0.115-0.026 0.135-0.045zM31.673 24.21c0.237-0.23 0.541-0.391 0.88-0.453l0.010-0.002c0.074-0.022 0.159-0.034 0.247-0.034 0.169 0 0.327 0.046 0.462 0.126l-0.004-0.002c0.065 0.048 0.11 0.121 0.122 0.203l0 0.002c0 0.404 0 0.801 0 1.204 0.001 0.012 0.002 0.027 0.002 0.042s-0.001 0.029-0.002 0.044l0-0.002-0.199-0.102c-0.149-0.087-0.328-0.138-0.519-0.138-0.366 0-0.688 0.189-0.875 0.474l-0.002 0.004c-0.062 0.094-0.1 0.209-0.102 0.332v0.001c0 0.737 0 1.467 0 2.204 0 0.199 0 0.199-0.205 0.199h-1.204c-0.128 0-0.167-0.045-0.167-0.173q0-2.095 0-4.183c0-0.147 0.058-0.173 0.179-0.173 0.397 0 0.794 0 1.192 0 0.141 0 0.205 0.045 0.186 0.186s0 0.141 0 0.243zM18.495 23.101c-0.12 0.371-0.463 0.635-0.867 0.635-0.268 0-0.509-0.116-0.676-0.301l-0.001-0.001c-0.144-0.164-0.232-0.38-0.232-0.616 0-0.215 0.073-0.413 0.195-0.571l-0.002 0.002c0.169-0.196 0.418-0.32 0.696-0.32 0.163 0 0.316 0.043 0.449 0.117l-0.005-0.002c0.045 0.082 0.101 0.152 0.166 0.211l0.001 0.001c0.152 0.103 0.25 0.274 0.25 0.469 0 0.009-0 0.017-0.001 0.026l0-0.001c0.006 0.141 0.013 0.243 0.026 0.352zM18.456 23.902c0.001 0.008 0.001 0.017 0.001 0.026s-0 0.018-0.001 0.027l0-0.001q0 2.146 0 4.292h-0.102c0.015-0.074 0.026-0.161 0.032-0.251l0-0.005q0-1.755 0-3.511v-0.512h-1.576v-0.064zM14.638 28.316v-3.504h0.032s0.038 0.051 0.032 0.070 0 0.147 0 0.218q0 1.493 0 2.979c0 0.192 0 0.199 0.218 0.199 0.404 0 0.801 0 1.204 0 0.122 0 0.167-0.038 0.16-0.154q0-0.775 0-1.55c0-0.442 0-0.884 0-1.326 0.013-0.056 0.035-0.105 0.065-0.149l-0.001 0.002v1.454c-0.002 0.025-0.003 0.054-0.003 0.083s0.001 0.058 0.003 0.087l-0-0.004c0 0.416 0 0.833 0 1.281s0 0.365-0.352 0.372-0.922-0.058-1.358-0.058zM48.329 23.973s-0.045 0.045-0.064 0.038l-0.641-0.115c-0.168-0.034-0.364-0.058-0.565-0.064l-0.006-0c-0.2 0.009-0.389 0.039-0.57 0.088l0.019-0.004c-0.064 0-0.122 0.083-0.179 0.128s0 0.045-0.045 0.045l-0.391 0.077c0.211-0.19 0.478-0.32 0.773-0.364l0.008-0.001c0.146-0.022 0.315-0.035 0.486-0.035 0.421 0 0.824 0.076 1.196 0.215l-0.024-0.008zM16.842 23.908v0.064c0 1.332 0 2.665 0 3.997 0.012 0.102 0.034 0.196 0.067 0.284l-0.003-0.008-0.102-0.032c0-0.916 0-1.832 0-2.748 0-0.519 0-1.044 0-1.563zM52.153 25.702s0.051 0.045 0.051 0.064c0 0.75 0 1.499 0 2.249 0 0.243 0 0.263 0.263 0.269h0.833c0.030-0.002 0.064-0.003 0.099-0.003s0.070 0.001 0.104 0.004l-0.005-0c-0.397 0-0.794 0-1.185 0-0.135 0-0.16-0.058-0.16-0.173 0-0.782 0-1.595 0-2.409zM11.98 28.316q0-1.73 0-3.459c0.005-0.059 0.017-0.114 0.034-0.165l-0.001 0.005q0 1.71 0 3.427c-0.006 0.071-0.017 0.137-0.034 0.2l0.002-0.008zM44.953 28.239c0.029-0.080 0.051-0.173 0.063-0.269l0.001-0.006c0-0.897 0-1.8 0-2.697-0.002-0.033-0.003-0.071-0.003-0.109s0.001-0.076 0.004-0.114l-0 0.005q0 0.852 0 1.704 0 0.641 0 1.345c0.038 0.064 0.064 0.16-0.064 0.141zM26.951 26.279c0.035-0.003 0.077-0.004 0.119-0.004s0.083 0.001 0.124 0.004l-0.006-0h2.422c0.115 0 0.179-0.038 0.173-0.173-0.003-0.030-0.005-0.064-0.005-0.099s0.002-0.070 0.005-0.104l-0 0.004v0.41zM50.68 28.316c0.082-0.045 0.137-0.132 0.137-0.231 0-0.013-0.001-0.027-0.003-0.040l0 0.001c0-0.73 0-1.467 0-2.197 0-0.051 0-0.102 0-0.154v0 0 2.607zM20.603 27.028c-0.045 0.038-0.090 0.102-0.135 0.102-0.105 0.012-0.228 0.019-0.352 0.019-0.357 0-0.701-0.056-1.024-0.16l0.024 0.007h0.032c0.32 0.045 0.641 0.109 0.967 0.135 0.179-0.016 0.345-0.052 0.501-0.107l-0.014 0.004zM50.846 24.171c-0.002-0.028-0.004-0.060-0.004-0.093s0.001-0.065 0.004-0.097l-0 0.004q0-0.961 0-1.922c-0.002-0.013-0.003-0.029-0.003-0.045s0.001-0.031 0.004-0.047l-0 0.002zM18.495 23.101c0-0.109 0-0.224 0-0.333 0-0.007 0.001-0.016 0.001-0.025 0-0.195-0.099-0.366-0.248-0.467l-0.002-0.001c-0.066-0.060-0.122-0.13-0.164-0.207l-0.002-0.004c0.279 0.14 0.467 0.424 0.467 0.752 0 0.103-0.018 0.201-0.052 0.292l0.002-0.006zM24.44 23.864c-0.018-0.050-0.032-0.109-0.038-0.169l-0-0.003c0-0.48 0-0.961 0-1.441-0.013-0.089-0.035-0.168-0.067-0.244l0.002 0.007c0.115-0.064 0.109 0 0.109 0.090q0 0.519 0 1.044c-0.006 0.237-0.006 0.474-0.006 0.718zM40.251 23.665c0.034-0.049 0.061-0.107 0.076-0.169l0.001-0.004c0-0.34 0-0.673 0-1.012-0.020-0.085-0.053-0.16-0.098-0.227l0.002 0.003s0-0.058 0-0.083c0.147 0.038 0.179 0.135 0.173 0.282 0 0.423 0 0.846 0 1.281zM45.638 26.907h-0.243c-0.002 0.014-0.003 0.031-0.003 0.048s0.001 0.034 0.003 0.050l-0-0.002c0 0.269 0 0.538 0 0.801-0.002 0.014-0.004 0.031-0.004 0.047 0 0.108 0.054 0.203 0.137 0.259l0.001 0.001c-0.128 0-0.186-0.077-0.179-0.218 0-0.352 0-0.711 0-1.089zM22.845 25.209c0.015 0.052 0.026 0.113 0.032 0.176l0 0.004q0 0.718 0 1.435c-0.006 0.066-0.017 0.127-0.034 0.186l0.002-0.007zM16.778 28.213l0.102 0.032h1.582c-0.041 0.015-0.089 0.026-0.138 0.032l-0.003 0h-1.397c-0.051 0-0.096-0.038-0.147-0.064zM16.842 23.908h-0.058c0.017-0.002 0.037-0.003 0.058-0.003s0.040 0.001 0.060 0.004l-0.002-0h1.441c0.017-0.002 0.037-0.003 0.058-0.003s0.040 0.001 0.060 0.003l-0.002-0zM40.359 27.932c-0.002-0.021-0.003-0.046-0.003-0.070s0.001-0.049 0.004-0.074l-0 0.003c0-0.34 0-0.673 0-1.012-0.020-0.083-0.053-0.156-0.097-0.22l0.001 0.002 0.128-0.083zM22.351 27.374c0-0.109 0-0.224 0-0.333s0-0.275 0-0.41c-0.002-0.022-0.003-0.048-0.003-0.074s0.001-0.052 0.004-0.077l-0 0.003c0.045 0.133 0.071 0.286 0.071 0.445s-0.026 0.312-0.074 0.455l0.003-0.010zM23.063 22.685s0 0.070 0 0.070c-0.122 0.032-0.135 0.122-0.128 0.224 0 0.218 0 0.436 0 0.641-0.006 0.074-0.017 0.142-0.034 0.207l0.002-0.009c0-0.314 0-0.641 0-0.942-0.070-0.135 0.038-0.154 0.16-0.192zM16.297 27.951c0-0.416 0-0.839 0-1.281-0.002-0.025-0.003-0.054-0.003-0.083s0.001-0.058 0.003-0.087l-0 0.004c0 0.416 0 0.833 0 1.281 0.002 0.025 0.003 0.054 0.003 0.083s-0.001 0.058-0.003 0.087l0-0.004zM29.738 27.932c0-0.141 0-0.282 0-0.423s0-0.416 0-0.641c0-0.083 0-0.147-0.115-0.16l0.141-0.070zM43.223 23.8c-0.16 0-0.314 0-0.474 0s-0.346 0-0.525 0zM27.464 28.412v-0.070l0.756 0.064zM35.055 24.696v0zM18.36 28.245h-1.48c-0.030-0.080-0.052-0.173-0.064-0.27l-0.001-0.006c0-1.332 0-2.665 0-3.997h1.582v0.512q0 1.755 0 3.511c-0.008 0.094-0.022 0.18-0.041 0.263l0.002-0.013z"></path>
</svg>
