<svg version="1.1" xmlns="http://www.w3.org/2000/svg" width="64" height="32" viewBox="0 0 64 32">
<path d="M1.602 19.123v-1.063h0.839v-5.125h-0.839v-1.063h3.35c1.538 0 2.473 0.711 2.473 1.922 0 0.012 0.001 0.027 0.001 0.042 0 0.695-0.445 1.287-1.066 1.505l-0.011 0.003c0.816 0.154 1.432 0.842 1.473 1.681l0 0.004c0 1.326-1.025 2.063-2.697 2.063zM3.587 12.935v1.973h1.281c0.897 0 1.397-0.346 1.397-0.987s-0.5-0.987-1.441-0.987zM3.587 18.060h1.429c1.102 0 1.653-0.365 1.653-1.063s-0.589-1.063-1.736-1.063h-1.345zM13.902 15.343c-0.091-0.388-0.434-0.673-0.843-0.673-0.003 0-0.006 0-0.009 0h0c-0.001 0-0.003 0-0.005 0-1.037 0-1.877 0.84-1.877 1.877 0 0.047 0.002 0.094 0.005 0.141l-0-0.006v1.377h1.851v1.063h-4.126v-1.063h1.172v-3.203h-0.922v-1.063h2.012v0.897c0.373-0.648 1.061-1.077 1.85-1.077 0.025 0 0.050 0 0.076 0.001l-0.004-0c0.036-0.003 0.079-0.004 0.122-0.004 0.854 0 1.567 0.608 1.728 1.415l0.002 0.011zM19.526 16.022v-0.301c0-0.75-0.602-1.063-1.281-1.063-0.608 0.007-1.158 0.25-1.564 0.641l0.001-0.001-0.666-0.788c0.575-0.552 1.356-0.891 2.217-0.891 0.025 0 0.049 0 0.074 0.001l-0.004-0c1.339 0 2.377 0.711 2.377 2.063v2.377h0.775v1.063h-1.922v-0.564c-0.409 0.457-1 0.743-1.659 0.743-0.059 0-0.117-0.002-0.175-0.007l0.008 0c-1.102 0-2.050-0.564-2.050-1.672 0-1.281 1.281-1.813 2.46-1.813 0.504 0.006 0.989 0.083 1.446 0.221l-0.037-0.010zM19.526 16.97c-0.407-0.14-0.876-0.222-1.364-0.224h-0.001c-0.698 0-1.377 0.224-1.377 0.865 0 0.474 0.423 0.698 1.012 0.698 0.814 0 1.723-0.436 1.723-1.185zM28.098 18.060v1.063h-5.375v-1.063h2.223v-3.203h-1.698v-1.057h2.8v4.26zM26.048 12.736h-1.236v-1.627h1.236zM29.424 18.060h0.814v-3.203h-0.769v-1.063h1.858v0.685c0.384-0.529 1-0.869 1.695-0.869 0.046 0 0.091 0.001 0.137 0.004l-0.006-0c0.035-0.002 0.075-0.004 0.116-0.004 1.061 0 1.922 0.86 1.922 1.922 0 0.015-0 0.029-0.001 0.044l0-0.002v2.473h0.814v1.063h-2.767v-1.051h0.852v-2.178c0-0.922-0.564-1.185-1.076-1.185-0.012-0-0.025-0-0.039-0-0.887 0-1.608 0.706-1.633 1.587l-0 0.002v1.775h0.852v1.063h-2.767zM37.515 14.856h-1.39v-1.063h1.39v-1.922h1.102v1.922h2.563v1.063h-2.563v2.268c-0.001 0.018-0.002 0.038-0.002 0.059 0 0.612 0.496 1.108 1.108 1.108 0.046 0 0.091-0.003 0.135-0.008l-0.005 0.001c0.612-0.034 1.154-0.311 1.536-0.735l0.002-0.002 0.737 0.762c-0.561 0.622-1.369 1.012-2.269 1.012-0.002 0-0.004 0-0.005 0h0c-1.339 0-2.338-0.737-2.338-2.165zM48.124 15.343c-0.091-0.388-0.434-0.673-0.843-0.673-0.003 0-0.006 0-0.009 0h0c-0.001 0-0.003 0-0.005 0-1.037 0-1.877 0.84-1.877 1.877 0 0.047 0.002 0.094 0.005 0.141l-0-0.006v1.377h1.851v1.063h-4.119v-1.063h1.172v-3.203h-0.922v-1.063h2.012v0.897c0.373-0.648 1.061-1.077 1.85-1.077 0.025 0 0.050 0 0.076 0.001l-0.004-0c0.036-0.003 0.079-0.004 0.122-0.004 0.854 0 1.567 0.608 1.728 1.415l0.002 0.011zM55.523 18.309c-0.656 0.612-1.539 0.988-2.511 0.988-0.036 0-0.072-0.001-0.108-0.002l0.005 0c-0.061 0.005-0.133 0.007-0.205 0.007-1.56 0-2.825-1.261-2.832-2.819v-0.001c-0.001-0.020-0.001-0.043-0.001-0.067 0-1.532 1.242-2.774 2.774-2.774 0.045 0 0.090 0.001 0.135 0.003l-0.006-0c0.004-0 0.008-0 0.013-0 1.571 0 2.844 1.273 2.844 2.844 0 0.068-0.002 0.135-0.007 0.201l0.001-0.009v0.186h-4.587c0.181 0.821 0.903 1.426 1.766 1.426 0.044 0 0.087-0.002 0.129-0.005l-0.006 0c0.019 0.001 0.042 0.001 0.065 0.001 0.701 0 1.337-0.282 1.799-0.738l-0 0zM51.083 15.907h3.274c-0.159-0.737-0.806-1.281-1.58-1.281-0.003 0-0.006 0-0.010 0h0.001c-0.016-0.001-0.035-0.001-0.054-0.001-0.786 0-1.446 0.541-1.629 1.271l-0.002 0.012zM62.358 18.309c-0.656 0.612-1.539 0.988-2.511 0.988-0.036 0-0.072-0.001-0.108-0.002l0.005 0c-0.059 0.004-0.129 0.007-0.199 0.007-1.56 0-2.825-1.261-2.832-2.819v-0.001c-0.001-0.020-0.001-0.043-0.001-0.067 0-1.532 1.242-2.774 2.774-2.774 0.045 0 0.090 0.001 0.135 0.003l-0.006-0c0.004-0 0.008-0 0.013-0 1.571 0 2.844 1.273 2.844 2.844 0 0.068-0.002 0.135-0.007 0.201l0.001-0.009v0.186h-4.593c0.181 0.821 0.903 1.426 1.766 1.426 0.044 0 0.087-0.002 0.129-0.005l-0.006 0c0.019 0.001 0.042 0.001 0.065 0.001 0.701 0 1.337-0.282 1.799-0.738l-0 0zM57.925 15.907h3.274c-0.159-0.737-0.806-1.281-1.58-1.281-0.003 0-0.006 0-0.010 0h0.001c-0.016-0.001-0.035-0.001-0.054-0.001-0.786 0-1.446 0.541-1.629 1.271l-0.002 0.012z"></path>
</svg>
