<svg version="1.1" xmlns="http://www.w3.org/2000/svg" width="64" height="32" viewBox="0 0 64 32">
<path d="M10.82 2.166l-1.211 2.268q-2.236 4.235-4.484 8.463c-0.050 0.134-0.176 0.227-0.325 0.227-0.016 0-0.033-0.001-0.048-0.003l0.002 0c-0.545 0-1.089 0-1.634 0-0.012 0.003-0.025 0.004-0.038 0.004-0.102 0-0.184-0.082-0.186-0.183v-0q-0.551-2.71-1.153-5.426c-0.365-1.614-0.718-3.242-1.102-4.869 0-0.173 0-0.256 0.179-0.256q0.955-0.147 1.922-0.314c0.135 0 0.179 0 0.205 0.147q0.743 3.972 1.538 7.944c0 0.058 0 0.109 0.045 0.167s0.083-0.109 0.109-0.167q1.941-3.933 3.889-7.822c0.040-0.111 0.144-0.189 0.266-0.189 0.015 0 0.029 0.001 0.043 0.003l-0.002-0c0.647 0.013 1.3 0.006 1.986 0.006zM43.351 10.833c0.151 0.403 0.533 0.686 0.981 0.686 0.007 0 0.013-0 0.020-0h-0.001c0.616-0.021 1.167-0.279 1.569-0.685l0-0c0.25-0.164 0.415-0.44 0.423-0.755l0-0.001c0.008-0.122 0.026-0.236 0.054-0.346l-0.003 0.013 0.372-2.377c0-0.096 0-0.167-0.090-0.224-0.359-0.182-0.783-0.288-1.232-0.288-0.114 0-0.227 0.007-0.338 0.020l0.013-0.001c-0.658 0.111-1.194 0.544-1.449 1.128l-0.005 0.012c-0.272 0.544-0.438 1.183-0.455 1.859l-0 0.005c-0.003 0.042-0.004 0.091-0.004 0.141 0 0.292 0.053 0.572 0.151 0.83l-0.005-0.016zM46.125 11.999c-0.416 0.455-0.936 0.809-1.524 1.023l-0.027 0.008c-0.282 0.119-0.609 0.188-0.953 0.188-0.615 0-1.177-0.221-1.613-0.589l0.004 0.003c-0.451-0.415-0.738-1.002-0.756-1.656l-0-0.003c-0.021-0.187-0.033-0.404-0.033-0.624 0-1.303 0.415-2.51 1.121-3.494l-0.012 0.018c0.664-0.939 1.746-1.544 2.969-1.544 0.2 0 0.397 0.016 0.589 0.048l-0.021-0.003c0.373 0.032 0.717 0.105 1.044 0.214l-0.032-0.009c0.135 0.045 0.154 0 0.167-0.122 0.167-1.115 0.34-2.236 0.513-3.35 0-0.103 0.038-0.16 0.16-0.179 0.57-0.083 1.147-0.179 1.717-0.269 0.128 0 0.096 0.051 0.083 0.122l-0.416 2.703-0.737 4.843q-0.275 1.8-0.551 3.6c0 0.096-0.051 0.135-0.147 0.135h-1.384c-0.122 0-0.135-0.058-0.135-0.154-0.026-0.269-0.026-0.564-0.026-0.91zM11.083 8.418h2.857c0.096 0 0.115-0.045 0.115-0.128 0.002-0.040 0.003-0.088 0.003-0.135 0-0.213-0.022-0.421-0.064-0.621l0.003 0.020c-0.056-0.452-0.38-0.814-0.806-0.927l-0.008-0.002c-0.104-0.028-0.224-0.044-0.347-0.044-0.308 0-0.593 0.101-0.823 0.271l0.004-0.003c-0.481 0.377-0.825 0.909-0.958 1.52l-0.003 0.017zM13.261 9.623c-0.75 0-1.499 0-2.249 0-0.147 0-0.199 0.045-0.199 0.186-0.009 0.070-0.014 0.151-0.014 0.233 0 0.461 0.16 0.885 0.427 1.219l-0.003-0.004c0.321 0.309 0.758 0.499 1.239 0.499 0.092 0 0.182-0.007 0.27-0.020l-0.010 0.001c0.893-0.069 1.705-0.363 2.395-0.825l-0.018 0.011c0.058-0.032 0.115-0.115 0.179-0.077s0 0.128 0 0.199c0 0.365 0 0.737 0 1.102 0.002 0.010 0.003 0.021 0.003 0.032 0 0.076-0.042 0.143-0.104 0.178l-0.001 0.001c-0.851 0.544-1.89 0.868-3.003 0.868-0.406 0-0.803-0.043-1.185-0.125l0.037 0.007c-1.21-0.218-2.117-1.261-2.12-2.517v-0c-0.016-0.154-0.025-0.333-0.025-0.514 0-1.209 0.404-2.323 1.085-3.215l-0.009 0.013c0.688-0.973 1.808-1.601 3.075-1.601 0.288 0 0.569 0.032 0.838 0.094l-0.025-0.005c1.011 0.191 1.787 1.004 1.921 2.019l0.001 0.012c0.053 0.291 0.083 0.627 0.083 0.969 0 0.38-0.037 0.752-0.108 1.111l0.006-0.036c0 0.135-0.096 0.16-0.218 0.16zM38.726 8.431c0.141 0 0.179-0.045 0.173-0.179-0.001-0.227-0.020-0.449-0.054-0.665l0.003 0.024c-0.038-0.486-0.378-0.882-0.831-1.004l-0.008-0.002c-0.101-0.026-0.216-0.041-0.335-0.041-0.299 0-0.576 0.095-0.803 0.255l0.004-0.003c-0.474 0.359-0.818 0.868-0.964 1.456l-0.004 0.018c-0.045 0.147 0.051 0.115 0.122 0.115h1.358c0.448 0.019 0.897 0.013 1.339 0.026zM38.085 9.623h-2.21c-0.147 0-0.199 0.045-0.192 0.192-0.001 0.035-0.002 0.076-0.002 0.117 0 0.185 0.012 0.367 0.036 0.545l-0.002-0.021c0.107 0.732 0.731 1.288 1.484 1.288 0.050 0 0.1-0.002 0.149-0.007l-0.006 0.001c0.879-0.004 1.7-0.254 2.397-0.684l-0.020 0.011c0.115-0.064 0.237-0.128 0.346-0.205s0.122 0 0.122 0.070c0 0.423 0 0.846 0 1.281 0 0.003 0 0.006 0 0.009 0 0.055-0.031 0.102-0.076 0.125l-0.001 0c-0.834 0.54-1.853 0.861-2.947 0.861-0.548 0-1.077-0.080-1.576-0.23l0.039 0.010c-0.964-0.262-1.677-1.087-1.767-2.092l-0.001-0.009c-0.049-0.269-0.077-0.578-0.077-0.894 0-1.304 0.478-2.496 1.268-3.411l-0.006 0.007c0.683-0.847 1.721-1.384 2.884-1.384 0.307 0 0.605 0.037 0.89 0.108l-0.025-0.005c0.977 0.19 1.727 0.97 1.869 1.948l0.002 0.013c0.058 0.293 0.091 0.631 0.091 0.976 0 0.422-0.050 0.832-0.143 1.225l0.007-0.036c0 0.128-0.096 0.128-0.192 0.128zM27.374 13.069c0.218 0 0.282-0.064 0.314-0.269 0.282-1.877 0.57-3.754 0.852-5.631 0-0.147 0.083-0.179 0.224-0.179 0.423 0 0.852 0 1.281 0 0.173 0 0.237-0.032 0.231-0.218 0-0.404 0-0.807 0-1.211 0-0.122-0.045-0.141-0.147-0.141h-1.153c-0.122 0-0.167 0-0.147-0.154 0.064-0.372 0.102-0.743 0.179-1.108 0.067-0.421 0.406-0.745 0.829-0.788l0.004-0c0.137-0.019 0.294-0.030 0.455-0.030s0.318 0.011 0.473 0.032l-0.018-0.002c0.128 0 0.16 0 0.154-0.147 0-0.397 0-0.794 0-1.185 0-0.179-0.064-0.231-0.224-0.243-0.168-0.015-0.363-0.023-0.561-0.023s-0.393 0.008-0.586 0.025l0.025-0.002c-1.199 0.031-2.183 0.908-2.381 2.054l-0.002 0.015c-0.096 0.448-0.154 0.903-0.218 1.358 0 0.135-0.070 0.186-0.218 0.179-0.263 0-0.525 0-0.788 0-0.096 0-0.141 0-0.16 0.122-0.064 0.442-0.128 0.878-0.199 1.32 0 0.122 0.045 0.122 0.128 0.122h0.807c0.115 0 0.147 0.038 0.128 0.147q-0.288 1.832-0.57 3.664c-0.109 0.692-0.205 1.384-0.32 2.069 0 0.173 0 0.205 0.179 0.199s0.493 0 0.743 0 0.461 0 0.685 0.026zM55.497 9.27c-0.003-0.457-0.375-0.827-0.833-0.827-0.052 0-0.103 0.005-0.153 0.014l0.005-0.001c-0.5 0.095-0.927 0.355-1.234 0.721l-0.003 0.003c-0.004 0.014-0.006 0.031-0.006 0.048s0.002 0.034 0.007 0.049l-0-0.001c-0.122 0.801-0.25 1.608-0.372 2.409 0 0.090 0 0.135 0.090 0.154 0.794 0.237 1.826 0.192 2.281-0.91 0.163-0.396 0.261-0.855 0.269-1.336l0-0.003c-0.032-0.083-0.038-0.205-0.051-0.32zM53.46 7.906c0.31-0.278 0.679-0.497 1.086-0.634l0.022-0.006c1.038-0.295 2.204 0.045 2.396 1.454 0.033 0.2 0.052 0.43 0.052 0.664 0 0.954-0.31 1.836-0.835 2.551l0.008-0.012c-0.511 0.687-1.308 1.136-2.211 1.172l-0.006 0c-0.149 0.012-0.323 0.019-0.499 0.019-0.712 0-1.398-0.112-2.040-0.32l0.047 0.013c-0.173-0.051-0.218-0.122-0.186-0.295 0.179-1.127 0.352-2.261 0.525-3.389q0.333-2.159 0.641-4.311c0-0.128 0.045-0.199 0.199-0.211 0.44-0.035 0.834-0.090 1.222-0.165l-0.069 0.011c0.211-0.045 0.199 0.045 0.179 0.192-0.090 0.577-0.179 1.16-0.269 1.736zM19.116 5.631c0-0.173-0.058-0.211-0.211-0.205-0.372 0-0.75 0-1.128 0s-0.288 0-0.327 0.288q-0.346 2.281-0.698 4.568c-0.135 0.858-0.263 1.717-0.404 2.563 0 0.173 0 0.218 0.192 0.211 0.506 0 1.019 0 1.531 0 0.122 0 0.173-0.032 0.192-0.16 0.179-1.23 0.365-2.46 0.564-3.684 0.032-0.211 0-0.442 0.16-0.641 0.668-0.773 1.609-1.295 2.672-1.414l0.019-0.002c0.135 0 0.16-0.058 0.16-0.179 0-0.525 0-1.044 0-1.57 0-0.135-0.032-0.167-0.167-0.154-0.562 0.072-1.065 0.28-1.489 0.589l0.009-0.006c-0.407 0.311-0.758 0.668-1.053 1.068l-0.010 0.014c-0.013-0.455-0.026-0.871-0.013-1.288zM60.116 11.16q-0.327-1.89-0.641-3.78c0-0.135-0.051-0.199-0.211-0.173-0.397 0.064-0.801 0.103-1.198 0.147-0.135 0-0.16 0.058-0.128 0.199 0.384 1.762 0.756 3.53 1.134 5.298 0.015 0.043 0.023 0.093 0.023 0.144s-0.008 0.101-0.024 0.147l0.001-0.003c-0.147 0.534-0.629 0.92-1.2 0.92-0.056 0-0.111-0.004-0.164-0.011l0.006 0.001c-0.124-0.008-0.238-0.024-0.349-0.048l0.016 0.003c-0.109 0-0.154 0-0.147 0.115 0 0.301 0 0.609 0 0.91 0 0.115 0.038 0.16 0.154 0.173 0.131 0.025 0.282 0.039 0.437 0.039 0.561 0 1.078-0.188 1.491-0.505l-0.006 0.004c0.377-0.331 0.683-0.731 0.9-1.182l0.010-0.022c0.423-0.807 0.833-1.621 1.281-2.428l1.89-3.671c0.070-0.135 0.045-0.167-0.102-0.16-0.346 0-0.692 0-1.038 0-0.014-0.002-0.029-0.004-0.045-0.004-0.128 0-0.237 0.084-0.275 0.2l-0.001 0.002c-0.365 0.794-0.743 1.582-1.121 2.37l-0.641 1.397c-0.026-0.025-0.049-0.052-0.069-0.082l-0.001-0.002zM23.562 13.082c0.122 0 0.173 0 0.192-0.154q0.532-3.664 1.102-7.335c0-0.179 0-0.192-0.173-0.192-0.48 0-0.961 0-1.441 0-0.211 0-0.282 0.058-0.314 0.269-0.237 1.621-0.493 3.242-0.743 4.862-0.115 0.769-0.231 1.537-0.359 2.306 0 0.167 0 0.218 0.186 0.211s0.493 0 0.743 0zM31.89 13.082c0.115 0 0.16-0.032 0.173-0.154 0.058-0.442 0.135-0.878 0.205-1.32q0.461-2.992 0.922-5.99c0-0.147 0-0.179-0.154-0.179-0.474 0-0.948 0-1.422 0-0.32 0-0.314 0-0.365 0.32q-0.352 2.306-0.711 4.606c-0.128 0.839-0.256 1.678-0.391 2.511 0 0.141 0 0.205 0.167 0.199 0.263 0 0.525 0 0.788 0zM24.735 1.999c-0.079-0.017-0.17-0.027-0.263-0.027-0.636 0-1.167 0.45-1.292 1.049l-0.002 0.009c-0.020 0.070-0.032 0.151-0.032 0.234 0 0.369 0.228 0.685 0.551 0.815l0.006 0.002c0.135 0.053 0.292 0.084 0.455 0.084 0.694 0 1.259-0.552 1.281-1.241l0-0.002c0.001-0.017 0.002-0.037 0.002-0.056 0-0.425-0.3-0.781-0.701-0.865l-0.006-0.001zM33.646 3.447c0.094-0.146 0.149-0.324 0.149-0.514 0-0.45-0.309-0.827-0.726-0.932l-0.007-0.001c-0.080-0.017-0.172-0.027-0.266-0.027-0.591 0-1.092 0.387-1.263 0.921l-0.003 0.009c-0.211 0.692 0.205 1.281 1.038 1.281 0.477-0.033 0.879-0.322 1.073-0.729l0.003-0.008zM30.917 15.952h3.382l-2.114 12.415h-3.383l2.114-12.415zM44.472 16.355c-0.878-0.325-1.892-0.513-2.95-0.513-0.031 0-0.061 0-0.091 0l0.005-0c-3.344 0-5.695 1.685-5.721 4.094 0 1.781 1.678 2.78 2.966 3.37s1.762 0.999 1.755 1.538c0 0.833-1.051 1.211-2.024 1.211-0.074 0.003-0.161 0.004-0.248 0.004-1.072 0-2.088-0.238-2.999-0.663l0.044 0.018-0.436-0.199-0.455 2.8c1.086 0.406 2.341 0.641 3.651 0.641 0.041 0 0.082-0 0.123-0.001l-0.006 0c3.555 0 5.868-1.666 5.894-4.241 0-1.409-0.89-2.486-2.838-3.37-1.185-0.577-1.922-0.955-1.922-1.538s0.641-1.070 1.922-1.070c0.051-0.002 0.111-0.002 0.171-0.002 0.863 0 1.685 0.175 2.432 0.492l-0.041-0.015 0.301 0.141 0.461-2.691zM53.172 16.061h-2.639c-0.065-0.009-0.14-0.014-0.216-0.014-0.7 0-1.3 0.427-1.555 1.034l-0.004 0.011-5.023 11.378h3.555s0.583-1.531 0.711-1.864h4.331c0.102 0.436 0.41 1.858 0.41 1.858h3.139l-2.71-12.403zM48.976 24.062l1.345-3.472c0 0.032 0.275-0.718 0.448-1.185l0.231 1.070 0.782 3.581h-2.806zM25.977 16.061l-3.312 8.463-0.352-1.723c-0.882-2.282-2.533-4.104-4.629-5.183l-0.054-0.025 3.030 10.859h3.581l5.324-12.39h-3.587zM19.597 16.054h-5.458l-0.045 0.256c4.247 1.025 7.047 3.511 8.219 6.496l-1.172-5.682c-0.164-0.614-0.715-1.060-1.37-1.060-0.057 0-0.113 0.003-0.167 0.010l0.007-0.001zM17.765 18.066c-0.037-0.249-0.192-0.455-0.406-0.562l-0.004-0.002 0.999 0.448z"></path>
</svg>
