<!-- Generated by IcoMoon.io -->
<svg version="1.1" xmlns="http://www.w3.org/2000/svg" width="64" height="32" viewBox="0 0 64 32">
<path d="M49.668 15.138q0 8.386-4.523 12.114-3.998 3.325-10.385 3.325h-20.365v-30.75h20.365q6.406 0 10.385 3.594c1.474 1.266 2.614 2.878 3.299 4.713l0.026 0.079c0.761 1.932 1.203 4.17 1.203 6.511 0 0.146-0.002 0.291-0.005 0.436l0-0.022zM47.669 15.138q0-6.791-3.844-10.25-3.466-3.062-9.462-3.062h-17.976v26.753h17.976q13.306 0 13.312-13.44zM21.179 9.277c-1.769 0-3.203 1.434-3.203 3.203v0c0.008 1.763 1.439 3.19 3.203 3.19 0.88 0 1.676-0.355 2.255-0.928l-0 0c0.578-0.579 0.935-1.379 0.935-2.261s-0.357-1.682-0.935-2.261l0 0c-0.562-0.581-1.349-0.942-2.22-0.942-0.012 0-0.024 0-0.037 0l0.002-0zM18.251 26.573h5.727v-9.449h-5.727zM41.814 15.535h3.991q0 11.051-12.377 11.051h-6.791v-11.051h0.641c0.057 0.004 0.124 0.007 0.191 0.007 0.312 0 0.612-0.052 0.892-0.147l-0.020 0.006c0.305-0.1 0.571-0.235 0.811-0.404l-0.010 0.006c0.273-0.298 0.491-0.652 0.634-1.042l0.007-0.022c0.090-0.289 0.143-0.621 0.143-0.965 0-0.082-0.003-0.163-0.009-0.243l0.001 0.011c-0.006-0.23-0.029-0.451-0.068-0.667l0.004 0.026c-0.031-0.154-0.054-0.336-0.064-0.522l-0-0.009c-0.105-0.203-0.216-0.377-0.34-0.541l0.007 0.009c-0.099-0.107-0.169-0.242-0.198-0.392l-0.001-0.005c-0.212-0.284-0.52-0.487-0.874-0.562l-0.010-0.002c-0.262-0.089-0.564-0.141-0.877-0.141-0.065 0-0.13 0.002-0.195 0.007l0.009-0h-0.641v-5.593h6.791q11.711 0 12.377 9.981h-2.556v-4.388h-1.467zM28.501 12.742v0.929l-0.269 0.397c-0.179 0.179-0.314 0.269-0.397 0.269h-1.198v-3.203h1.063c0.214 0.016 0.401 0.117 0.531 0.268l0.001 0.001c0 0.090 0.090 0.224 0.269 0.397zM35.292 14.338h-3.062v-1.057h2.665v-1.204h-2.665v-0.935h2.928v-1.198h-4.26v5.593h4.395zM41.282 15.535l-2.127-5.593h-1.467l-2.127 5.593h1.467l0.397-1.198h1.999c0.116 0.467 0.252 0.866 0.417 1.249l-0.020-0.052zM37.957 13.14l0.269-0.801c0.072-0.189 0.12-0.407 0.134-0.634l0-0.006c0.253 0.422 0.439 0.916 0.528 1.442l0.003 0.025z"></path>
</svg>
