<svg version="1.1" xmlns="http://www.w3.org/2000/svg" width="64" height="32" viewBox="0 0 64 32">
<path d="M35.292 11.275h-2.402c-0.236 0-0.444 0.118-0.569 0.299l-0.002 0.002-3.312 4.907-1.397-4.715c-0.086-0.281-0.338-0.483-0.639-0.493l-0.001-0h-2.383c-0.229 0.002-0.413 0.188-0.413 0.416 0 0.048 0.008 0.094 0.023 0.137l-0.001-0.003 2.639 7.752-2.492 3.504c-0.041 0.063-0.066 0.141-0.066 0.224 0 0.226 0.18 0.41 0.405 0.416h2.397c0.001 0 0.002 0 0.004 0 0.233 0 0.44-0.116 0.565-0.293l0.001-0.002 7.976-11.531c0.041-0.063 0.066-0.141 0.066-0.224 0-0.226-0.18-0.41-0.405-0.416h-0.001zM19.27 15.901c-0.191 1.297-1.296 2.281-2.632 2.281-0.021 0-0.041-0-0.062-0.001l0.003 0c-0.055 0.006-0.119 0.009-0.184 0.009-1.023 0-1.851-0.829-1.851-1.851 0-0.17 0.023-0.334 0.066-0.49l-0.003 0.013c0.192-1.304 1.302-2.294 2.645-2.294 0.009 0 0.019 0 0.028 0h-0.001c0.034-0.002 0.074-0.003 0.114-0.003 0.582 0 1.107 0.247 1.474 0.643l0.001 0.001c0.277 0.347 0.444 0.793 0.444 1.277 0 0.144-0.015 0.285-0.043 0.421l0.002-0.013zM22.595 11.25h-2.402c-0.207 0.001-0.378 0.152-0.41 0.35l-0 0.002-0.102 0.641-0.167-0.243c-0.519-0.75-1.672-0.999-2.819-0.999-2.751 0.064-4.998 2.144-5.321 4.817l-0.003 0.026c-0.054 0.262-0.085 0.563-0.085 0.871 0 1.060 0.368 2.034 0.983 2.802l-0.007-0.009c0.685 0.75 1.668 1.219 2.76 1.219 0.086 0 0.171-0.003 0.256-0.009l-0.011 0.001c0.020 0 0.044 0 0.068 0 1.268 0 2.416-0.517 3.244-1.352l0-0-0.109 0.641c-0.003 0.019-0.005 0.041-0.005 0.064 0 0.229 0.186 0.416 0.415 0.416h2.146c0.001 0 0.001 0 0.002 0 0.344 0 0.629-0.251 0.683-0.579l0.001-0.004 1.281-8.168c0.003-0.019 0.005-0.041 0.005-0.064 0-0.229-0.186-0.416-0.415-0.416h-0zM8.264 11.359c-0.275 1.787-1.64 1.787-2.96 1.787h-0.756l0.525-3.338c0.023-0.21 0.2-0.372 0.414-0.372 0.001 0 0.002 0 0.003 0h0.346c0.897 0 1.749 0 2.185 0.512 0.191 0.267 0.305 0.601 0.305 0.961 0 0.16-0.023 0.314-0.064 0.46l0.003-0.012zM7.688 6.669h-4.984c-0.001 0-0.001 0-0.002 0-0.344 0-0.629 0.251-0.683 0.579l-0.001 0.004-2.018 12.774c-0.003 0.019-0.005 0.041-0.005 0.064 0 0.229 0.186 0.416 0.415 0.416h2.383c0.001 0 0.001 0 0.002 0 0.344 0 0.629-0.251 0.683-0.579l0.001-0.004 0.545-3.44c0.054-0.332 0.34-0.583 0.683-0.583 0.001 0 0.002 0 0.002 0h1.576c3.28 0 5.176-1.589 5.67-4.734 0.071-0.276 0.111-0.593 0.111-0.919 0-0.86-0.282-1.654-0.759-2.294l0.007 0.010c-0.711-0.833-1.967-1.281-3.632-1.281zM60.936 7.015l-2.044 13.011c-0.003 0.019-0.005 0.041-0.005 0.064 0 0.229 0.186 0.416 0.415 0.416h2.056c0.001 0 0.001 0 0.002 0 0.344 0 0.629-0.251 0.683-0.579l0.001-0.004 2.018-12.774c0.003-0.019 0.005-0.041 0.005-0.064 0-0.229-0.186-0.416-0.415-0.416h-2.306c-0.207 0.001-0.378 0.152-0.41 0.35l-0 0.002zM54.799 15.926c-0.191 1.297-1.297 2.281-2.632 2.281-0.021 0-0.041-0-0.062-0.001l0.003 0c-0.055 0.006-0.119 0.009-0.184 0.009-1.023 0-1.851-0.829-1.851-1.851 0-0.17 0.023-0.334 0.066-0.49l-0.003 0.013c0.192-1.304 1.302-2.294 2.645-2.294 0.009 0 0.019 0 0.028 0h-0.001c0.034-0.002 0.074-0.003 0.114-0.003 0.582 0 1.107 0.247 1.474 0.643l0.001 0.001c0.277 0.347 0.444 0.793 0.444 1.277 0 0.144-0.015 0.285-0.043 0.421l0.002-0.013zM58.124 11.275h-2.39c-0.207 0.001-0.378 0.152-0.41 0.35l-0 0.002-0.102 0.641-0.167-0.243c-0.519-0.75-1.666-0.999-2.819-0.999-2.746 0.059-4.992 2.127-5.327 4.791l-0.003 0.027c-0.054 0.262-0.086 0.563-0.086 0.871 0 1.060 0.368 2.034 0.983 2.802l-0.007-0.009c0.685 0.75 1.668 1.219 2.76 1.219 0.086 0 0.171-0.003 0.256-0.009l-0.011 0.001c0.015 0 0.032 0 0.049 0 1.275 0 2.427-0.522 3.256-1.364l0.001-0.001-0.109 0.641c-0.003 0.019-0.005 0.041-0.005 0.064 0 0.229 0.186 0.416 0.415 0.416h2.146c0.001 0 0.001 0 0.002 0 0.344 0 0.629-0.251 0.683-0.579l0.001-0.004 1.281-8.168c0.003-0.019 0.005-0.041 0.005-0.064 0-0.229-0.186-0.416-0.415-0.416h-0zM43.806 11.359c-0.275 1.787-1.64 1.787-2.96 1.787h-0.756l0.525-3.338c0.022-0.2 0.183-0.357 0.383-0.371l0.001-0h0.346c0.897 0 1.749 0 2.185 0.512 0.205 0.274 0.328 0.619 0.328 0.993 0 0.148-0.019 0.291-0.056 0.428l0.003-0.012zM43.229 6.695h-4.984c-0.001 0-0.001 0-0.002 0-0.344 0-0.629 0.251-0.683 0.579l-0.001 0.004-2.012 12.748c-0.003 0.019-0.005 0.041-0.005 0.064 0 0.229 0.186 0.416 0.415 0.416h2.563c0.242-0 0.442-0.176 0.48-0.407l0-0.003 0.564-3.613c0.054-0.332 0.34-0.583 0.683-0.583 0.001 0 0.002 0 0.002 0h1.576c3.28 0 5.176-1.589 5.67-4.734 0.071-0.276 0.111-0.593 0.111-0.919 0-0.86-0.282-1.654-0.759-2.294l0.007 0.010c-0.711-0.833-1.967-1.281-3.632-1.281z"></path>
</svg>
