<!-- Generated by IcoMoon.io -->
<svg version="1.1" xmlns="http://www.w3.org/2000/svg" width="64" height="32" viewBox="0 0 64 32">
<path d="M5.951 12.896c-0.088-0.421-0.409-0.748-0.819-0.844l-0.007-0.001c-0.141-0.033-0.303-0.051-0.469-0.051-0.011 0-0.021 0-0.032 0l0.002-0h-3.274c-0.003-0-0.007-0-0.011-0-0.347 0-0.667 0.118-0.921 0.316l0.003-0.002c-0.049 0.037-0.091 0.079-0.127 0.127l-0.001 0.002c-0.115 0.157-0.198 0.345-0.236 0.549l-0.001 0.008c-0.037 0.172-0.058 0.37-0.058 0.572 0 0.010 0 0.021 0 0.031v-0.002c0 0.641 0 1.339 0 2.005 0 0.25 0 0.506 0 0.756 0.008 0.2 0.047 0.388 0.113 0.563l-0.004-0.012c0.048 0.162 0.135 0.301 0.249 0.41l0 0c0.244 0.215 0.567 0.346 0.92 0.346 0.001 0 0.002 0 0.003 0h3.382c0.148-0.001 0.292-0.017 0.43-0.047l-0.014 0.003c0.394-0.071 0.709-0.35 0.831-0.716l0.002-0.008c0.069-0.2 0.11-0.431 0.11-0.672 0-0.018-0-0.037-0.001-0.055l0 0.003q0-1.345 0-2.691c0-0.007 0-0.016 0-0.025 0-0.201-0.026-0.395-0.074-0.581l0.004 0.016zM24.344 12.102c0.001-0.015 0.002-0.033 0.002-0.051s-0.001-0.036-0.002-0.054l0 0.002c-0.186 0-1.281 0-1.365 0v0.122q0 1.832 0 3.658c0.002 0.014 0.003 0.031 0.003 0.048s-0.001 0.034-0.003 0.050l0-0.002c-0.011 0.053-0.031 0.101-0.059 0.142l0.001-0.001c-0.090 0.117-0.23 0.192-0.388 0.192-0.006 0-0.011-0-0.017-0l0.001 0h-0.967c-0.004 0-0.009 0-0.014 0-0.18 0-0.328-0.137-0.344-0.313l-0-0.001c-0.002-0.027-0.002-0.058-0.002-0.090s0.001-0.063 0.003-0.094l-0 0.004q0-1.8 0-3.594c0-0.045 0-0.090 0-0.128-0.206-0.012-0.446-0.019-0.689-0.019s-0.483 0.007-0.722 0.021l0.033-0.002v0.090q0 2.063 0 4.132c-0.004 0.042-0.006 0.091-0.006 0.141s0.002 0.099 0.007 0.147l-0-0.006c0.058 0.345 0.24 0.64 0.497 0.843l0.003 0.002c0.188 0.157 0.432 0.253 0.698 0.256h1.923c0 0.154 0 0.288 0 0.423 0.003 0.011 0.005 0.023 0.005 0.035s-0.002 0.025-0.005 0.036l0-0.001c-0.062 0.102-0.161 0.177-0.279 0.204l-0.003 0.001c-0.033 0.003-0.071 0.004-0.109 0.004s-0.076-0.002-0.114-0.005l0.005 0h-2.633c0 0.141 0 1.32 0 1.397h3.203c0.039 0.003 0.085 0.005 0.131 0.005s0.092-0.002 0.137-0.006l-0.006 0c0.358-0.053 0.656-0.267 0.823-0.564l0.003-0.006c0.151-0.253 0.242-0.557 0.25-0.882l0-0.002q0-2.864 0-5.727c0-0.135 0-0.275 0-0.41zM12.813 12.749c-0.058-0.166-0.15-0.308-0.269-0.423l-0-0c-0.214-0.202-0.504-0.327-0.822-0.327-0.001 0-0.003 0-0.004 0h-2.050c-0 0-0.001 0-0.002 0-0.261 0-0.505 0.069-0.717 0.19l0.007-0.004c-0.196 0.101-0.348 0.263-0.433 0.462l-0.002 0.006c-0.096 0.223-0.152 0.483-0.154 0.755v0.001c0 0.109 0 0.224 0 0.333q0 2.934 0 5.875c0 0.045 0 0.090 0 0.135h1.377v-2.095h1.922c0.24-0.003 0.462-0.079 0.644-0.207l-0.004 0.002c0.133-0.091 0.247-0.197 0.344-0.317l0.002-0.003c0.158-0.186 0.256-0.427 0.263-0.69l0-0.001q0-1.557 0-3.113c0-0.003 0-0.007 0-0.010 0-0.203-0.038-0.398-0.106-0.577l0.004 0.011zM11.531 15.779c0 0.045 0 0.083 0 0.128-0.035 0.194-0.202 0.339-0.404 0.34h-0.916c-0.030 0.004-0.064 0.006-0.099 0.006s-0.069-0.002-0.103-0.007l0.004 0c-0.152-0.041-0.263-0.178-0.263-0.341 0-0.004 0-0.008 0-0.012l-0 0.001c0-0.192 0-0.378 0-0.57s0-0.307 0-0.461q0-0.487 0-0.98c-0.003-0.019-0.004-0.041-0.004-0.064s0.001-0.045 0.004-0.067l-0 0.003c0.031-0.173 0.18-0.303 0.36-0.303 0.013 0 0.026 0.001 0.039 0.002l-0.002-0c0.352 0 0.705 0 1.063 0 0.008-0.001 0.017-0.001 0.026-0.001 0.164 0 0.298 0.132 0.301 0.296v0c0 0.077 0 0.16 0 0.237q0.026 0.884-0.006 1.794zM35.029 17.124c0.153-0.224 0.244-0.501 0.244-0.799 0-0.016-0-0.033-0.001-0.049l0 0.002c0-0.826 0-1.653 0-2.479 0-0.211 0-0.429 0-0.641-0.005-0.156-0.038-0.303-0.093-0.438l0.003 0.009c-0.092-0.253-0.274-0.454-0.507-0.568l-0.006-0.003c-0.187-0.094-0.407-0.151-0.64-0.154h-3.281c0 0.122 0 1.281 0 1.397h2.748c0.031-0.003 0.066-0.005 0.102-0.005s0.072 0.002 0.107 0.006l-0.004-0c0.104 0.017 0.185 0.1 0.198 0.204l0 0.001c0.002 0.035 0.004 0.077 0.004 0.119s-0.001 0.083-0.004 0.124l0-0.006h-1.807c-0.004-0-0.008-0-0.013-0-0.203 0-0.399 0.028-0.585 0.081l0.015-0.004c-0.345 0.087-0.616 0.343-0.722 0.672l-0.002 0.007c-0.057 0.161-0.090 0.347-0.090 0.54 0 0.002 0 0.003 0 0.005v-0c0 0.378 0 0.75 0 1.128-0 0.008-0 0.018-0 0.029 0 0.149 0.016 0.294 0.047 0.433l-0.002-0.013c0.059 0.269 0.216 0.493 0.432 0.638l0.004 0.002c0.206 0.137 0.46 0.218 0.732 0.218 0.004 0 0.008-0 0.012-0h-0.001q1.089 0 2.178 0c0.010 0 0.022 0 0.033 0 0.367 0 0.692-0.178 0.893-0.452l0.002-0.003zM33.895 15.971c0 0.002 0 0.003 0 0.005 0 0.12-0.084 0.22-0.197 0.244l-0.002 0c-0.026 0.003-0.056 0.005-0.087 0.005s-0.061-0.002-0.090-0.005l0.004 0h-1.051c-0.002 0-0.005 0-0.007 0-0.116 0-0.221-0.044-0.301-0.116l0 0c-0.051-0.043-0.083-0.106-0.083-0.178 0-0.003 0-0.006 0-0.009v0c0-0.141 0-0.288 0-0.429-0.003-0.023-0.005-0.050-0.005-0.077s0.002-0.054 0.006-0.080l-0 0.003c0.020-0.065 0.074-0.114 0.14-0.128l0.001-0c0.030-0.003 0.064-0.005 0.099-0.005s0.070 0.002 0.104 0.005l-0.004-0h1.063c0.077 0.004 0.149 0.020 0.216 0.046l-0.005-0.002c0.101 0.033 0.173 0.127 0.173 0.238 0 0.004-0 0.008-0 0.013l0-0.001c0.026 0.16 0.032 0.34 0.026 0.468zM18.578 12.954c-0.051-0.302-0.223-0.556-0.464-0.715l-0.004-0.002c-0.201-0.14-0.448-0.227-0.715-0.237l-0.003-0h-3.299c0 0.16 0 1.313 0 1.397h2.774c0.028-0.004 0.060-0.006 0.093-0.006s0.065 0.002 0.097 0.006l-0.004-0c0.076 0.014 0.138 0.062 0.172 0.127l0.001 0.001c0.018 0.048 0.028 0.103 0.028 0.16s-0.010 0.113-0.029 0.163l0.001-0.003h-1.448c-0.205 0-0.404 0-0.609 0-0.197 0.013-0.378 0.068-0.538 0.157l0.007-0.003c-0.247 0.136-0.429 0.362-0.504 0.633l-0.002 0.007c-0.028 0.124-0.044 0.265-0.044 0.411 0 0.054 0.002 0.107 0.007 0.159l-0-0.007c0 0.365 0 0.737 0 1.102-0 0.006-0 0.013-0 0.020 0 0.171 0.023 0.336 0.067 0.493l-0.003-0.013c0.066 0.278 0.244 0.506 0.482 0.638l0.005 0.003c0.185 0.105 0.404 0.17 0.638 0.179l0.003 0h2.332c0.34-0.045 0.629-0.231 0.811-0.496l0.003-0.004c0.133-0.208 0.212-0.462 0.212-0.734 0-0.008-0-0.016-0-0.024v0.001c0-0.98 0-1.96 0-2.94-0.005-0.17-0.028-0.333-0.067-0.489l0.003 0.015zM17.297 15.945c0 0.002 0 0.005 0 0.007 0 0.145-0.113 0.265-0.255 0.275l-0.001 0h-1.172c-0.006 0-0.013 0-0.020 0-0.115 0-0.22-0.041-0.301-0.11l0.001 0.001c-0.061-0.046-0.1-0.117-0.102-0.198v-0c0-0.141 0-0.282 0-0.423-0.003-0.023-0.005-0.050-0.005-0.077s0.002-0.054 0.005-0.080l-0 0.003c0.021-0.082 0.094-0.141 0.18-0.141 0.002 0 0.004 0 0.006 0h-0c0.031-0.003 0.066-0.004 0.102-0.004s0.072 0.002 0.107 0.005l-0.005-0h1.179c0.152 0.017 0.269 0.144 0.269 0.299 0 0.003-0 0.006-0 0.008v-0c0.009 0.095 0.015 0.206 0.015 0.318 0 0.041-0.001 0.082-0.002 0.123l0-0.006zM41.48 17.65h2.665v-1.403h-2.787c-0.003 0-0.006 0-0.009 0-0.093 0-0.174-0.048-0.221-0.121l-0.001-0.001c-0.067-0.076-0.113-0.173-0.128-0.279l-0-0.003c0-0.115 0-0.122 0.083-0.147l1.384-0.493 1.095-0.468 0.589-0.237v-0.115c0-0.333 0-0.641 0-1.006 0-0.008 0-0.017 0-0.026 0-0.175-0.023-0.345-0.067-0.506l0.003 0.013c-0.057-0.237-0.186-0.437-0.363-0.581l-0.002-0.002c-0.201-0.165-0.46-0.268-0.742-0.275l-0.002-0h-2.088c-0.203 0-0.397 0.040-0.574 0.113l0.010-0.004c-0.264 0.102-0.469 0.303-0.574 0.557l-0.002 0.007c-0.073 0.176-0.116 0.38-0.116 0.595 0 0.016 0 0.032 0.001 0.048l-0-0.002c0 0.955 0 1.922 0 2.87 0.004 0.162 0.018 0.317 0.041 0.469l-0.003-0.020c0.049 0.339 0.242 0.625 0.514 0.798l0.005 0.003c0.189 0.128 0.422 0.205 0.673 0.205h0zM41 14.267c0-0.135 0-0.269 0-0.397-0-0.005-0-0.010-0-0.016 0-0.198 0.139-0.364 0.324-0.406l0.003-0.001c0.025-0.004 0.054-0.006 0.083-0.006s0.058 0.002 0.086 0.006l-0.003-0h0.903c0.009-0.001 0.020-0.001 0.031-0.001 0.088 0 0.17 0.024 0.24 0.066l-0.002-0.001c0.044 0.029 0.077 0.071 0.096 0.12l0.001 0.002c0 0.077 0 0.109-0.058 0.135l-0.884 0.333-0.685 0.256-0.122 0.038c-0.013-0.064-0.013-0.096-0.013-0.128zM28.335 17.65h0.243c0.216-0.008 0.412-0.089 0.565-0.219l-0.001 0.001c0.121-0.108 0.227-0.23 0.316-0.365l0.004-0.007c0.14-0.194 0.224-0.436 0.224-0.698 0-0.007-0-0.014-0-0.020v0.001c0-0.32 0-0.641 0-0.955 0-0.002 0-0.004 0-0.007 0-0.163-0.031-0.32-0.086-0.463l0.003 0.009c-0.177-0.466-0.616-0.793-1.133-0.801h-0.001c-0.404 0-0.807 0-1.211 0-0.092-0.002-0.18-0.015-0.263-0.040l0.007 0.002c-0.104-0.026-0.18-0.119-0.18-0.23 0-0.007 0-0.014 0.001-0.021l-0 0.001c0-0.032 0-0.070 0-0.102-0.001-0.009-0.002-0.019-0.002-0.030 0-0.116 0.083-0.212 0.193-0.233l0.001-0c0.080-0.023 0.173-0.037 0.268-0.038h2.397v-1.435h-2.934c-0.003-0-0.007-0-0.012-0-0.203 0-0.397 0.038-0.576 0.106l0.011-0.004c-0.224 0.080-0.406 0.231-0.523 0.425l-0.003 0.004c-0.109 0.195-0.173 0.427-0.173 0.675 0 0.006 0 0.012 0 0.018v-0.001c0 0.365 0 0.73 0 1.095 0.003 0.159 0.040 0.308 0.105 0.442l-0.003-0.006c0.112 0.217 0.273 0.394 0.469 0.522l0.005 0.003c0.221 0.153 0.494 0.244 0.788 0.244 0.009 0 0.018-0 0.027-0l-0.001 0h1.16c0.004-0 0.008-0 0.012-0 0.083 0 0.157 0.043 0.199 0.108l0.001 0.001c0.041 0.073 0.065 0.16 0.065 0.252 0 0.013-0 0.025-0.001 0.038l0-0.002c0 0.002 0 0.005 0 0.008 0 0.129-0.089 0.238-0.21 0.268l-0.002 0c-0.031 0.003-0.066 0.005-0.102 0.005s-0.072-0.002-0.107-0.006l0.004 0h-2.428v1.397h2.883zM38.783 11.999h-0.641c-0.052 0.005-0.112 0.008-0.173 0.008s-0.121-0.003-0.181-0.009l0.008 0.001c0-0.128 0-0.256 0-0.378 0.008-0.062 0.028-0.119 0.059-0.168l-0.001 0.002c0.070-0.113 0.193-0.186 0.333-0.186 0.007 0 0.014 0 0.020 0.001l-0.001-0h0.564v-1.365h-0.98c-0.362 0.004-0.692 0.134-0.951 0.348l0.002-0.002c-0.262 0.208-0.429 0.527-0.429 0.885 0 0.004 0 0.008 0 0.012v-0.001c0 2.133 0 4.26 0 6.406 0 0 0 0.064 0 0.090 0.205 0.012 0.444 0.018 0.685 0.018s0.481-0.007 0.719-0.020l-0.033 0.001v-3.293q0-0.404 0-0.807c0-0.038 0-0.070 0-0.122h0.641c0.109 0 0.211 0 0.32 0zM0.275 11.999c0.162-0.124 0.352-0.221 0.558-0.279l0.012-0.003c0.063-0.010 0.111-0.059 0.122-0.121l0-0.001c0.238-0.922 1.063-1.592 2.044-1.592 0.269 0 0.527 0.051 0.764 0.143l-0.014-0.005c0.638 0.247 1.115 0.781 1.278 1.44l0.003 0.014c0.008 0.060 0.055 0.107 0.115 0.115l0.001 0c0.124 0.029 0.233 0.069 0.336 0.119l-0.009-0.004c0.122 0.064 0.237 0.141 0.365 0.218 0.006-0.069 0.009-0.15 0.009-0.232 0-1.102-0.617-2.060-1.525-2.547l-0.015-0.008c-0.381-0.203-0.833-0.321-1.313-0.321-1.358 0-2.494 0.952-2.777 2.224l-0.004 0.019c-0.047 0.203-0.074 0.437-0.074 0.676 0 0.087 0.004 0.172 0.010 0.257l-0.001-0.011zM63.87 16.9c0.109-0.234 0.173-0.508 0.173-0.797 0-0.010-0-0.020-0-0.031l0 0.002q0-2.921 0-5.843s0-0.058 0-0.090c-0.049-0.011-0.105-0.018-0.163-0.018s-0.114 0.007-0.168 0.019l0.005-0.001v1.858h-2.614c-0.018-0.001-0.038-0.001-0.059-0.001-0.266 0-0.521 0.047-0.757 0.134l0.015-0.005c-0.272 0.094-0.494 0.274-0.638 0.507l-0.003 0.005c-0.145 0.247-0.231 0.544-0.231 0.861 0 0.008 0 0.016 0 0.024v-0.001c0 0.846 0 1.698 0 2.562-0.003 0.057-0.005 0.125-0.005 0.192s0.002 0.135 0.005 0.202l-0-0.009c0.027 0.359 0.195 0.675 0.447 0.896l0.002 0.001c0.151 0.138 0.34 0.238 0.55 0.281l0.008 0.001c0.201 0.037 0.432 0.058 0.668 0.058 0.011 0 0.021-0 0.032-0h-0.002c0.474 0 0.948 0 1.416 0 0.209-0.010 0.406-0.049 0.591-0.113l-0.015 0.004c0.341-0.113 0.609-0.367 0.74-0.69l0.003-0.008zM63.14 17.124c-0.172 0.096-0.375 0.16-0.59 0.179l-0.006 0h-0.41c-0.391 0-0.775 0-1.166 0-0.016 0.001-0.035 0.001-0.054 0.001-0.251 0-0.49-0.052-0.706-0.146l0.011 0.004c-0.23-0.108-0.396-0.319-0.441-0.572l-0.001-0.005c-0.028-0.129-0.044-0.277-0.045-0.429v-0.001q0-1.313 0-2.627c-0.001-0.013-0.001-0.029-0.001-0.044 0-0.24 0.069-0.464 0.19-0.653l-0.003 0.005c0.097-0.145 0.216-0.266 0.354-0.362l0.004-0.003c0.146-0.093 0.321-0.151 0.51-0.16l0.002-0c0.186 0 0.372 0 0.557 0h2.345v0.128q0 1.826 0 3.645c0 0.002 0 0.005 0 0.008 0 0.173-0.028 0.34-0.080 0.496l0.003-0.011c-0.087 0.237-0.255 0.427-0.469 0.542l-0.005 0.003zM54.882 16.682c0.033-0.164 0.051-0.353 0.051-0.546 0-0.008-0-0.017-0-0.025v0.001c0-0.839 0-1.678 0-2.524 0.003-0.049 0.005-0.106 0.005-0.163s-0.002-0.114-0.006-0.171l0 0.008c-0.041-0.296-0.15-0.561-0.311-0.787l0.004 0.005c-0.141-0.228-0.368-0.392-0.634-0.447l-0.006-0.001c-0.139-0.029-0.3-0.047-0.464-0.051l-0.003-0h-3.107c-0.004 0.045-0.007 0.098-0.007 0.151s0.003 0.105 0.007 0.157l-0.001-0.007h2.172c0.359 0 0.724 0 1.083 0 0.253 0 0.481 0.109 0.64 0.281l0.001 0.001c0.107 0.119 0.194 0.26 0.253 0.414l0.003 0.009c0.058 0.179 0.092 0.384 0.092 0.598 0 0.085-0.005 0.169-0.016 0.251l0.001-0.010h-3.017c-0.171 0.011-0.33 0.050-0.477 0.113l0.010-0.004c-0.173 0.066-0.32 0.169-0.435 0.3l-0.001 0.001c-0.196 0.243-0.314 0.556-0.314 0.896 0 0 0 0.001 0 0.001v-0c0 0.378 0 0.756 0 1.134-0 0.003-0 0.006-0 0.009 0 0.374 0.16 0.71 0.416 0.945l0.001 0.001c0.23 0.221 0.54 0.358 0.883 0.365l0.001 0c0.641 0 1.281 0 1.922 0 0.006 0 0.013 0 0.019 0 0.291 0 0.56-0.094 0.779-0.253l-0.004 0.003c0.223-0.155 0.386-0.381 0.459-0.645l0.002-0.008zM53.813 17.316c-0.061 0.004-0.133 0.007-0.205 0.007s-0.144-0.003-0.215-0.008l0.010 0.001h-1.55c-0.335-0.003-0.639-0.134-0.866-0.347l0.001 0.001c-0.145-0.131-0.239-0.316-0.25-0.523l-0-0.002c0-0.147 0-0.295 0-0.442 0-0.243 0-0.493 0-0.737 0-0.001 0-0.003 0-0.004 0-0.249 0.077-0.481 0.208-0.672l-0.003 0.004c0.138-0.201 0.347-0.345 0.59-0.396l0.006-0.001c0.125-0.027 0.268-0.044 0.416-0.045h2.672c0 0.051 0 0.083 0 0.122q0 0.999 0 1.999c-0.001 0.173-0.036 0.338-0.099 0.489l0.003-0.008c-0.112 0.306-0.385 0.527-0.714 0.563l-0.004 0zM53.415 21.782h-0.641v0.122c0 0.532 0 1.063 0 1.595 0 0.002 0 0.004 0 0.006 0 0.107-0.085 0.195-0.192 0.198h-0.494c-0.002 0-0.004 0-0.006 0-0.088 0-0.16-0.072-0.16-0.16 0-0 0-0 0-0v0c-0.001-0.015-0.001-0.033-0.001-0.051s0.001-0.036 0.002-0.054l-0 0.002q0-0.775 0-1.544v-0.115h-0.641v0.128c0 0.589 0 1.185 0 1.775-0.005 0.033-0.007 0.070-0.007 0.109s0.003 0.076 0.008 0.113l-0.001-0.004c0.049 0.212 0.212 0.377 0.419 0.428l0.004 0.001c0.035 0.004 0.075 0.007 0.115 0.007s0.081-0.003 0.12-0.007l-0.005 0h0.82c0 0.058 0 0.102 0 0.154 0 0.001 0 0.002 0 0.003 0 0.074-0.052 0.135-0.121 0.15l-0.001 0h-1.333c0 0.032 0 0.077 0 0.128v0.070s0 0.051 0 0.077c-0.005 0.055-0.008 0.118-0.008 0.183s0.003 0.128 0.009 0.191l-0.001-0.008c0.506 0 1.012 0 1.512 0 0.001 0 0.002 0 0.002 0 0.218 0 0.407-0.127 0.496-0.311l0.001-0.003c0.053-0.102 0.083-0.222 0.083-0.35 0-0.001 0-0.002 0-0.003v0q0-1.39 0-2.787c0.005-0.010 0.012-0.025 0.018-0.040l0.002-0.005zM32.851 21.788c-0.096-0.011-0.207-0.017-0.32-0.017s-0.224 0.006-0.334 0.018l0.014-0.001c0 0.038 0 0.077 0 0.109 0 0.519 0 1.038 0 1.557 0.001 0.008 0.002 0.017 0.002 0.027 0 0.124-0.1 0.224-0.224 0.224-0.007 0-0.015-0-0.022-0.001l0.001 0h-0.429c-0.084-0.013-0.147-0.085-0.147-0.171 0-0.001 0-0.001 0-0.002v0c-0.001-0.014-0.002-0.031-0.002-0.048s0.001-0.034 0.002-0.050l-0 0.002q0-0.775 0-1.544v-0.109c-0.096-0.010-0.207-0.016-0.32-0.016s-0.224 0.006-0.334 0.018l0.014-0.001c0 0.641 0 1.281 0 1.922 0 0.225 0.117 0.423 0.292 0.537l0.003 0.002c0.087 0.053 0.191 0.084 0.303 0.084 0.010 0 0.021-0 0.031-0.001l-0.001 0h0.884c0.002 0.022 0.002 0.048 0.002 0.074s-0.001 0.052-0.003 0.077l0-0.003c-0.007 0.101-0.090 0.18-0.192 0.18-0.002 0-0.005-0-0.007-0h-1.313s0 0.051 0 0.070c0 0.179 0 0.365 0 0.551h0.038c0.506 0 1.012 0 1.512 0 0.002 0 0.004 0 0.006 0 0.194 0 0.364-0.101 0.461-0.254l0.001-0.002c0.068-0.107 0.109-0.238 0.109-0.378 0-0.004-0-0.009-0-0.013v0.001q0-1.409 0-2.819c-0.007-0.006-0.015-0.012-0.024-0.018l-0.002-0.001zM48.207 22.384c-0.003-0.093-0.019-0.18-0.047-0.263l0.002 0.006c-0.036-0.116-0.117-0.21-0.222-0.262l-0.003-0.001c-0.108-0.056-0.236-0.089-0.371-0.090h-0.846c-0.002 0-0.004-0-0.005-0-0.12 0-0.235 0.024-0.34 0.066l0.006-0.002c-0.083 0.031-0.152 0.087-0.198 0.159l-0.001 0.002c-0.069 0.12-0.11 0.265-0.11 0.418 0 0.013 0 0.026 0.001 0.038l-0-0.002q0 1.384 0 2.768s0 0.058 0 0.096h0.641v-0.961h0.846c0.030 0.004 0.064 0.006 0.099 0.006s0.069-0.002 0.103-0.006l-0.004 0c0.256-0.079 0.441-0.308 0.455-0.581l0-0.001c-0.013-0.48 0-0.935-0.006-1.39zM47.566 23.492c0 0.147-0.077 0.211-0.224 0.211h-0.474c-0.093-0.003-0.168-0.079-0.168-0.173 0-0.007 0-0.014 0.001-0.020l-0 0.001c0-0.147 0-0.301 0-0.448v0c0-0.141 0-0.282 0-0.416-0.001-0.006-0.001-0.014-0.001-0.021 0-0.113 0.092-0.205 0.205-0.205 0.009 0 0.019 0.001 0.028 0.002l-0.001-0h0.423c0.154 0 0.218 0.058 0.218 0.218q0.013 0.429 0.006 0.858zM27.649 22.55c0.002-0.036 0.003-0.079 0.003-0.122s-0.001-0.085-0.004-0.128l0 0.006c-0.003-0.202-0.125-0.375-0.298-0.454l-0.003-0.001c-0.098-0.043-0.212-0.069-0.333-0.070h-0.859c-0.104 0.002-0.202 0.018-0.296 0.047l0.008-0.002c-0.144 0.042-0.256 0.152-0.3 0.292l-0.001 0.003c-0.037 0.105-0.058 0.227-0.058 0.353 0 0.002 0 0.004 0 0.006v-0q0 1.358 0 2.723c0 0.032 0 0.070 0 0.109h0.641v-0.955h1.019c0.265-0.069 0.461-0.298 0.48-0.575l0-0.002c-0.013-0.423 0-0.826 0-1.23zM27.009 23.498c0.001 0.006 0.001 0.013 0.001 0.020 0 0.058-0.025 0.11-0.065 0.147l-0 0c-0.034 0.025-0.076 0.042-0.121 0.045l-0.001 0h-0.461c-0.006 0.001-0.013 0.001-0.020 0.001-0.11 0-0.199-0.089-0.199-0.199 0-0.007 0-0.014 0.001-0.021l-0 0.001q0-0.423 0-0.839c0-0.16 0.077-0.231 0.243-0.237h0.423c0.147 0 0.205 0.058 0.205 0.205s0 0.295 0 0.442 0 0.288 0.006 0.436zM38.194 22.153c-0.038-0.159-0.161-0.282-0.317-0.32l-0.003-0.001c-0.095-0.029-0.205-0.047-0.318-0.051l-0.002-0h-1.441v0.596h1.281c0.026-0.003 0.056-0.005 0.087-0.005s0.061 0.002 0.090 0.006l-0.004-0c0.037 0.009 0.065 0.042 0.065 0.081 0 0.003-0 0.006-0 0.009l0-0c0 0.045 0 0.090 0 0.141h-0.852c-0.037-0.004-0.081-0.006-0.125-0.006s-0.087 0.002-0.13 0.007l0.005-0c-0.169 0.030-0.307 0.138-0.377 0.285l-0.001 0.003c-0.041 0.097-0.065 0.21-0.065 0.329 0 0.013 0 0.026 0.001 0.038l-0-0.002c0 0.186 0 0.372 0 0.557 0.007 0.115 0.055 0.218 0.128 0.295l-0-0c0.116 0.115 0.275 0.186 0.451 0.186 0.004 0 0.007-0 0.011-0h-0.001c0.32 0 0.641 0 0.967 0 0.005 0 0.010 0 0.016 0 0.228 0 0.423-0.142 0.501-0.343l0.001-0.004c0.035-0.085 0.056-0.184 0.058-0.288v-0.001c0-0.436 0-0.871 0-1.281-0.001-0.082-0.010-0.162-0.027-0.238l0.001 0.007zM37.592 23.575c0 0.085-0.069 0.154-0.154 0.154h-0.538c-0 0-0 0-0 0-0.093 0-0.169-0.074-0.173-0.166v-0c-0.003-0.028-0.004-0.060-0.004-0.093s0.002-0.065 0.004-0.097l-0 0.004c-0-0.002-0-0.005-0-0.007 0-0.071 0.057-0.128 0.128-0.128 0.005 0 0.009 0 0.014 0.001l-0.001-0h0.647c0.045 0.014 0.077 0.055 0.077 0.104 0 0.004-0 0.008-0.001 0.012l0-0c0.006 0.083 0.006 0.173 0.006 0.211zM59.040 22.377c0.004-0.030 0.006-0.064 0.006-0.099s-0.002-0.069-0.007-0.103l0 0.004c-0.035-0.169-0.161-0.302-0.324-0.345l-0.003-0.001c-0.095-0.028-0.204-0.047-0.318-0.051l-0.003-0h-1.486v0.596h1.243c0.025-0.002 0.054-0.004 0.083-0.004s0.058 0.001 0.087 0.004l-0.004-0c0.040 0.006 0.071 0.037 0.077 0.076l0 0c0 0.045 0 0.096 0 0.154h-0.839c-0.037-0.004-0.081-0.007-0.125-0.007s-0.087 0.002-0.13 0.007l0.005-0c-0.23 0.046-0.402 0.246-0.404 0.487v0c-0.006 0.103-0.009 0.224-0.009 0.346s0.003 0.243 0.010 0.363l-0.001-0.017c0.004 0.197 0.126 0.364 0.298 0.434l0.003 0.001c0.093 0.041 0.2 0.064 0.314 0.064 0 0 0 0 0 0h0.935c0.002 0 0.004 0 0.007 0 0.318 0 0.577-0.258 0.577-0.577 0-0.005-0-0.009-0-0.014v0.001c0.006-0.397 0.006-0.858 0.006-1.32zM58.399 23.556c0 0.128-0.051 0.173-0.179 0.173h-0.48c-0.006 0.001-0.013 0.001-0.020 0.001-0.096 0-0.173-0.077-0.173-0.173 0-0.007 0-0.014 0.001-0.021l-0 0.001c0-0.058 0-0.109 0-0.167s0.038-0.128 0.122-0.128h0.589c0.096 0 0.141 0.058 0.141 0.154s-0.006 0.135-0.006 0.135zM42.851 21.852c-0.093-0.045-0.203-0.071-0.319-0.071-0.005 0-0.010 0-0.015 0h-0.877v-0.955c-0.096-0.010-0.208-0.016-0.32-0.016s-0.224 0.006-0.334 0.017l0.014-0.001v3.523h0.641v-0.115q0-0.807 0-1.608c0-0.147 0.058-0.199 0.205-0.205h0.436c0.218 0 0.237 0 0.237 0.243q0 0.782 0 1.57v0.109c0.096 0.011 0.207 0.017 0.32 0.017s0.224-0.006 0.334-0.018l-0.014 0.001s0-0.032 0-0.051c0-0.641 0-1.281 0-1.954 0-0.004 0-0.008 0-0.013 0-0.21-0.125-0.391-0.304-0.473l-0.003-0.001zM50.814 22.326c0.001-0.011 0.002-0.025 0.002-0.038 0-0.239-0.174-0.437-0.402-0.474l-0.003-0c-0.088-0.020-0.191-0.033-0.297-0.038l-0.004-0h-1.422v0.602h1.224c0.025-0.003 0.054-0.004 0.083-0.004s0.058 0.002 0.087 0.005l-0.004-0c0.053 0.009 0.094 0.054 0.096 0.109v0c0 0.038 0 0.077 0 0.122h-0.814c-0.033-0.003-0.071-0.004-0.109-0.004s-0.076 0.002-0.114 0.005l0.005-0c-0.26 0.024-0.461 0.24-0.461 0.504 0 0.005 0 0.010 0 0.016l-0-0.001c-0.012 0.107-0.019 0.23-0.019 0.356s0.007 0.249 0.020 0.371l-0.001-0.015c0.019 0.189 0.146 0.343 0.317 0.403l0.003 0.001c0.096 0.037 0.206 0.058 0.322 0.058 0.002 0 0.003 0 0.005 0h1.018c0.26-0.050 0.453-0.274 0.455-0.544v-0c0-0.109 0-0.224 0-0.333 0.013-0.346 0.019-0.718 0.013-1.095zM50.174 23.543c0 0.002 0 0.005 0 0.007 0 0.099-0.080 0.179-0.179 0.179-0.007 0-0.014-0-0.020-0.001l0.001 0h-0.48c-0.094-0.003-0.168-0.079-0.168-0.173 0-0.009 0.001-0.018 0.002-0.027l-0 0.001c0-0.058 0-0.109 0-0.167s0.038-0.122 0.122-0.128h0.583c0.002-0 0.005-0 0.008-0 0.085 0 0.154 0.069 0.154 0.154 0 0.007-0 0.014-0.001 0.020l0-0.001c0 0.051 0 0.122-0.006 0.122zM30.25 22.307c0-0.004 0-0.009 0-0.014 0-0.236-0.17-0.432-0.394-0.473l-0.003-0c-0.075-0.020-0.163-0.033-0.253-0.038l-0.003-0h-1.454c-0.012 0.089-0.019 0.193-0.019 0.298s0.007 0.208 0.020 0.31l-0.001-0.012h1.281c0.147 0 0.192 0.058 0.179 0.205 0 0.008 0.001 0.017 0.001 0.026s-0 0.018-0.001 0.027l0-0.001h-0.871c-0.003-0-0.007-0-0.010-0-0.121 0-0.234 0.031-0.333 0.085l0.004-0.002c-0.163 0.095-0.27 0.268-0.27 0.467 0 0.012 0 0.023 0.001 0.035l-0-0.002c0 0.218 0 0.442 0 0.641 0.009 0.161 0.102 0.298 0.235 0.37l0.002 0.001c0.103 0.060 0.227 0.096 0.359 0.096h0c0.32 0 0.641 0 0.955 0 0 0 0 0 0 0 0.308 0 0.557-0.25 0.557-0.557 0-0.007-0-0.013-0-0.020l0 0.001c0-0.378 0-0.75 0-1.128 0.026-0.083 0.032-0.199 0.019-0.314zM29.61 23.428c0 0.038 0 0.077 0 0.115 0.001 0.006 0.001 0.013 0.001 0.020 0 0.096-0.077 0.173-0.173 0.173-0.005 0-0.010-0-0.015-0.001l0.001 0h-0.455c-0.173 0-0.231-0.058-0.231-0.237 0-0.038 0-0.077 0-0.115s0.051-0.141 0.147-0.141h0.583c0.083 0 0.173 0.058 0.16 0.186zM61.545 23.434l1.377-0.519c0-0.218 0-0.429 0-0.641-0.006-0.193-0.124-0.357-0.292-0.428l-0.003-0.001c-0.101-0.045-0.218-0.070-0.342-0.070-0.001 0-0.003 0-0.004 0h-0.781c-0.037-0.004-0.081-0.006-0.125-0.006s-0.087 0.002-0.13 0.007l0.005-0c-0.179 0.030-0.323 0.153-0.383 0.317l-0.001 0.003c-0.036 0.096-0.058 0.206-0.058 0.322 0 0.002 0 0.003 0 0.005v-0c0 0.391 0 0.775 0 1.166-0.004 0.040-0.005 0.087-0.005 0.135s0.002 0.094 0.006 0.141l-0-0.006c0.025 0.147 0.107 0.271 0.222 0.351l0.002 0.001c0.1 0.069 0.224 0.109 0.358 0.109 0.009 0 0.018-0 0.028-0.001l-0.001 0h1.486c0.011-0.096 0.017-0.207 0.017-0.32s-0.006-0.224-0.019-0.334l0.001 0.013h-1.333c-0.066-0.012-0.116-0.070-0.116-0.139 0-0.003 0-0.006 0-0.009l-0 0c-0.006-0.051 0.006-0.064 0.090-0.096zM61.436 22.89c0-0.102 0-0.192 0-0.275 0.013-0.087 0.088-0.154 0.178-0.154 0.001 0 0.001 0 0.002 0h0.525c0.012-0.004 0.027-0.006 0.042-0.006s0.029 0.002 0.043 0.006l-0.001-0c0.024 0.019 0.040 0.046 0.045 0.076l0 0.001s-0.032 0.038-0.058 0.051l-0.711 0.301zM40.007 22.743h-0.596c-0.075-0.012-0.132-0.076-0.135-0.154v-0c0.002-0.081 0.062-0.148 0.14-0.16l0.001-0h1.179v-0.641h-1.281c-0.033-0.003-0.071-0.005-0.109-0.005s-0.076 0.002-0.114 0.005l0.005-0c-0.258 0.033-0.455 0.251-0.455 0.515 0 0.006 0 0.012 0 0.018l-0-0.001c0 0.179 0 0.359 0 0.538 0 0 0 0.001 0 0.001 0 0.133 0.059 0.252 0.153 0.332l0.001 0c0.128 0.119 0.3 0.192 0.489 0.192 0.006 0 0.012-0 0.018-0l-0.001 0h0.474c0.003-0 0.006-0 0.010-0 0.056 0 0.104 0.034 0.124 0.083l0 0.001c0.015 0.024 0.024 0.053 0.024 0.084 0 0.088-0.072 0.16-0.16 0.16-0.006 0-0.012-0-0.018-0.001l0.001 0h-1.115c0 0.032 0 0.077 0 0.128v0.096c-0.006 0.062-0.009 0.135-0.009 0.208s0.003 0.146 0.010 0.217l-0.001-0.009h1.384c0.077-0.001 0.15-0.020 0.214-0.053l-0.003 0.001c0.195-0.090 0.328-0.282 0.333-0.505v-0.001c0-0.102 0-0.205 0-0.301 0.004-0.028 0.006-0.060 0.006-0.093 0-0.13-0.033-0.253-0.091-0.36l0.002 0.004c-0.089-0.179-0.271-0.3-0.48-0.301h-0zM55.286 22.422h1.179c0-0.070 0-0.135 0-0.199s0-0.237 0-0.359c0.001-0.012 0.001-0.027 0.001-0.042s-0-0.029-0.001-0.044l0 0.002h-1.281c-0.101 0.003-0.198 0.017-0.291 0.040l0.009-0.002c-0.217 0.053-0.375 0.245-0.378 0.474v0c0 0.205 0 0.404 0 0.641 0 0.097 0.039 0.186 0.103 0.25l-0-0c0.13 0.149 0.32 0.243 0.533 0.243 0.002 0 0.004 0 0.006-0h0.493c0.004-0 0.008-0.001 0.013-0.001 0.072 0 0.131 0.057 0.134 0.128v0c0.003 0.012 0.005 0.025 0.005 0.039 0 0.085-0.069 0.154-0.154 0.154-0.006 0-0.013-0-0.019-0.001l0.001 0h-1.127v0.641h0.038c0.448 0 0.897 0 1.345 0 0.31-0.011 0.557-0.265 0.557-0.576 0-0.005-0-0.009-0-0.014v0.001c0-0.147 0-0.295 0-0.442-0.007-0.316-0.261-0.57-0.576-0.577h-0.001c-0.141 0-0.288 0-0.429 0h-0.16c-0 0-0 0-0.001 0-0.073 0-0.134-0.056-0.14-0.128l-0-0.001c-0.008-0.019-0.013-0.041-0.013-0.065 0-0.088 0.068-0.159 0.153-0.166l0.001-0zM46.9 17.643c0.718 0 1.435 0 2.152 0h0.077c0.006-0.045 0.009-0.097 0.009-0.151s-0.003-0.105-0.010-0.157l0.001 0.006h-1.967c-0 0-0 0-0 0-0.165 0-0.327-0.016-0.483-0.047l0.016 0.003c-0.292-0.048-0.537-0.219-0.683-0.457l-0.002-0.004c-0.125-0.206-0.199-0.455-0.199-0.722 0-0.010 0-0.020 0-0.029l-0 0.001c0-0.916 0-1.826 0-2.742 0.002-0.126 0.018-0.247 0.047-0.363l-0.002 0.011c0.063-0.29 0.276-0.518 0.552-0.601l0.006-0.001c0.176-0.061 0.379-0.096 0.59-0.096 0.002 0 0.004 0 0.006 0h2.075v-0.295h-2.281c-0.003-0-0.007-0-0.011-0-0.161 0-0.316 0.028-0.46 0.080l0.009-0.003c-0.485 0.172-0.831 0.616-0.858 1.144l-0 0.003c0 0.974 0 1.922 0 2.921 0 0.001 0 0.002 0 0.003 0 0.229 0.040 0.448 0.113 0.651l-0.004-0.013c0.090 0.265 0.255 0.484 0.47 0.638l0.004 0.003c0.211 0.138 0.47 0.22 0.747 0.22 0.030 0 0.060-0.001 0.089-0.003l-0.004 0zM35.568 23.71h-0.75c-0.015 0.005-0.033 0.008-0.052 0.008-0.096 0-0.173-0.077-0.173-0.173 0-0.005 0-0.010 0.001-0.015l-0 0.001c0-0.167 0-0.327 0-0.493s0-0.301 0-0.455 0.045-0.141 0.147-0.147h0.922v-0.641h-1.166c-0.004-0-0.008-0-0.012-0-0.134 0-0.255 0.051-0.347 0.135l0-0c-0.099 0.098-0.161 0.233-0.161 0.384 0 0.009 0 0.018 0.001 0.028l-0-0.001c0 0.48 0 0.961 0 1.441 0.003 0.108 0.028 0.209 0.072 0.299l-0.002-0.004c0.050 0.119 0.15 0.208 0.273 0.243l0.003 0.001c0.087 0.028 0.188 0.046 0.292 0.051l0.003 0h1.063c0.011-0.096 0.017-0.207 0.017-0.32s-0.006-0.224-0.019-0.334l0.001 0.013zM60.11 20.827c-0.106 0.003-0.205 0.031-0.292 0.079l0.003-0.002c-0.184 0.090-0.308 0.276-0.308 0.49 0 0.008 0 0.015 0 0.023l-0-0.001q0 1.409 0 2.819v0.109c0.096 0.011 0.207 0.018 0.32 0.018s0.224-0.006 0.334-0.019l-0.013 0.001v-0.641c0-0.211 0-0.423 0-0.641s0-0.423 0-0.641h0.448v-0.641h-0.224c-0.035 0.007-0.075 0.010-0.115 0.010s-0.081-0.004-0.119-0.011l0.004 0.001c0-0.045 0-0.090 0-0.141-0-0.002-0-0.004-0-0.006 0-0.076 0.051-0.14 0.121-0.16l0.001-0c0.020-0.003 0.044-0.005 0.067-0.005s0.047 0.002 0.070 0.005l-0.003-0h0.205v-0.596h-0.5zM56.913 17.502q0-1.967 0-3.933c-0-0.005-0-0.011-0-0.016 0-0.153 0.016-0.302 0.047-0.446l-0.002 0.014c0.074-0.451 0.452-0.794 0.914-0.814l0.002-0c0.167 0 0.34 0 0.513 0h0.102v-0.307h-0.436c-0.002 0-0.005 0-0.008 0-0.175 0-0.344 0.023-0.506 0.067l0.013-0.003c-0.359 0.078-0.649 0.316-0.798 0.634l-0.003 0.007c-0.089 0.188-0.142 0.407-0.147 0.639l-0 0.002c0 0.814 0 1.634 0 2.447q0 0.858 0 1.71c0 0.038 0 0.083 0 0.128h0.307zM43.921 23.53c-0.2 0.026-0.353 0.195-0.353 0.4s0.153 0.374 0.351 0.4l0.002 0c0.219 0 0.397-0.178 0.397-0.397v0c0-0.004 0-0.008 0-0.013 0-0.216-0.175-0.391-0.391-0.391-0.002 0-0.005 0-0.007 0h0zM63.659 23.53c-0.221 0-0.4 0.179-0.4 0.4s0.179 0.4 0.4 0.4v0c0.002 0 0.004 0 0.006 0 0.219 0 0.397-0.178 0.397-0.397 0-0.002-0-0.005-0-0.007v0c0-0.002 0-0.004 0-0.007 0-0.216-0.175-0.391-0.391-0.391-0.005 0-0.009 0-0.014 0l0.001-0z"></path>
</svg>
