<svg version="1.1" xmlns="http://www.w3.org/2000/svg" width="64" height="32" viewBox="0 0 64 32">
<path d="M11.531 19.821c0.186-0.269 0.365-0.308 0.679-0.128q1.576 0.91 3.203 1.666c2.276 1.070 4.944 1.993 7.721 2.631l0.274 0.053c1.154 0.287 2.621 0.557 4.112 0.747l0.206 0.022c1.404 0.175 3.030 0.276 4.679 0.276 0.357 0 0.714-0.005 1.069-0.014l-0.052 0.001c1.628-0.046 3.177-0.184 4.698-0.41l-0.213 0.026c3.72-0.537 7.076-1.495 10.226-2.842l-0.264 0.1c0.117-0.061 0.256-0.096 0.403-0.096 0.085 0 0.166 0.012 0.244 0.034l-0.006-0.002c0.236 0.066 0.407 0.279 0.407 0.532 0 0.143-0.055 0.274-0.145 0.372l0-0c-0.070 0.079-0.148 0.149-0.233 0.209l-0.004 0.003c-1.749 1.268-3.759 2.337-5.91 3.112l-0.169 0.053c-1.522 0.574-3.333 1.068-5.201 1.395l-0.187 0.027c-1.219 0.225-2.655 0.382-4.117 0.434l-0.053 0.002h-1.992c-0.91-0.070-1.826-0.122-2.735-0.218-1.731-0.198-3.293-0.522-4.8-0.972l0.194 0.050c-4.534-1.305-8.452-3.512-11.72-6.432l0.029 0.025c-0.117-0.138-0.228-0.291-0.33-0.451l-0.010-0.017zM43.736 11.525l0.762-2.197 2.088-5.996c0.032-0.103 0.083-0.199 0.122-0.295 0.069-0.185 0.245-0.315 0.451-0.315 0.010 0 0.021 0 0.031 0.001l-0.001-0h1.358c0.010-0.002 0.022-0.002 0.033-0.002 0.127 0 0.231 0.103 0.231 0.231 0 0.028-0.005 0.056-0.015 0.081l0.001-0.002c-0.024 0.132-0.057 0.248-0.1 0.359l0.004-0.013-4.766 12.121c-0.228 0.598-0.524 1.114-0.887 1.576l0.010-0.013c-0.459 0.578-1.14 0.963-1.912 1.024l-0.010 0.001c-0.137 0.014-0.296 0.022-0.457 0.022-0.392 0-0.774-0.048-1.139-0.138l0.032 0.007c-0.282-0.019-0.504-0.252-0.504-0.537 0-0.023 0.001-0.046 0.004-0.068l-0 0.003c0-0.224 0-0.442 0-0.641s0.122-0.346 0.378-0.327 0.333 0.064 0.5 0.064c0.040 0.001 0.086 0.002 0.133 0.002 0.272 0 0.539-0.019 0.8-0.056l-0.030 0.003c0.508-0.095 0.92-0.437 1.111-0.893l0.004-0.010c0.224-0.474 0.384-0.974 0.609-1.448 0.066-0.132 0.104-0.287 0.104-0.452s-0.038-0.32-0.107-0.458l0.003 0.006q-1.986-4.843-3.94-9.699c-0.043-0.1-0.085-0.222-0.118-0.347l-0.004-0.018c-0.058-0.231 0.038-0.352 0.275-0.352h1.345c0.015-0.001 0.032-0.002 0.049-0.002 0.244 0 0.451 0.161 0.52 0.383l0.001 0.004 0.685 1.89 2.3 6.406zM48.444 20.379c-1.094 0.017-2.152 0.1-3.19 0.246l0.134-0.015c-0.044 0.005-0.095 0.008-0.147 0.008s-0.103-0.003-0.154-0.008l0.006 0.001c-0.001 0-0.003 0-0.005 0-0.117 0-0.211-0.095-0.211-0.211 0-0.040 0.011-0.078 0.031-0.11l-0.001 0.001c0.070-0.121 0.163-0.221 0.273-0.299l0.003-0.002c0.635-0.431 1.38-0.757 2.18-0.934l0.042-0.008c0.666-0.168 1.43-0.264 2.217-0.264 0.639 0 1.263 0.063 1.866 0.184l-0.060-0.010c0.297 0.070 0.554 0.155 0.799 0.262l-0.030-0.012c0.196 0.073 0.333 0.258 0.333 0.476 0 0.002 0 0.003-0 0.005v-0c0.003 0.085 0.005 0.184 0.005 0.284 0 2.116-0.76 4.055-2.021 5.559l0.011-0.013c-0.198 0.233-0.408 0.442-0.633 0.634l-0.008 0.006c-0.091 0.075-0.201 0.131-0.321 0.159l-0.005 0.001c-0.018 0.006-0.039 0.009-0.061 0.009-0.113 0-0.205-0.092-0.205-0.205 0-0.012 0.001-0.024 0.003-0.036l-0 0.001c0.012-0.1 0.037-0.191 0.073-0.276l-0.003 0.007c0.314-0.884 0.641-1.755 0.948-2.646 0.171-0.502 0.278-1.081 0.294-1.683l0-0.008c0-0.070 0-0.141 0-0.211 0.002-0.021 0.004-0.045 0.004-0.070 0-0.31-0.22-0.568-0.512-0.628l-0.004-0.001c-0.287-0.074-0.642-0.139-1.004-0.182l-0.041-0.004c-0.108-0.008-0.233-0.012-0.359-0.012-0.088 0-0.175 0.002-0.261 0.006l0.012-0zM26.804 7.137c-0.066-0.883-0.296-1.697-0.658-2.435l0.017 0.039c-0.485-1.068-1.409-1.864-2.535-2.166l-0.027-0.006c-0.382-0.108-0.821-0.171-1.274-0.171-0.861 0-1.669 0.225-2.369 0.619l0.024-0.013c-0.423 0.224-0.807 0.512-1.217 0.775v-0.109c-0.032-0.205-0.058-0.416-0.109-0.641-0.029-0.186-0.188-0.327-0.38-0.327-0.002 0-0.003 0-0.005 0h0q-0.538 0-1.083 0c-0.002-0-0.004-0-0.006-0-0.184 0-0.333 0.149-0.333 0.333 0 0.002 0 0.005 0 0.007v-0c0 0.077 0 0.16 0 0.237q0 6.983 0 13.972c0 0.051 0 0.096 0 0.147 0 0.308 0.122 0.429 0.429 0.429h1.23c0.308 0 0.423-0.122 0.429-0.429 0-0.051 0-0.109 0-0.16v-4.773l0.090 0.064c0.83 0.734 1.928 1.183 3.13 1.183 0.068 0 0.136-0.001 0.204-0.004l-0.010 0c1.139-0.002 2.168-0.47 2.908-1.223l0.001-0.001c0.614-0.648 1.062-1.459 1.274-2.361l0.007-0.035c0.186-0.67 0.293-1.439 0.293-2.233 0-0.253-0.011-0.504-0.032-0.752l0.002 0.032zM24.478 9.943c-0.127 0.475-0.349 0.887-0.644 1.234l0.004-0.004c-0.425 0.48-1.032 0.791-1.711 0.826l-0.006 0c-0.090 0.006-0.195 0.010-0.301 0.010-1.057 0-2.029-0.366-2.796-0.978l0.009 0.007c-0.044-0.045-0.071-0.106-0.071-0.174 0-0.002 0-0.004 0-0.006v0c0-0.948 0-1.922 0-2.844s0-1.877 0-2.812c-0-0.005-0.001-0.011-0.001-0.018 0-0.085 0.046-0.16 0.115-0.2l0.001-0.001c0.768-0.561 1.732-0.898 2.774-0.898 0.032 0 0.063 0 0.094 0.001l-0.005-0c0.021-0.001 0.046-0.001 0.071-0.001 1.113 0 2.054 0.731 2.371 1.739l0.005 0.018c0.171 0.469 0.281 1.012 0.307 1.577l0 0.012c0.015 0.178 0.023 0.386 0.023 0.595 0 0.678-0.088 1.336-0.253 1.963l0.012-0.054zM37.073 5.849c0-0.006 0-0.014 0-0.021 0-0.352-0.030-0.697-0.088-1.033l0.005 0.036c-0.103-0.827-0.587-1.524-1.269-1.915l-0.012-0.007c-0.53-0.29-1.156-0.473-1.822-0.506l-0.010-0c-0.239-0.020-0.518-0.031-0.799-0.031-0.876 0-1.727 0.109-2.539 0.315l0.071-0.015c-0.5 0.136-0.903 0.272-1.296 0.427l0.086-0.030c-0.195 0.059-0.334 0.238-0.334 0.448 0 0.009 0 0.018 0.001 0.027l-0-0.001c0 0.243 0 0.487 0 0.73s0.154 0.397 0.442 0.301c0.822-0.274 1.774-0.462 2.76-0.524l0.033-0.002c0.13-0.011 0.281-0.017 0.433-0.017 0.391 0 0.772 0.041 1.14 0.12l-0.036-0.006c0.627 0.109 1.109 0.613 1.184 1.242l0.001 0.007c0.051 0.441 0.080 0.951 0.080 1.468 0 0.229-0.006 0.458-0.017 0.684l0.001-0.032s0 0 0 0h-0.083c-0.602-0.154-1.311-0.268-2.038-0.318l-0.038-0.002c-0.153-0.014-0.331-0.022-0.511-0.022-0.637 0-1.25 0.102-1.823 0.29l0.041-0.012c-0.877 0.273-1.58 0.882-1.971 1.672l-0.009 0.019c-0.194 0.419-0.307 0.909-0.307 1.425 0 0.221 0.021 0.437 0.060 0.646l-0.003-0.022c0.119 1 0.755 1.827 1.629 2.216l0.018 0.007c0.468 0.209 1.014 0.33 1.588 0.33 0.27 0 0.534-0.027 0.789-0.078l-0.025 0.004c1.035-0.173 1.947-0.609 2.693-1.237l-0.008 0.007 0.109-0.083c0.045 0.263 0.077 0.506 0.122 0.743 0.016 0.185 0.166 0.33 0.351 0.339l0.001 0q0.551 0 1.108 0c0.174-0.004 0.314-0.146 0.314-0.32 0-0 0-0 0-0v0c0-0.064 0-0.122 0-0.186-0.013-2.345-0.013-4.715-0.019-7.085zM34.985 11.166c-0.696 0.524-1.548 0.878-2.475 0.984l-0.024 0.002c-0.094 0.013-0.203 0.021-0.314 0.021-0.292 0-0.572-0.052-0.83-0.148l0.017 0.005c-0.408-0.152-0.716-0.486-0.831-0.9l-0.002-0.009c-0.061-0.192-0.095-0.412-0.095-0.641s0.035-0.449 0.1-0.656l-0.004 0.016c0.165-0.517 0.579-0.91 1.098-1.042l0.011-0.002c0.338-0.107 0.727-0.168 1.13-0.168 0.141 0 0.281 0.008 0.418 0.022l-0.017-0.001c0.602 0.051 1.198 0.154 1.794 0.237l0.128 0.038v0.57c0 0.487 0 0.98 0 1.467 0 0.003 0 0.007 0 0.010 0 0.079-0.041 0.148-0.102 0.188l-0.001 0.001z"></path>
</svg>
