<svg version="1.1" xmlns="http://www.w3.org/2000/svg" width="64" height="32" viewBox="0 0 64 32">
<path d="M28.931 17.637v-1.281h-5.029c-2.473 0-3.626 0.846-3.626 2.159 0 1.204 1.115 2.261 3.959 2.261 3.498-0.026 4.696-0.346 4.696-3.139zM18.168 8.867l-1.775 1.787c-1.584-1.042-3.525-1.663-5.611-1.666h-0.001c-2.678 0-3.588 0.922-3.588 2.159 0 0.782 0.641 1.557 2.761 1.698l3.466 0.211c2.14 0.122 3.639 0.737 4.619 1.672 1.285-1.001 2.922-1.604 4.7-1.604 0.131 0 0.262 0.003 0.392 0.010l-0.018-0.001h5.817v-1.826c0-1.698-1.281-2.3-4.292-2.3-0.108-0.006-0.234-0.010-0.361-0.010-1.675 0-3.201 0.634-4.353 1.674l0.006-0.005zM49.456 13.415h9.725c0-3.113-2.313-4.657-4.882-4.657s-4.843 1.518-4.843 4.657zM34.901 14.786c0.038 2.934 0.083 3.395 0.846 4.215 0.904 0.866 2.132 1.399 3.485 1.399 0.050 0 0.099-0.001 0.148-0.002l-0.007 0c0.036 0.001 0.079 0.002 0.123 0.002 1.286 0 2.447-0.536 3.271-1.397l0.002-0.002c0.762-0.82 0.852-1.32 0.852-4.215s-0.058-3.427-0.846-4.254c-0.826-0.862-1.987-1.398-3.273-1.398-0.043 0-0.086 0.001-0.129 0.002l0.006-0c-0.043-0.001-0.093-0.002-0.143-0.002-1.352 0-2.58 0.533-3.484 1.4l0.002-0.002c-0.769 0.826-0.89 1.3-0.852 4.254zM32.255 8.322c0.135-0.173 0.282-0.346 0.448-0.532 1.351-1.36 3.222-2.201 5.29-2.201 0.084 0 0.168 0.001 0.251 0.004l-0.012-0c0.036-0.001 0.078-0.001 0.121-0.001 2.050 0 3.911 0.808 5.282 2.124l-0.003-0.003v-1.922h4.203v1.967c1.525-1.347 3.542-2.169 5.75-2.169 0.091 0 0.182 0.001 0.272 0.004l-0.013-0c4.6 0 8.559 3.152 8.584 8.45 0 0.903-0.102 2.524-0.102 2.524h-12.877c0 2.928 1.999 4.030 4.875 4.030 1.86-0.057 3.551-0.737 4.882-1.837l-0.014 0.011 2.825 2.050c-1.951 1.944-4.639 3.149-7.609 3.158h-0.002c-2.3 0-4.773-0.538-6.566-2.178v1.512c0 5.426-4.279 7.905-9.071 7.905-2.826-0.056-5.376-1.193-7.261-3.014l0.003 0.003 3.254-2.229c1.082 0.97 2.506 1.579 4.071 1.627l0.010 0c2.806 0 4.785-1.377 4.785-3.895v-1.832c-1.411 1.295-3.301 2.088-5.376 2.088-0.009 0-0.017 0-0.026-0h0.001c-0.062 0.002-0.135 0.003-0.209 0.003-1.875 0-3.594-0.672-4.928-1.787l0.012 0.010v1.819h-4.177v-1.839h-0.102c-0.865 1.236-2.313 1.807-5.125 1.807-2.659 0-4.683-0.775-5.939-2.012-1.57 1.281-4.062 1.992-6.932 1.992-0.045 0-0.097 0.001-0.15 0.001-3.441 0-6.6-1.209-9.076-3.225l0.026 0.021 2.928-2.479c1.661 1.434 3.841 2.307 6.225 2.307 0.131 0 0.262-0.003 0.392-0.008l-0.019 0.001c2.396 0 4.126-0.782 4.126-2.3 0-1.281-1.115-1.666-2.563-1.768l-3.709-0.282c-3.466-0.25-6.022-2.018-6.022-5.125 0-3.632 3.376-5.509 7.79-5.509 0.142-0.005 0.309-0.008 0.477-0.008 2.542 0 4.921 0.703 6.951 1.926l-0.061-0.034c1.544-1.377 3.568-1.883 6.285-1.883 3.626 0 6.457 0.737 7.816 2.71z"></path>
</svg>
