<svg version="1.1" xmlns="http://www.w3.org/2000/svg" width="64" height="32" viewBox="0 0 64 32">
<path d="M5.433 16.042c-0.726 0.061-1.383 0.314-1.934 0.706l0.012-0.008c-1.518 1.326-0.641 3.671 2.466 3.671 1.775 0 3.543-1.14 4.933-2.908-1.992-0.955-3.639-1.659-5.477-1.461zM17.092 5.458h-13.287c-0.002 0-0.005 0-0.007 0-1.724 0-3.125 1.381-3.158 3.098l-0 0.003v13.287c0.011 1.715 1.403 3.101 3.12 3.101 0.016 0 0.032-0 0.047-0l-0.002 0h13.287c0.002 0 0.005 0 0.007 0 1.724 0 3.125-1.381 3.158-3.098l0-0.003v-0.128s-5.061-2.088-7.688-3.35c-1.678 2.088-3.895 3.415-6.233 3.415-3.921 0-5.253-3.415-3.357-5.631 0.542-0.621 1.284-1.055 2.124-1.201l0.022-0.003c1.646-0.378 4.305 0.256 6.771 1.076 0.427-0.762 0.794-1.645 1.055-2.572l0.021-0.087h-7.688v-0.724h3.921v-1.55h-4.766v-0.756h4.811v-1.967c-0-0.002-0-0.004-0-0.006 0-0.17 0.138-0.307 0.307-0.307 0.002 0 0.005 0 0.007 0h1.922v2.338h4.721v0.698h-4.747v1.39h3.844c-0.39 1.559-0.955 2.929-1.687 4.189l0.041-0.076c1.281 0.442 2.338 0.82 3.101 1.076 0.963 0.379 2.127 0.728 3.326 0.985l0.153 0.027v-10.122c-0.011-1.715-1.403-3.101-3.12-3.101-0.009 0-0.018 0-0.027 0h0.001zM34.267 10.571v8.604h2.024v-8.969h-1.582c-0.314-0.013-0.442 0.115-0.442 0.365zM28.719 10.077c-0.166 0.015-0.305 0.114-0.377 0.254l-0.001 0.003-4.241 8.77h1.454l1.14-2.402h3.415l1.14 2.402h2.217l-4.177-9.026zM27.073 15.901l1.326-2.844 1.326 2.844zM47.816 13.28c-0.239-0.273-0.534-0.491-0.868-0.635l-0.016-0.006c-0.297-0.163-0.651-0.259-1.027-0.259-0.040 0-0.079 0.001-0.118 0.003l0.005-0c-0.020-0.001-0.044-0.001-0.068-0.001-0.363 0-0.71 0.071-1.026 0.2l0.018-0.007c-0.318 0.089-0.592 0.242-0.822 0.444l0.002-0.002v-0.641h-1.333c-0.442 0-0.762 0-0.698 0.82v8.27h2.024v-2.281c0.168 0.069 0.362 0.115 0.565 0.128l0.005 0h0.698c0.027 0.001 0.059 0.001 0.091 0.001 0.469 0 0.915-0.095 1.322-0.266l-0.022 0.008c0.421-0.209 0.779-0.484 1.073-0.816l0.003-0.004c0.295-0.34 0.532-0.74 0.69-1.178l0.008-0.026c0.164-0.411 0.259-0.887 0.259-1.386 0-0.047-0.001-0.093-0.002-0.139l0 0.007c0-0.009 0-0.019 0-0.030 0-0.42-0.070-0.824-0.2-1.201l0.008 0.026c-0.134-0.396-0.328-0.739-0.574-1.037l0.004 0.005zM46.234 16.951c-0.064 0.314-0.192 0.506-0.256 0.762-0.075 0.208-0.206 0.38-0.375 0.504l-0.003 0.002c-0.137 0.114-0.313 0.185-0.505 0.192l-0.001 0c-0.030 0.003-0.066 0.004-0.101 0.004-0.145 0-0.284-0.025-0.414-0.071l0.009 0.003c-0.292-0.121-0.52-0.349-0.638-0.633l-0.003-0.008c-0.043-0.104-0.068-0.225-0.068-0.351 0-0.032 0.002-0.064 0.005-0.095l-0 0.004v-3.075c0.068-0.123 0.153-0.227 0.255-0.313l0.002-0.001c0.128-0.064 0.192-0.192 0.314-0.256 0.091-0.074 0.194-0.139 0.305-0.189l0.009-0.004c0.094-0.042 0.204-0.066 0.319-0.066 0.021 0 0.041 0.001 0.062 0.002l-0.003-0c0.005-0 0.011-0 0.017-0 0.189 0 0.361 0.073 0.489 0.193l-0-0c0.135 0.15 0.26 0.315 0.369 0.491l0.009 0.015c0.115 0.237 0.204 0.513 0.254 0.801l0.003 0.019c0.043 0.275 0.068 0.591 0.068 0.914 0 0.080-0.002 0.159-0.005 0.238l0-0.011c-0.003 0.34-0.045 0.669-0.121 0.984l0.006-0.029zM54.588 12.864c-0.25-0.181-0.548-0.313-0.87-0.376l-0.014-0.002c-0.383-0.077-0.825-0.124-1.278-0.128l-0.003-0c-0.908 0.017-1.752 0.274-2.476 0.711l0.022-0.012 0.442 0.698c0.543-0.472 1.245-0.775 2.015-0.82l0.009-0c0.018-0.001 0.038-0.002 0.059-0.002 0.115 0 0.225 0.024 0.324 0.068l-0.005-0.002c0.064 0 0.192 0.128 0.256 0.192l0.192 0.378c0.042 0.143 0.066 0.308 0.066 0.478 0 0.033-0.001 0.065-0.003 0.097l0-0.004v0.698l-0.256 0.064c-0.256 0.064-0.57 0.192-0.82 0.256s-0.57 0.192-0.82 0.314c-0.311 0.135-0.561 0.262-0.804 0.4l0.042-0.022c-0.222 0.116-0.411 0.264-0.568 0.44l-0.002 0.002c-0.141 0.166-0.267 0.353-0.37 0.554l-0.008 0.017c-0.080 0.206-0.126 0.445-0.126 0.695s0.046 0.489 0.131 0.709l-0.005-0.014c0.051 0.238 0.187 0.437 0.375 0.568l0.003 0.002c0.167 0.182 0.386 0.315 0.632 0.376l0.009 0.002c0.244 0.074 0.525 0.121 0.816 0.128l0.004 0c0.027 0.002 0.059 0.002 0.092 0.002 0.17 0 0.335-0.024 0.491-0.070l-0.012 0.003c0.164-0.005 0.316-0.052 0.446-0.13l-0.004 0.002 0.378-0.192c0.064-0.064 0.192-0.128 0.314-0.256v0.506h2.024v-4.997c-0.003-0.279-0.074-0.541-0.197-0.771l0.004 0.009c-0.135-0.224-0.304-0.413-0.502-0.567l-0.005-0.003zM53.172 17.765l-0.57 0.378c-0.148 0.069-0.32 0.114-0.501 0.128l-0.005 0c-0.128 0-0.192 0-0.256-0.064s-0.128-0.064-0.192-0.192-0.064-0.192-0.128-0.314c-0.042-0.094-0.066-0.204-0.066-0.319 0-0.021 0.001-0.041 0.002-0.062l-0 0.003c-0.002-0.020-0.004-0.043-0.004-0.066 0-0.143 0.050-0.274 0.133-0.377l-0.001 0.001c0.073-0.19 0.205-0.343 0.374-0.44l0.004-0.002 0.57-0.378c0.165-0.121 0.352-0.227 0.553-0.308l0.017-0.006h0.070zM38.066 12.601v6.515h2.024v-6.893h-1.582c-0.314 0-0.442 0.128-0.442 0.378zM61.968 12.358l-1.839 4.126-2.088-4.126h-2.21l3.293 6.329c-0.060 0.355-0.169 0.674-0.322 0.966l0.008-0.018c-0.506 0.641-2.153 0.57-2.153 0.57l0.064 1.204h1.32c1.39 0 1.922-1.326 2.024-1.582l3.357-7.47zM40.097 10.366c0 0.495-0.453 0.897-1.012 0.897s-1.012-0.402-1.012-0.897c0-0.495 0.453-0.897 1.012-0.897s1.012 0.402 1.012 0.897z"></path>
</svg>
