<svg version="1.1" xmlns="http://www.w3.org/2000/svg" width="64" height="32" viewBox="0 0 64 32">
<path d="M16.656 30.577v-15.964h1.48l0.333-0.814h0.75l0.333 0.814h2.87v-0.641l0.256 0.641h1.505l0.269-0.641v0.641h7.245v-1.332h0.135c0.122 0 0.135 0.096 0.135 0.186v1.147h3.722v-0.307c0.865 0.455 2.056 0.307 2.96 0.307l0.333-0.814h0.737l0.333 0.814h3.030v-0.775l0.48 0.775h2.428v-5.042h-2.428v0.589l-0.333-0.589h-2.454v0.589l-0.307-0.589h-3.312c-0.043-0.002-0.093-0.003-0.144-0.003-0.477 0-0.927 0.11-1.329 0.306l0.018-0.008v-0.295h-2.306v0.295c-0.237-0.186-0.539-0.299-0.868-0.299-0.037 0-0.074 0.001-0.111 0.004l0.005-0h-8.386l-0.577 1.281-0.577-1.281h-2.639v0.589l-0.295-0.589h-2.255l-1.038 2.39v-12.133h30.75v15.964h-1.602c-0.026-0.001-0.057-0.002-0.089-0.002-0.37 0-0.714 0.111-1.001 0.301l0.007-0.004v-0.295h-2.358c-0.033-0.002-0.072-0.004-0.111-0.004-0.348 0-0.67 0.112-0.932 0.302l0.005-0.003v-0.295h-4.222v0.295c-0.307-0.186-0.678-0.296-1.074-0.296-0.030 0-0.060 0.001-0.090 0.002l0.004-0h-2.793v0.295c-0.293-0.19-0.651-0.303-1.036-0.303-0.064 0-0.127 0.003-0.189 0.009l0.008-0.001h-3.107l-0.718 0.775-0.641-0.775h-4.702v5.042h4.58l0.737-0.788 0.692 0.788h2.819v-1.185h0.282c0.050 0.003 0.108 0.004 0.166 0.004 0.37 0 0.725-0.065 1.053-0.184l-0.022 0.007v1.365h2.319v-1.326h0.109c0.135 0 0.16 0 0.16 0.16v1.16h7.047c0.025 0.001 0.055 0.002 0.084 0.002 0.405 0 0.781-0.12 1.096-0.327l-0.008 0.005v0.32h2.242c0.044 0.002 0.096 0.004 0.147 0.004 0.409 0 0.799-0.084 1.153-0.235l-0.019 0.007v9.968zM25.984 13.921h-0.878v-2.857l-1.281 2.832h-0.762l-1.281-2.832v2.857h-1.71l-0.333-0.801h-1.8l-0.333 0.801h-0.948l1.55-3.62h1.281l1.467 3.427v-3.453h1.416l1.134 2.454 1.025-2.454h1.441zM19.43 12.345l-0.602-1.441-0.589 1.441zM30.833 18.912v1.217h-1.685l-1.070-1.198-1.108 1.198h-3.415v-3.645h3.472l1.070 1.185 1.089-1.185h2.761c0.814 0 1.454 0.282 1.454 1.185 0.006 1.486-1.582 1.243-2.569 1.243zM27.547 18.309l-0.961-1.051h-2.178v0.641h1.922v0.737h-1.922v0.73h2.12zM29.52 13.921h-2.896v-3.645h2.896v0.762h-2.024v0.641h1.973v0.737h-1.973v0.724h2.031zM29.962 19.821v-2.921l-1.32 1.429zM32.979 12.255c0.493 0.173 0.577 0.48 0.577 0.961v0.705h-0.884c0-0.775 0.186-1.281-0.775-1.281h-0.922v1.281h-0.865v-3.645h2.044c0.692 0 1.429 0.109 1.429 0.961 0.001 0.012 0.001 0.026 0.001 0.040 0 0.417-0.244 0.776-0.597 0.944l-0.006 0.003zM31.954 17.284h-1.121v0.922h1.108c0.307 0 0.545-0.147 0.545-0.48s-0.243-0.468-0.538-0.468zM32.076 11.064h-1.102v0.801h1.057c0.295 0 0.577-0.064 0.577-0.416s-0.269-0.41-0.538-0.41zM36.682 18.47c0.48 0.173 0.577 0.493 0.577 0.961v0.724h-0.878v-0.602c0-0.641-0.199-0.724-0.775-0.724h-0.916v1.32h-0.871v-3.664h2.056c0.679 0 1.416 0.122 1.416 0.974 0.001 0.015 0.001 0.033 0.001 0.051 0 0.417-0.251 0.776-0.61 0.933l-0.007 0.003zM34.965 13.921h-0.878v-3.645h0.878zM35.779 17.284h-1.089v0.814h1.083c0.295 0 0.577-0.064 0.577-0.429s-0.301-0.41-0.57-0.41zM45.203 13.921h-1.224l-1.634-2.735v2.735h-1.762l-0.346-0.801h-1.8l-0.32 0.801h-0.999c-1.185 0-1.723-0.641-1.723-1.775s0.545-1.845 1.775-1.845h0.839v0.788c-0.91 0-1.736-0.211-1.736 1.025 0 0.641 0.147 1.038 0.839 1.038h0.384l1.23-2.844h1.281l1.454 3.415v-3.434h1.32l1.525 2.511v-2.511h0.878zM40.654 20.154h-2.857v-3.671h2.883v0.75h-2.044v0.641h1.98v0.737h-1.98v0.756h2.018zM39.949 12.371l-0.589-1.441-0.602 1.441zM42.858 20.129h-1.685v-0.775h1.685c0.211 0 0.455-0.051 0.455-0.333 0-0.775-2.229 0.295-2.229-1.429-0-0.009-0-0.021-0-0.032 0-0.598 0.485-1.083 1.083-1.083 0.041 0 0.081 0.002 0.121 0.007l-0.005-0h1.736v0.762h-1.563c-0.224 0-0.48 0.038-0.48 0.333 0 0.788 2.242-0.359 2.242 1.377-0.013 0.878-0.589 1.172-1.358 1.172zM47.406 19.687c-0.253 0.291-0.624 0.474-1.037 0.474-0.048 0-0.095-0.002-0.141-0.007l0.006 0h-1.666v-0.801h1.666c0.211 0 0.442-0.064 0.442-0.333 0-0.762-2.229 0.295-2.229-1.429-0-0.007-0-0.014-0-0.022 0-0.605 0.49-1.095 1.095-1.095 0.050 0 0.099 0.003 0.147 0.010l-0.006-0.001h1.723v0.762h-1.576c-0.243 0-0.48 0.038-0.48 0.333 0 0.641 1.505 0 2.056 0.705z"></path>
</svg>
