<svg version="1.1" xmlns="http://www.w3.org/2000/svg" width="64" height="32" viewBox="0 0 64 32">
<path d="M27.291 19.277c-0.147 0.077-0.322 0.122-0.507 0.122-0.006 0-0.013-0-0.020-0h0.001c-0 0-0 0-0 0-0.433 0-0.809-0.241-1.002-0.596l-0.003-0.006-0.083-0.16-3.203-6.938c-0.026-0.059-0.040-0.127-0.040-0.199 0-0.016 0.001-0.031 0.002-0.046l-0 0.002c-0-0.004-0-0.008-0-0.013 0-0.3 0.239-0.544 0.538-0.551h0.001c0.137 0.002 0.264 0.048 0.367 0.123l-0.002-0.001 3.754 2.665c0.276 0.171 0.609 0.275 0.965 0.282l0.002 0c0.218-0.002 0.424-0.046 0.613-0.126l-0.011 0.004 17.636-7.835c-3.19-3.754-8.392-6.176-14.267-6.176-9.609 0-17.412 6.496-17.412 14.529 0 4.356 2.338 8.328 6.015 10.98 0.292 0.19 0.482 0.514 0.482 0.883 0 0.143-0.029 0.28-0.081 0.405l0.003-0.007c-0.282 1.089-0.769 2.864-0.769 2.947-0.048 0.131-0.078 0.282-0.083 0.44l-0 0.002c-0 0.004-0 0.008-0 0.013 0 0.3 0.239 0.544 0.538 0.551h0.001c0.002 0 0.005 0 0.008 0 0.121 0 0.23-0.046 0.313-0.122l-0 0 3.793-2.223c0.265-0.165 0.584-0.268 0.925-0.282l0.004-0c0.19 0.009 0.37 0.039 0.542 0.087l-0.017-0.004c1.699 0.516 3.653 0.814 5.675 0.814 0.023 0 0.045-0 0.068-0h-0.004c9.609 0 17.431-6.496 17.431-14.529-0.025-2.502-0.767-4.827-2.029-6.783l0.030 0.050-20.052 11.621z"></path>
</svg>
