<!-- Generated by IcoMoon.io -->
<svg version="1.1" xmlns="http://www.w3.org/2000/svg" width="64" height="32" viewBox="0 0 64 32">
<path d="M18.155 15.202h15.266q0 6.323-3.703 9.404-3.703 2.928-11.41 2.928-8.014 0-11.531-2.928-3.575-3.088-3.575-9.404 0-6.163 2.774-8.789 3.703-3.543 12.332-3.543 8.014 0 11.871 3.235 3.081 2.627 3.081 8.014h-15.106zM55.619 14.126h-21.275v-10.801h20.814c0.003 0 0.008 0 0.012 0 1.484 0 2.822 0.624 3.766 1.625l0.002 0.003c0.999 0.946 1.621 2.281 1.621 3.762 0 0.006 0 0.012-0 0.019v-0.001c0.001 0.033 0.001 0.071 0.001 0.109 0 1.386-0.529 2.649-1.395 3.598l0.004-0.004c-0.882 0.984-2.136 1.619-3.538 1.684l-0.011 0zM55.465 15.202c1.506 0.115 2.832 0.804 3.775 1.847l0.004 0.005c1 1.041 1.616 2.458 1.616 4.018 0 0.049-0.001 0.098-0.002 0.146l0-0.007c0.001 0.029 0.001 0.063 0.001 0.097 0 1.504-0.621 2.863-1.62 3.835l-0.001 0.001c-0.963 1.010-2.286 1.669-3.761 1.773l-0.018 0.001h-21.141v-11.717z"></path>
</svg>
