<svg version="1.1" xmlns="http://www.w3.org/2000/svg" width="64" height="32" viewBox="0 0 64 32">
<path d="M25.913 5.76h5.080l-3.178 18.649h-5.087l3.184-18.649zM46.272 6.362c-1.318-0.487-2.84-0.769-4.428-0.769-0.045 0-0.089 0-0.134 0.001l0.007-0c-5.023 0-8.559 2.53-8.591 6.156 0 2.678 2.524 4.177 4.484 5.067s2.646 1.499 2.633 2.313c0 1.281-1.582 1.819-3.043 1.819-0.093 0.003-0.202 0.005-0.312 0.005-1.623 0-3.162-0.363-4.538-1.012l0.065 0.028-0.641-0.295-0.711 4.177c1.63 0.609 3.513 0.962 5.479 0.962 0.049 0 0.098-0 0.146-0.001l-0.007 0c5.343 0 8.809-2.498 8.853-6.374 0-2.12-1.333-3.735-4.267-5.067-1.775-0.865-2.864-1.441-2.851-2.313 0-0.775 0.922-1.602 2.908-1.602 0.060-0.001 0.131-0.002 0.202-0.002 1.3 0 2.539 0.265 3.664 0.743l-0.061-0.023 0.455 0.218 0.692-4.042zM59.309 5.92h-3.927c-1.217 0-2.127 0.333-2.659 1.544l-7.553 17.092h5.336s0.871-2.306 1.070-2.8h6.509c0.154 0.641 0.641 2.793 0.641 2.793h4.696l-4.113-18.629zM53.037 17.938c0.423-1.070 2.056-5.208 2.056-5.208s0.416-1.083 0.673-1.781l0.346 1.608 1.179 5.388h-4.254zM18.495 5.913l-4.978 12.716-0.532-2.563c-0.929-2.979-3.844-6.208-7.047-7.822l4.548 16.31h5.375l8.014-18.642h-5.381zM8.905 5.907h-8.2l-0.064 0.391c6.406 1.544 10.596 5.272 12.345 9.757l-1.781-8.578c-0.307-1.179-1.198-1.531-2.306-1.576zM6.15 8.931c-0.062-0.378-0.304-0.688-0.634-0.843l-0.007-0.003 1.537 0.711z"></path>
</svg>
