<svg version="1.1" xmlns="http://www.w3.org/2000/svg" width="64" height="32" viewBox="0 0 64 32">
<path d="M11.531 30.577v-10.769h0.122c0.708 0.176 1.594 0.336 2.496 0.444l0.111 0.011c0.746 0.093 1.609 0.147 2.485 0.147 0.253 0 0.504-0.004 0.755-0.013l-0.036 0.001c1.15-0.004 2.251-0.212 3.268-0.591l-0.065 0.021c0.675-0.246 1.244-0.644 1.687-1.155l0.004-0.005c0.379-0.47 0.633-1.055 0.703-1.696l0.001-0.015c0.041-0.317 0.064-0.684 0.064-1.056 0-0 0-0.001 0-0.001v0c0-1.794 0-3.581 0-5.375 0-0.083 0-0.167 0-0.25h-4.414c0 0.083 0 0.154 0 0.224q0 2.857 0 5.714c0.001 0.022 0.001 0.049 0.001 0.075 0 0.568-0.188 1.092-0.505 1.513l0.005-0.006c-0.358 0.451-0.869 0.769-1.452 0.875l-0.015 0.002c-0.259 0.049-0.557 0.076-0.861 0.076-0.195 0-0.388-0.011-0.578-0.034l0.023 0.002c-1.375-0.142-2.632-0.527-3.769-1.11l0.060 0.028-0.090-0.038v-0.167q0-6.22 0-12.441c-0-0.010-0-0.022-0-0.035 0-2.255 1.457-4.171 3.481-4.856l0.036-0.011c0.539-0.17 1.16-0.267 1.803-0.267 0.085 0 0.169 0.002 0.253 0.005l-0.012-0h7.066v0.218q0 12.659 0 25.318c0 0.027 0.001 0.058 0.001 0.090 0 1.24-0.446 2.375-1.186 3.256l0.006-0.008c-0.753 0.916-1.812 1.556-3.020 1.764l-0.030 0.004c-0.276 0.049-0.593 0.077-0.917 0.077-0.011 0-0.022-0-0.033-0h-7.449zM25.74 18.796h0.051c0.791 0.615 1.743 1.063 2.782 1.274l0.044 0.007c0.951 0.209 2.044 0.328 3.165 0.328 0.171 0 0.342-0.003 0.512-0.008l-0.025 0.001c1.202-0.020 2.362-0.147 3.486-0.373l-0.122 0.021 1.108-0.231 0.199-0.051v-2.146l-0.205 0.090c-0.738 0.373-1.595 0.676-2.493 0.866l-0.069 0.012c-0.491 0.106-1.055 0.167-1.634 0.167-0.162 0-0.323-0.005-0.483-0.014l0.022 0.001c-0.641-0.031-1.236-0.198-1.766-0.473l0.024 0.011c-0.736-0.386-1.281-1.050-1.501-1.85l-0.005-0.021c-0.111-0.362-0.176-0.779-0.176-1.211s0.064-0.848 0.184-1.241l-0.008 0.030c0.289-1.002 1.054-1.778 2.029-2.076l0.021-0.006c0.492-0.163 1.058-0.257 1.645-0.257 0.165 0 0.328 0.007 0.489 0.022l-0.021-0.002c1.419 0.101 2.727 0.485 3.899 1.096l-0.055-0.026 0.096 0.045h0.045v-2.159c-0.179-0.045-0.352-0.096-0.538-0.128-0.788-0.135-1.57-0.288-2.364-0.391-0.621-0.080-1.339-0.125-2.067-0.125-0.35 0-0.698 0.010-1.043 0.031l0.047-0.002c-0.903 0.037-1.758 0.156-2.584 0.351l0.092-0.018c-0.914 0.2-1.721 0.553-2.433 1.034l0.025-0.016-0.384 0.282v-0.141c0-2.172 0-4.337 0-6.509-0-0.011-0-0.024-0-0.037 0-2.179 1.36-4.040 3.277-4.782l0.035-0.012c0.545-0.211 1.176-0.333 1.835-0.333 0.012 0 0.025 0 0.037 0h7.417c0 0.051 0 0.090 0 0.128s0 0.083 0 0.128q0 12.607 0 25.209c0.001 0.043 0.002 0.093 0.002 0.144 0 0.755-0.161 1.472-0.451 2.119l0.013-0.033c-0.682 1.547-2.073 2.671-3.749 2.968l-0.031 0.004c-0.239 0.049-0.515 0.079-0.797 0.083l-0.003 0h-7.572zM39.917 10.27c0-0.070 0-0.128 0-0.186 0-1.678 0-3.357 0-5.029-0.001-0.034-0.001-0.073-0.001-0.113 0-1.529 0.678-2.9 1.75-3.828l0.006-0.005c0.721-0.652 1.645-1.092 2.667-1.215l0.023-0.002c0.243-0.035 0.529-0.059 0.82-0.064l0.007-0h7.342c0 0.083 0 0.147 0 0.211q0 12.659 0 25.324c0.001 0.033 0.001 0.071 0.001 0.11 0 1.529-0.684 2.898-1.762 3.818l-0.007 0.006c-0.697 0.63-1.587 1.058-2.57 1.189l-0.024 0.003c-0.284 0.040-0.613 0.063-0.947 0.064h-7.298v-10.41h7.796c0.039 0.001 0.084 0.002 0.13 0.002 0.599 0 1.171-0.116 1.694-0.327l-0.031 0.011c0.496-0.197 0.907-0.519 1.205-0.928l0.005-0.008c0.268-0.368 0.429-0.83 0.429-1.329 0-0.774-0.387-1.459-0.979-1.869l-0.007-0.005c-0.428-0.297-0.939-0.507-1.491-0.593l-0.021-0.003c-0.141 0-0.282-0.038-0.423-0.070 0.366-0.074 0.69-0.182 0.994-0.325l-0.026 0.011c0.673-0.312 1.159-0.931 1.28-1.672l0.002-0.013c0.026-0.125 0.040-0.269 0.040-0.416 0-0.81-0.446-1.516-1.106-1.885l-0.011-0.006c-0.436-0.258-0.955-0.423-1.509-0.454l-0.009-0q-0.583-0.038-1.172-0.038h-6.797zM42.429 18.514v-2.671h2.953c0.005-0 0.012-0 0.018-0 0.739 0 1.339 0.599 1.339 1.339 0 0.609-0.407 1.123-0.963 1.285l-0.009 0.002c-0.129 0.032-0.277 0.051-0.429 0.051h-2.909zM42.435 14.267v-2.428h2.671c0.018-0.001 0.039-0.001 0.061-0.001 0.326 0 0.624 0.122 0.85 0.323l-0.001-0.001c0.238 0.233 0.386 0.557 0.386 0.916 0 0.151-0.026 0.297-0.075 0.432l0.003-0.009c-0.158 0.449-0.572 0.767-1.062 0.781l-0.002 0c-0.916 0-1.839 0-2.755 0z"></path>
</svg>
