<!-- Generated by IcoMoon.io -->
<svg version="1.1" xmlns="http://www.w3.org/2000/svg" width="64" height="32" viewBox="0 0 64 32">
<path d="M26.868 28.86h-26.227v-0.064c0-0.032 0.045-0.263 0.096-0.5l0.179-0.852 0.173-0.858 0.192-0.897 0.167-0.878 0.173-0.858 0.186-0.903 0.179-0.89c0.045-0.224 0.115-0.577 0.16-0.775s0.096-0.474 0.122-0.602 0.103-0.519 0.173-0.858 0.147-0.724 0.173-0.858 0.103-0.519 0.173-0.858 0.147-0.724 0.173-0.858 0.103-0.519 0.173-0.858 0.147-0.717 0.173-0.839 0.083-0.436 0.141-0.698l0.224-1.095c0.070-0.34 0.192-0.935 0.269-1.32l0.205-1.019 0.141-0.698 0.199-0.839 0.192-0.922 0.179-0.871 0.173-0.839 0.192-0.923c0.058-0.269 0.147-0.685 0.205-0.923s0.141-0.519 0.179-0.641c0.088-0.225 0.172-0.406 0.265-0.582l-0.015 0.032 0.179-0.34 0.167-0.218c0.090-0.115 0.25-0.308 0.359-0.416s0.288-0.275 0.404-0.372l0.365-0.275c0.090-0.058 0.256-0.167 0.378-0.231l0.378-0.199 0.397-0.167 0.557-0.186c0.173-0.051 0.5-0.135 0.73-0.179s0.583-0.103 0.794-0.135l0.384-0.051h52.531v0.064c0 0.032-0.045 0.263-0.096 0.5l-0.243 0.922-0.173 0.839-0.186 0.846-0.186 0.923-0.346 1.717-0.173 0.801-0.179 0.871-0.192 0.922-0.173 0.839-0.179 0.871-0.192 0.922-0.173 0.826-0.179 0.871-0.167 0.922-0.173 0.826-0.192 0.935-0.173 0.801-0.173 0.839-0.186 0.922-0.167 0.884-0.179 0.871-0.186 0.922-0.173 0.839-0.173 0.858c-0.051 0.263-0.141 0.673-0.192 0.916l-0.096 0.442-0.115 0.308c-0.064 0.167-0.154 0.391-0.211 0.493s-0.16 0.288-0.237 0.41-0.186 0.275-0.243 0.346-0.218 0.243-0.365 0.391l-0.269 0.269-0.256 0.186-0.34 0.231-0.378 0.192c-0.167 0.083-0.397 0.186-0.513 0.231s-0.352 0.122-0.525 0.173l-0.404 0.109-0.404 0.083c-0.173 0.038-0.513 0.090-0.762 0.122l-0.455 0.051zM17.534 22.076h0.685v-0.051c0.003-0.022 0.005-0.048 0.005-0.074s-0.002-0.052-0.006-0.076l0 0.003c0-0.051 0-0.237 0.051-0.416l0.141-0.91 0.173-1.076c0.045-0.269 0.096-0.641 0.115-0.769 0.008-0.101 0.029-0.195 0.060-0.283l-0.002 0.008c0.038 0.042 0.071 0.091 0.095 0.144l0.001 0.003 0.077 0.147 0.346 0.359 0.436 0.179 0.512 0.064h0.653l0.705-0.179 0.192-0.090c0.162-0.079 0.296-0.156 0.425-0.24l-0.015 0.009 0.224-0.147 0.205-0.205c0.124-0.125 0.242-0.256 0.351-0.394l0.007-0.010c0.051-0.064 0.099-0.135 0.143-0.209l0.005-0.009c0.028-0.056 0.057-0.105 0.091-0.15l-0.002 0.002c0.076-0.125 0.151-0.272 0.215-0.425l0.009-0.023c0.077-0.173 0.192-0.487 0.256-0.698l0.122-0.378 0.064-0.327c0.032-0.179 0.077-0.48 0.102-0.641l0.038-0.34v-0.577l-0.128-0.577-0.109-0.211-0.077-0.295-0.41-0.436-0.487-0.256-0.538-0.128h-0.538l-0.602 0.064-0.487 0.128-0.211 0.096c-0.151 0.071-0.275 0.14-0.394 0.214l0.016-0.009c-0.081 0.049-0.15 0.097-0.215 0.15l0.004-0.003-0.128 0.096-0.083 0.058 0.058-0.282c0.032-0.154 0.058-0.295 0.058-0.32v-0.038h-1.166l-0.102 0.641c-0.058 0.352-0.147 0.897-0.199 1.217l-0.173 1.044-0.199 1.031c-0.051 0.308-0.135 0.788-0.192 1.076l-0.173 0.935-0.173 0.955-0.192 1.051c-0.051 0.282-0.141 0.724-0.192 0.987s-0.102 0.506-0.109 0.545v0.070zM20.5 18.405h-0.609l-0.346-0.167-0.243-0.231-0.083-0.205c-0.039-0.090-0.077-0.199-0.106-0.311l-0.003-0.015-0.038-0.173v-0.551l0.083-0.429c0.045-0.237 0.128-0.679 0.179-0.987s0.135-0.756 0.179-0.993l0.083-0.442 0.179-0.154c0.104-0.086 0.219-0.168 0.339-0.242l0.013-0.007 0.173-0.096 0.199-0.058 0.224-0.070h0.577l0.461 0.102 0.333 0.154 0.135 0.141 0.141 0.141 0.077 0.147c0.048 0.099 0.091 0.216 0.125 0.337l0.003 0.015 0.051 0.205v1.204l-0.083 0.359c-0.045 0.199-0.128 0.493-0.192 0.641l-0.109 0.308-0.135 0.25c-0.087 0.164-0.17 0.3-0.26 0.431l0.010-0.015c-0.071 0.095-0.146 0.179-0.229 0.255l-0.001 0.001-0.224 0.179-0.115 0.090-0.538 0.179zM27.092 19.277h0.698l0.698-0.083c0.192 0 0.525-0.090 0.737-0.135l0.391-0.083v-0.141c0-0.077 0.051-0.314 0.096-0.519l0.077-0.378-0.122 0.058c-0.064 0-0.269 0.109-0.448 0.167l-0.333 0.109-0.705 0.141h-1.147l-0.192-0.058c-0.136-0.045-0.249-0.090-0.357-0.142l0.018 0.008-0.154-0.077-0.256-0.231-0.192-0.346-0.128-0.423v-0.865l0.051-0.352 0.058-0.352h4.497l0.051-0.224c0-0.122 0.077-0.384 0.102-0.57l0.045-0.346v-0.583l-0.102-0.436-0.083-0.135c-0.058-0.097-0.117-0.181-0.182-0.26l0.003 0.003c-0.064-0.071-0.133-0.134-0.208-0.19l-0.004-0.003-0.269-0.192-0.16-0.083-0.551-0.128-0.679-0.064h-0.641l-0.756 0.141-0.237 0.096c-0.178 0.074-0.324 0.144-0.464 0.223l0.022-0.011c-0.133 0.077-0.246 0.153-0.353 0.236l0.007-0.005c-0.077 0.064-0.218 0.186-0.301 0.275-0.102 0.106-0.197 0.221-0.282 0.343l-0.006 0.009c-0.077 0.113-0.157 0.247-0.231 0.385l-0.012 0.025c-0.064 0.122-0.141 0.295-0.179 0.378s-0.102 0.263-0.147 0.397-0.115 0.378-0.154 0.557-0.096 0.461-0.128 0.641l-0.051 0.32v0.942l0.051 0.205c0.039 0.156 0.078 0.282 0.124 0.405l-0.009-0.027c0.048 0.127 0.098 0.232 0.154 0.333l-0.007-0.013c0.065 0.106 0.135 0.198 0.213 0.283l-0.001-0.001c0.088 0.091 0.182 0.175 0.282 0.252l0.006 0.005c0.1 0.073 0.213 0.141 0.332 0.199l0.013 0.006 0.186 0.083 0.263 0.064c0.141 0.032 0.359 0.077 0.48 0.090s0.359 0.077 0.551 0.077zM27.688 14.792c-0.878 0-1.595 0-1.595 0s0.038-0.115 0.083-0.243 0.128-0.32 0.179-0.423l0.096-0.192 0.423-0.423 0.205-0.096c0.092-0.047 0.202-0.093 0.316-0.13l0.017-0.005c0.127-0.025 0.279-0.043 0.434-0.051l0.008-0h0.807l0.359 0.167 0.096 0.102c0.051 0.055 0.098 0.116 0.138 0.181l0.003 0.005 0.045 0.083v0.372l-0.064 0.615zM37.182 19.277h0.352l0.397-0.045c0.218 0 0.506-0.070 0.641-0.096l0.493-0.115c0.105-0.026 0.194-0.057 0.28-0.094l-0.011 0.004c0.036-0.092 0.065-0.2 0.082-0.312l0.001-0.008c0.032-0.167 0.070-0.384 0.090-0.487 0.004-0.031 0.006-0.066 0.006-0.102s-0.002-0.072-0.007-0.107l0 0.004s0 0-0.051 0c-0.094 0.050-0.209 0.099-0.327 0.141l-0.019 0.006-0.307 0.115-0.871 0.167h-0.743l-0.423-0.141-0.32-0.282-0.218-0.397-0.102-0.525v-0.692l0.128-0.82 0.064-0.224 0.090-0.32c0.045-0.137 0.088-0.247 0.137-0.355l-0.009 0.022c0.058-0.128 0.16-0.333 0.224-0.448l0.122-0.211 0.307-0.307 0.32-0.192 0.205-0.064c0.118-0.037 0.267-0.073 0.419-0.099l0.023-0.003 0.237-0.038h0.346l0.34 0.032 0.82 0.167 0.167 0.064 0.179 0.064c0.020-0.072 0.038-0.161 0.050-0.252l0.001-0.011c0-0.141 0.064-0.378 0.090-0.525 0.020-0.085 0.032-0.182 0.032-0.282v-0c-0.079-0.020-0.173-0.036-0.269-0.044l-0.006-0-0.871-0.064-0.609-0.032-0.858 0.064-0.641 0.128-0.205 0.083c-0.144 0.059-0.264 0.119-0.379 0.187l0.014-0.008-0.25 0.16c-0.121 0.099-0.23 0.197-0.333 0.301l-0 0-0.243 0.237-0.135 0.199c-0.093 0.14-0.188 0.306-0.275 0.477l-0.013 0.029-0.109 0.34-0.115 0.333c-0.064 0.186-0.154 0.48-0.199 0.641l-0.083 0.333v1.858l0.192 0.474 0.218 0.346 0.346 0.346 0.372 0.192 0.243 0.070c0.111 0.033 0.256 0.066 0.403 0.092l0.026 0.004c0.080 0.004 0.174 0.007 0.269 0.007s0.189-0.003 0.282-0.007l-0.013 0.001zM42.403 19.277h0.429l0.538-0.141 0.173-0.083c0.136-0.068 0.249-0.134 0.358-0.206l-0.012 0.008c0.124-0.086 0.233-0.174 0.334-0.27l-0.001 0.001c0.098-0.099 0.19-0.203 0.276-0.313l0.006-0.008c0.039-0.061 0.084-0.113 0.134-0.16l0.001-0c-0.007 0.121-0.021 0.233-0.041 0.343l0.003-0.016c-0.022 0.148-0.038 0.325-0.045 0.504l-0 0.008v0.199h1.166v-0.91l0.083-0.589c0.045-0.32 0.122-0.801 0.167-1.063s0.154-0.737 0.154-0.999l0.179-0.967 0.083-0.461v-0.794l-0.179-0.372-0.083-0.109-0.122-0.115-0.205-0.122-0.199-0.102-0.602-0.128h-0.82l-0.532 0.032c-0.288 0-0.698 0.051-0.91 0.077l-0.378 0.045h-0.519l-0.038 0.186c0 0.102-0.077 0.34-0.128 0.532-0.031 0.098-0.060 0.219-0.081 0.342l-0.002 0.016c0.118-0.018 0.222-0.043 0.322-0.075l-0.015 0.004c0.167-0.045 0.513-0.115 0.775-0.16l0.474-0.083 0.416-0.045h0.429l0.551 0.102 0.372 0.179 0.205 0.307v0.487l-0.115 0.538h-2.261l-0.372 0.102c-0.203 0.053-0.371 0.11-0.535 0.177l0.029-0.010c-0.046 0.025-0.099 0.047-0.155 0.063l-0.005 0.001c-0.104 0.048-0.192 0.1-0.275 0.158l0.006-0.004-0.243 0.154-0.192 0.192c-0.107 0.107-0.206 0.222-0.295 0.344l-0.006 0.008c-0.073 0.114-0.143 0.246-0.204 0.384l-0.008 0.019-0.102 0.243-0.102 0.551v0.583l0.090 0.487 0.083 0.16c0.061 0.107 0.124 0.199 0.195 0.285l-0.003-0.004 0.109 0.122 0.384 0.231 0.218 0.064c0.122 0.032 0.301 0.077 0.404 0.090h0.615zM42.775 18.405h-0.256l-0.167-0.045c-0.121-0.032-0.225-0.072-0.325-0.12l0.011 0.005-0.141-0.077-0.077-0.096c-0.052-0.065-0.101-0.139-0.143-0.216l-0.004-0.008-0.070-0.128v-0.615l0.051-0.186c0.049-0.155 0.101-0.284 0.162-0.409l-0.008 0.018 0.102-0.205 0.384-0.384 0.179-0.096 0.205-0.096 0.513-0.115h1.691l-0.038 0.275c0 0.135-0.077 0.384-0.122 0.551s-0.122 0.41-0.173 0.545-0.096 0.25-0.096 0.263c-0.038 0.083-0.076 0.152-0.119 0.218l0.004-0.007-0.115 0.192-0.192 0.186c-0.065 0.069-0.136 0.13-0.213 0.183l-0.004 0.003c-0.054 0.021-0.1 0.047-0.143 0.078l0.002-0.001-0.115 0.077-0.513 0.167zM53.108 19.302h0.301l0.288-0.045c0.16 0 0.359-0.064 0.442-0.090 0.135-0.043 0.25-0.091 0.359-0.147l-0.013 0.006 0.192-0.096 0.333-0.295 0.173-0.231c0.064-0.080 0.128-0.17 0.186-0.264l0.007-0.012v-0.045 0.16c0 0.090 0 0.231-0.045 0.32s-0.038 0.256-0.051 0.372v0.211h1.224v-0.429l0.096-0.807c0.051-0.442 0.128-1.038 0.173-1.32s0.109-0.679 0.147-0.89l0.147-0.839c0.045-0.256 0.122-0.698 0.173-0.987l0.186-1.019 0.173-0.935 0.179-0.955c0.051-0.282 0.135-0.641 0.173-0.871s0.077-0.378 0.077-0.391v0h-1.358v0.199c0 0.109-0.064 0.468-0.115 0.801s-0.141 0.858-0.192 1.172l-0.109 0.679v0.109h-0.051l-0.352-0.096-0.301-0.077-0.455-0.102-0.41-0.032-0.698 0.064-0.641 0.167-0.602 0.295-0.448 0.333-0.192 0.205c-0.116 0.126-0.227 0.261-0.33 0.403l-0.009 0.013-0.147 0.211-0.173 0.359c-0.096 0.199-0.211 0.461-0.256 0.583s-0.128 0.391-0.179 0.602l-0.096 0.378-0.045 0.512-0.045 0.493 0.077 0.794 0.045 0.141c0 0.077 0.070 0.218 0.109 0.314l0.064 0.167 0.243 0.333 0.282 0.231 0.192 0.096c0.108 0.053 0.238 0.103 0.372 0.143l0.019 0.005c0.106 0.031 0.241 0.060 0.377 0.081l0.020 0.003c0.096-0.019 0.32-0.006 0.487-0.006zM53.646 18.405h-0.397c-0.12-0.025-0.225-0.058-0.325-0.1l0.012 0.004-0.154-0.064-0.256-0.218-0.192-0.372-0.090-0.41v-0.871l0.102-0.73 0.077-0.256c0.027-0.078 0.053-0.177 0.074-0.278l0.003-0.017c0.028-0.099 0.060-0.184 0.1-0.265l-0.004 0.009c0.051-0.115 0.141-0.301 0.192-0.404 0.075-0.142 0.15-0.261 0.231-0.375l-0.007 0.010c0.089-0.118 0.179-0.223 0.276-0.321l-0 0c0.088-0.082 0.184-0.158 0.287-0.226l0.008-0.005 0.141-0.090 0.5-0.167h1.044l0.301 0.083 0.391 0.122 0.090 0.032v0.090l-0.083 0.468c-0.038 0.211-0.109 0.641-0.16 0.89l-0.173 0.935c-0.045 0.237-0.109 0.538-0.147 0.641l-0.109 0.404c-0.042 0.139-0.088 0.256-0.141 0.368l0.007-0.016c-0.062 0.128-0.124 0.235-0.192 0.337l0.006-0.010c-0.064 0.091-0.131 0.17-0.205 0.243l-0 0c-0.084 0.075-0.176 0.146-0.273 0.212l-0.009 0.006-0.173 0.115-0.5 0.167zM6.932 19.123h0.756l0.058-0.34 0.135-0.801 0.173-1.044 0.192-1.095 0.16-0.903c0.028-0.175 0.061-0.324 0.103-0.47l-0.007 0.028h4.145l-0.038 0.186-0.128 0.692-0.128 1.108-0.179 0.922c-0.045 0.218-0.128 0.673-0.186 1.019s-0.109 0.641-0.109 0.641v0.038h1.576l0.032-0.199c0-0.109 0.051-0.308 0.070-0.436s0.064-0.41 0.096-0.641l0.16-0.922 0.192-1.127 0.179-1.044c0.045-0.256 0.122-0.679 0.173-0.955l0.192-1.019 0.179-0.967 0.179-0.987c0.051-0.295 0.122-0.641 0.154-0.769l0.051-0.231h-1.608v0.154c0 0.083-0.051 0.314-0.083 0.519l-0.141 0.794c-0.045 0.237-0.122 0.685-0.173 0.999s-0.122 0.73-0.147 0.922l-0.051 0.352h-4.241c0.009-0.106 0.023-0.2 0.041-0.293l-0.003 0.017c0-0.147 0.077-0.404 0.109-0.57s0.096-0.493 0.141-0.73 0.096-0.525 0.109-0.641 0.051-0.327 0.077-0.455 0.077-0.391 0.115-0.589 0.070-0.384 0.083-0.41v-0.051h-1.55l-0.051 0.275c0 0.154-0.064 0.372-0.083 0.487l-0.128 0.807-0.346 2.191c-0.051 0.333-0.141 0.846-0.192 1.14l-0.173 0.935-0.173 0.922c-0.058 0.288-0.135 0.698-0.179 0.903s-0.090 0.455-0.103 0.538-0.064 0.34-0.109 0.557-0.083 0.423-0.083 0.455v0.051zM15.471 19.123h0.685v-0.051c0.003-0.024 0.005-0.052 0.005-0.080s-0.002-0.056-0.006-0.083l0 0.003c0-0.064 0.045-0.378 0.096-0.705l0.192-1.179 0.211-1.051c0.045-0.256 0.122-0.673 0.173-0.935l0.173-0.903c0.045-0.237 0.135-0.685 0.192-0.999s0.122-0.583 0.128-0.596v0h-1.365l-0.058 0.41c0 0.224-0.102 0.679-0.154 0.999l-0.179 1.095c-0.045 0.282-0.122 0.73-0.173 0.999l-0.173 0.922-0.179 0.922-0.16 0.794c-0.032 0.167-0.070 0.333-0.083 0.372v0.070zM31.436 19.123h0.679v-0.288c0-0.16 0.051-0.474 0.083-0.705l0.16-1.025c0.051-0.333 0.154-0.884 0.224-1.23s0.147-0.685 0.173-0.756c0.020-0.052 0.035-0.112 0.044-0.175l0.001-0.005c0.033-0.111 0.073-0.207 0.12-0.298l-0.004 0.009c0.085-0.181 0.171-0.332 0.265-0.476l-0.009 0.015 0.147-0.211 0.384-0.359 0.474-0.231h0.73l0.179 0.051 0.199 0.051s0-0.032 0-0.077 0.038-0.25 0.077-0.468 0.077-0.397 0.077-0.41c-0.066-0.039-0.143-0.070-0.225-0.089l-0.006-0.001c-0.107-0.034-0.239-0.065-0.374-0.087l-0.017-0.002h-0.16l-0.205 0.038c-0.147 0.026-0.274 0.060-0.397 0.102l0.019-0.006c-0.131 0.053-0.243 0.111-0.348 0.178l0.009-0.005c-0.122 0.083-0.229 0.169-0.328 0.264l0.001-0.001c-0.112 0.114-0.217 0.235-0.314 0.362l-0.007 0.009-0.211 0.288-0.045 0.064v-0.128c0-0.070 0.058-0.301 0.096-0.506s0.077-0.404 0.083-0.436v-0.058h-1.108v0.077c0 0.045-0.038 0.295-0.077 0.564l-0.16 0.993-0.173 1.044c-0.051 0.314-0.128 0.762-0.173 0.999l-0.179 0.922-0.192 0.987-0.141 0.711c0 0.122-0.045 0.231-0.045 0.243v0zM47.522 19.123h0.692v-0.423l0.077-0.525c0.045-0.288 0.115-0.75 0.16-1.019l0.122-0.762c0-0.147 0.083-0.468 0.135-0.711s0.115-0.506 0.147-0.589c0.021-0.053 0.039-0.115 0.050-0.18l0.001-0.006c0.039-0.123 0.083-0.227 0.134-0.326l0.122-0.263 0.346-0.461 0.186-0.141c0.107-0.080 0.229-0.157 0.357-0.223l0.015-0.007 0.179-0.090h0.814l0.307 0.102v-0.102c0.020-0.178 0.047-0.335 0.082-0.489l-0.005 0.028 0.077-0.359-0.083-0.032-0.186-0.109-0.16-0.051h-0.57l-0.461 0.167-0.346 0.205-0.448 0.474-0.122 0.186c-0.039 0.066-0.084 0.122-0.135 0.173v0s0-0.218 0.083-0.468 0.090-0.493 0.090-0.532v-0.070h-1.185s0 0.218-0.064 0.455-0.109 0.698-0.16 1.019l-0.192 1.211c-0.051 0.314-0.128 0.762-0.173 0.999l-0.173 0.922-0.186 0.967-0.154 0.769-0.058 0.295zM16.816 11.359h0.192l0.308-0.102 0.269-0.269 0.141-0.372v-0.538l-0.128-0.205-0.218-0.141h-0.474l-0.32 0.141-0.192 0.205-0.154 0.346v0.538l0.141 0.269 0.269 0.115z"></path>
</svg>
