<svg version="1.1" xmlns="http://www.w3.org/2000/svg" width="64" height="32" viewBox="0 0 64 32">
<path d="M35.548 10.507c-0.015-2.616-1.645-4.848-3.942-5.751l-0.042-0.015v11.557c2.348-0.921 3.981-3.165 3.985-5.791v-0.001zM27.118 16.298v-11.589c-2.35 0.918-3.984 3.164-3.984 5.791s1.634 4.873 3.942 5.777l0.042 0.015zM29.315 21.218h5.029c5.849 0 11.185-4.766 11.185-10.602 0.006-6.381-5.336-10.788-11.179-10.788h-5.035c-0.071-0.002-0.155-0.003-0.24-0.003-5.827 0-10.551 4.724-10.551 10.551 0 0.084 0.001 0.168 0.003 0.252l-0-0.012c0.065 5.869 4.838 10.603 10.717 10.603 0.025 0 0.050-0 0.075-0l-0.004 0zM29.315 0.718c0.009-0 0.021-0 0.032-0 5.41 0 9.795 4.385 9.795 9.795s-4.385 9.795-9.795 9.795c-5.41 0-9.795-4.385-9.795-9.795 0-0.002 0-0.004 0-0.007v0c0-5.407 4.382-9.791 9.788-9.795h0zM8.411 22.294c-0.858 0-1.525 0-2.012 0s-0.916 0-1.371 0v0.301c0.525 0 1.070-0.058 1.070 0.987v0 5.637c-0.032 0.788-0.372 0.814-1.070 0.884v0.301c0.525 0 1.031 0 1.557 0s1.095 0 1.685 0c4.113 0 4.786-2.896 4.786-4.042 0-2.063-1.64-4.068-4.645-4.068zM8.443 30.033c-0.57 0-1.211-0.102-1.211-0.999v-6.323c0.211 0 0.429-0.045 0.91-0.045 2.242 0 3.639 1.57 3.639 3.741 0 1.73-0.826 3.626-3.338 3.626zM15.17 29.719v-4.484c0-0.096 0-0.167-0.083-0.167-0.001 0-0.001 0-0.002 0-0.077 0-0.15 0.021-0.211 0.059l0.002-0.001c-0.045 0.032-0.698 0.256-1.243 0.416v0.186c0.429 0.231 0.602 0.301 0.602 0.814v3.152c0 0.384-0.231 0.384-0.557 0.384h-0.224v0.301c0.429 0 0.846 0 1.281 0s0.826 0 1.217 0v-0.301h-0.199c-0.327 0.026-0.583 0.026-0.583-0.359zM14.734 23.3c0.316-0.007 0.57-0.265 0.57-0.583 0-0 0-0 0-0v0c-0.007-0.309-0.26-0.557-0.57-0.557-0 0-0 0-0 0v0c-0.315 0-0.57 0.255-0.57 0.57s0.255 0.57 0.57 0.57v0zM21.333 29.719v-2.985c0-0.903-0.346-1.627-1.332-1.627-0.78 0.065-1.476 0.385-2.014 0.874l0.003-0.003v-0.769c0-0.090-0.032-0.115-0.070-0.115-0.394 0.175-0.901 0.365-1.421 0.527l-0.11 0.030v0.218c0.545 0.218 0.673 0.34 0.673 0.769v0 3.081c0 0.384-0.231 0.384-0.557 0.384h-0.211v0.301c0.416 0 0.839 0 1.281 0s0.826 0 1.23 0v-0.301h-0.224c-0.327 0-0.583 0-0.583-0.384v-3.44c0.38-0.279 0.837-0.476 1.334-0.555l0.018-0.002c0.641 0 1.070 0.327 1.070 0.987v3.011c0 0.384-0.231 0.384-0.557 0.384h-0.211v0.301c0.416 0 0.839 0 1.281 0s0.826 0 1.23 0v-0.301h-0.25c-0.327 0-0.577 0-0.577-0.384zM24.709 29.879c-0.929 0-1.64-0.903-1.704-2.012-0.013-0.101-0.020-0.218-0.020-0.336s0.007-0.235 0.022-0.35l-0.001 0.014h3.261l0.102-0.070c0.003-0.032 0.004-0.069 0.004-0.106s-0.002-0.074-0.004-0.11l0 0.005c-0.009-1.012-0.831-1.83-1.845-1.83-0.043 0-0.085 0.001-0.127 0.004l0.006-0c-0.814 0-2.345 0.673-2.345 2.953 0 0.743 0.372 2.563 2.217 2.563 0.907-0.057 1.687-0.55 2.139-1.27l0.007-0.011-0.154-0.218c-0.382 0.445-0.932 0.736-1.55 0.775l-0.006 0zM24.344 25.452c0.009-0 0.019-0 0.029-0 0.545 0 0.987 0.442 0.987 0.987 0 0.029-0.001 0.059-0.004 0.087l0-0.004c0 0.141-0.032 0.288-0.327 0.288h-1.967c0.115-0.826 0.602-1.358 1.281-1.358zM29.949 25.094c-0.711 0-1.198 0.743-1.486 1.198v0-1.051c0-0.115-0.032-0.154-0.102-0.154s-0.57 0.301-1.422 0.641v0.173c0.173 0.096 0.602 0.16 0.602 0.525v3.267c0 0.384-0.231 0.384-0.557 0.384h-0.333v0.301c0.416 0 0.91 0 1.384 0s0.987 0 1.627 0v-0.301h-0.641c-0.327 0-0.557 0-0.557-0.384v-2.71c0.002-0.492 0.366-0.899 0.84-0.967l0.005-0.001c0.404 0 0.404 0.282 0.769 0.282 0.303-0.010 0.545-0.259 0.545-0.563 0-0.011-0-0.023-0.001-0.034l0 0.002c-0.017-0.34-0.297-0.609-0.64-0.609-0.012 0-0.023 0-0.034 0.001l0.002-0zM31.762 26.234c0.015-0.438 0.373-0.787 0.813-0.787 0.034 0 0.068 0.002 0.1 0.006l-0.004-0c0.027-0.002 0.058-0.003 0.090-0.003 0.646 0 1.172 0.514 1.191 1.155l0 0.002h0.269l-0.102-1.153c-0.385-0.203-0.84-0.327-1.322-0.339l-0.004-0c-1.281 0-1.8 0.839-1.8 1.486 0 1.871 2.563 1.429 2.563 2.8 0 0.005 0 0.010 0 0.015 0 0.453-0.367 0.82-0.82 0.82-0.043 0-0.085-0.003-0.126-0.010l0.005 0.001c-0.78-0.031-1.407-0.641-1.467-1.411l-0-0.005-0.211 0.058 0.128 1.339c0.407 0.235 0.893 0.38 1.411 0.397l0.005 0c1.384 0 1.999-0.814 1.999-1.582-0.019-1.851-2.716-1.429-2.716-2.787zM42.358 30.206c-1.787 0-3.466-1.685-3.466-4.036 0-2.787 1.922-3.684 3.28-3.684s2.268 0.545 2.486 1.922h0.288l-0.102-1.672c-0.805-0.348-1.739-0.578-2.718-0.639l-0.024-0.001c-2.274 0-4.401 1.71-4.401 4.094 0 2.614 1.717 4.369 4.44 4.369 0.939-0.039 1.814-0.271 2.601-0.658l-0.038 0.017 0.269-1.698-0.269-0.070c-0.157 1.167-1.147 2.056-2.344 2.056-0 0-0.001 0-0.001 0h0zM47.080 29.719v-8.033c0-0.096 0-0.167-0.096-0.167-0.098 0.036-0.183 0.079-0.261 0.131l0.004-0.003c-0.337 0.182-0.733 0.351-1.146 0.485l-0.052 0.015v0.186c0.442 0.128 0.641 0.154 0.641 0.91v6.47c0 0.384-0.231 0.384-0.557 0.384h-0.218v0.301c0.429 0 0.846 0 1.281 0s0.826 0 1.217 0v-0.301h-0.231c-0.327 0.006-0.583 0.006-0.583-0.378zM52.832 29.764v0-4.311c0-0.128 0-0.211-0.096-0.211s-0.769 0.090-1.813 0.16v0.211c0.416 0.115 0.974 0.243 0.974 0.474v3.126c-0.37 0.37-0.85 0.628-1.387 0.722l-0.015 0.002c-1.012 0-1.012-0.999-1.012-1.352v-2.979c0-0.256 0-0.34-0.128-0.34s-1.076 0.070-1.499 0.083v0.218c0.641 0.058 0.698 0.346 0.698 0.641v2.979c-0.003 0.031-0.004 0.066-0.004 0.102 0 0.708 0.574 1.281 1.281 1.281 0.001 0 0.003 0 0.004 0h-0c0.813-0.057 1.533-0.417 2.055-0.966l0.001-0.001v0.942l0.058 0.032c0.465-0.142 1.030-0.268 1.608-0.351l0.064-0.008v-0.243h-0.468c-0.192 0.006-0.32 0-0.32-0.211zM56.875 25.094c-0.681 0.083-1.278 0.388-1.73 0.839v0-4.247c0-0.096 0-0.167-0.090-0.167-0.098 0.036-0.182 0.079-0.261 0.131l0.004-0.003c-0.337 0.182-0.734 0.351-1.146 0.485l-0.052 0.015v0.186c0.442 0.128 0.641 0.154 0.641 0.91v4.997c-0.001 0.731-0.059 1.448-0.17 2.147l0.010-0.078 0.243 0.128 0.346-0.269c0.467 0.254 1.023 0.403 1.614 0.404h0c1.554-0.083 2.782-1.363 2.782-2.93 0-0.040-0.001-0.079-0.002-0.118l0 0.006c0.004-0.052 0.007-0.113 0.007-0.174 0-1.227-0.976-2.225-2.194-2.26l-0.003-0zM56.343 30.276c-0.64-0.041-1.15-0.547-1.198-1.181l-0-0.004v-2.825c0.283-0.297 0.665-0.496 1.094-0.544l0.008-0.001c0.91 0 1.858 1.044 1.858 2.3 0 1.031-0.525 2.255-1.768 2.255z"></path>
</svg>
