<svg version="1.1" xmlns="http://www.w3.org/2000/svg" width="64" height="32" viewBox="0 0 64 32">
<path d="M56.074 0.737c0.318 0.442 0.508 0.994 0.508 1.59 0 0.25-0.033 0.492-0.096 0.723l0.004-0.019-5.727 24.344c-0.182 0.941-0.685 1.741-1.389 2.3l-0.008 0.006c-0.635 0.549-1.465 0.887-2.375 0.897l-0.002 0h-37.041c-0.032 0.002-0.069 0.002-0.107 0.002-0.75 0-1.417-0.355-1.843-0.907l-0.004-0.005c-0.32-0.441-0.512-0.993-0.512-1.59 0-0.255 0.035-0.502 0.101-0.736l-0.005 0.019 5.721-24.331c0.182-0.941 0.685-1.741 1.389-2.3l0.008-0.006c0.637-0.55 1.47-0.888 2.381-0.897h37.036c0.033-0.002 0.072-0.003 0.11-0.003 0.751 0 1.419 0.355 1.846 0.907l0.004 0.005zM19.174 11.999l1.121-4.196v-0.141h-1.678q-0.141 0.282-0.98 4.196c-0.091 0.641-0.34 1.211-0.705 1.687l0.006-0.009c-0.228 0.18-0.52 0.289-0.838 0.289-0.050 0-0.1-0.003-0.148-0.008l0.006 0.001c-0.557 0-0.839-0.231-0.839-0.698v-0.282l0.141-0.98 0.98-4.055v-0.141c-0.294 0.051-0.632 0.080-0.977 0.080s-0.683-0.029-1.012-0.085l0.035 0.005-0.141 0.282-0.846 4.055-0.141 0.282-0.141 1.121v0.519l0.141 0.282q0.557 0.839 2.377 0.839c0.089 0.008 0.193 0.012 0.298 0.012 0.72 0 1.39-0.213 1.952-0.578l-0.014 0.008c0.6-0.574 1.075-1.273 1.383-2.056l0.014-0.039zM24.344 11.147q-0.141-0.429-0.839-0.429c-0.032-0.001-0.070-0.002-0.107-0.002-0.361 0-0.71 0.052-1.040 0.149l0.026-0.007-0.282 0.282 0.141-0.416-0.141-0.141c-0.466 0.179-1.005 0.283-1.568 0.283-0.039 0-0.077-0.001-0.116-0.001l0.006 0v0.141c-0.019 0.363-0.067 0.704-0.142 1.034l0.008-0.041c-0.096 0.468-0.186 0.98-0.282 1.537q-0.141 0.416-0.416 1.537h1.678v-0.141c0.002-0.103 0.028-0.2 0.072-0.285l-0.002 0.004c0.047-0.095 0.095-0.212 0.135-0.332l0.006-0.021c0.046-0.165 0.072-0.355 0.072-0.551 0-0.032-0.001-0.063-0.002-0.094l0 0.004c0.017-0.306 0.067-0.592 0.148-0.866l-0.007 0.027c0.060-0.198 0.109-0.435 0.139-0.677l0.002-0.021c0.13-0.091 0.291-0.146 0.465-0.146 0.032 0 0.064 0.002 0.096 0.006l-0.004-0c0.186 0 0.282 0.141 0.282 0.416-0.061 0.526-0.16 0.999-0.297 1.456l0.015-0.060-0.141 0.416c-0.009 0.152-0.034 0.294-0.074 0.43l0.003-0.014c-0.037 0.123-0.062 0.265-0.070 0.412l-0 0.005h1.538l0.141-0.141c0.014-0.279 0.065-0.542 0.147-0.79l-0.006 0.021c0.084-0.271 0.135-0.583 0.141-0.907l0-0.003 0.141-0.416c0.107-0.341 0.169-0.734 0.169-1.141 0-0.183-0.012-0.363-0.037-0.539l0.002 0.020zM27.002 11.705v-0.141c-0.276 0.090-0.595 0.141-0.925 0.141-0.019 0-0.039-0-0.058-0.001l0.003 0-0.282 0.141h-0.557c-0.009 0.152-0.034 0.294-0.074 0.43l0.003-0.014c-0.037 0.123-0.062 0.265-0.070 0.412l-0 0.005c-0.051 0.417-0.15 0.795-0.293 1.152l0.011-0.031c0.003 0.028 0.005 0.060 0.005 0.092 0 0.174-0.055 0.335-0.148 0.468l0.002-0.003c-0.012 0.254-0.063 0.492-0.146 0.714l0.005-0.016h1.678v-0.141c0.085-0.162 0.136-0.353 0.141-0.556l0-0.001v-0.141l0.282-0.839c0.008-0.152 0.033-0.294 0.074-0.429l-0.003 0.013c0.036-0.122 0.061-0.265 0.070-0.411l0-0.005v-0.141l0.141-0.282c0.070-0.118 0.12-0.256 0.14-0.404l0.001-0.006zM27.214 10.865c0.009-0.029 0.014-0.062 0.014-0.097 0-0.147-0.093-0.271-0.223-0.319l-0.002-0.001c-0.372-0.282-0.839-0.231-1.397 0.141q-0.557 0.416-0.141 0.839c0.167 0.070 0.361 0.111 0.565 0.111 0.31 0 0.598-0.094 0.837-0.255l-0.005 0.003c0.17-0.082 0.296-0.231 0.345-0.412l0.001-0.004zM27.983 14.92c0.326 0.133 0.705 0.232 1.1 0.28l0.021 0.002c0.001 0 0.003 0 0.004 0 0.767 0 1.459-0.322 1.948-0.838l0.001-0.001c0.345-0.347 0.558-0.826 0.558-1.354 0-0.015-0-0.030-0-0.045l0 0.002q0.282-1.281-0.141-1.678c-0.303-0.354-0.75-0.577-1.249-0.577-0.052 0-0.104 0.002-0.154 0.007l0.006-0.001c-0.062-0.006-0.134-0.010-0.207-0.010-0.637 0-1.211 0.272-1.611 0.707l-0.001 0.002c-0.433 0.393-0.735 0.923-0.837 1.522l-0.002 0.016q-0.416 1.691 0.557 1.967zM31.058 23.165l-0.839 0.141c-0.372 0-0.557-0.090-0.557-0.282l0.416-1.281h1.678l0.275-0.948h-1.678l0.282-0.698h1.538l0.282-0.98h-3.914l-0.282 0.98h0.98l-0.282 0.698h-0.98l-0.282 0.98h0.98l-0.557 1.819c-0.001 0.012-0.002 0.027-0.002 0.042 0 0.144 0.054 0.276 0.143 0.375l-0-0.001 0.282 0.141h2.21zM31.198 17.432l0.282-0.557h-1.538l-0.416 0.698c-0.076 0.16-0.17 0.297-0.283 0.417l0.001-0.001h-0.557l-0.282 0.98h0.698c0.008 0 0.017 0 0.026 0 0.263 0 0.501-0.108 0.672-0.282l0-0c0.113-0.007 0.213-0.060 0.281-0.14l0-0.001 0.282-0.141h2.095l0.282-0.98zM28.828 13.665l0.141-0.282v-0.416q0.282-1.281 0.839-1.281c0.372 0 0.468 0.372 0.282 1.121 0.004 0.036 0.007 0.079 0.007 0.121 0 0.349-0.165 0.659-0.421 0.857l-0.003 0.002q-0.141 0.416-0.416 0.416zM34.28 23.172h-1.127v-0.416l0.557-1.954h3.075l0.282-0.141 0.416-0.416 0.282-0.839 0.839-2.518h-2.242l-0.98 0.282c-0.274 0.143-0.502 0.281-0.721 0.431l0.023-0.015 0.141-0.698h-1.397l-1.819 6.406c-0.088 0.1-0.142 0.232-0.142 0.377 0 0.014 0 0.028 0.001 0.041l-0-0.002c0 0.096 0.090 0.231 0.282 0.416h2.236zM31.749 15.061h1.678v-0.141c0.168-0.377 0.27-0.816 0.282-1.277l0-0.004c0.033-0.292 0.082-0.553 0.15-0.807l-0.009 0.038c0.038-0.29 0.138-0.55 0.286-0.776l-0.004 0.007c0.1-0.088 0.232-0.142 0.377-0.142 0.014 0 0.028 0.001 0.041 0.001l-0.002-0c0.186 0 0.282 0.141 0.282 0.416-0.061 0.526-0.16 0.999-0.297 1.456l0.015-0.060v0.416c-0.020 0.156-0.070 0.297-0.144 0.421l0.003-0.005c-0.071 0.12-0.121 0.261-0.14 0.411l-0.001 0.005h1.678v-0.141c0.13-0.483 0.23-1.055 0.279-1.641l0.003-0.037 0.141-0.416c0.154-0.29 0.244-0.635 0.244-1 0-0.228-0.035-0.449-0.101-0.656l0.004 0.015q-0.154-0.429-0.852-0.429c-0.014-0-0.031-0-0.048-0-0.333 0-0.653 0.052-0.954 0.147l0.022-0.006c-0.069 0.081-0.169 0.134-0.281 0.141l-0.001 0c-0.006-0.001-0.014-0.002-0.021-0.002-0.067 0-0.122 0.055-0.122 0.122 0 0.007 0.001 0.015 0.002 0.022l-0-0.001 0.141-0.416v-0.135c-0.5 0.177-1.077 0.28-1.678 0.282h-0.001l-0.141 0.141c-0.101 0.965-0.248 1.822-0.444 2.659l0.028-0.142q-0.135 0.391-0.416 1.531zM35.946 19.956h-1.954l0.141-0.557h2.236l-0.141 0.557zM35.388 18.559c-0.422 0.071-0.799 0.217-1.135 0.424l0.013-0.008 0.282-0.98h2.236l-0.141 0.557zM37.483 20.936h-1.121l-0.141 0.416v0.141h-0.557v-0.416h-1.281l-0.141 2.659c0 0.186 0.045 0.282 0.141 0.282 0.249 0.1 0.537 0.158 0.839 0.158 0.1 0 0.198-0.006 0.294-0.019l-0.011 0.001h0.839l0.416-0.98h-0.814l-0.141 0.141-0.282-0.282v-0.705h0.839c0.008 0 0.017 0 0.026 0 0.263 0 0.501-0.108 0.672-0.282l0-0c0.161-0.136 0.266-0.333 0.282-0.555l0-0.003zM36.926 15.068h1.819c0.064-0.583 0.163-1.105 0.299-1.612l-0.017 0.075 0.282-0.98 0.141-0.141h0.141q2.095 0 2.934-0.698c0.664-0.386 1.137-1.036 1.279-1.803l0.002-0.016v-0.698c0.002-0.030 0.002-0.064 0.002-0.099 0-0.267-0.053-0.521-0.148-0.753l0.005 0.013q-0.416-0.698-2.377-0.698h-2.684v0.282l-0.557 2.236zM42.096 23.876h0.416l0.282-0.987h-0.416l1.538-5.029h0.416l0.141-0.416v0.557c0 0.468 0.327 0.641 0.98 0.557h0.839l0.282-0.98h-0.282c-0.186 0-0.282-0.045-0.282-0.141v-0.557h-1.538c-0.186 0-0.583 0-1.185 0.070s-0.955 0.070-1.051 0.070c-0.32 0.111-0.598 0.252-0.852 0.424l0.012-0.008 0.141-0.557h-1.397l-0.282 0.98-1.538 5.029h-0.282l-0.282 0.98h2.934l-0.141 0.282h1.397zM39.86 11.288h-0.282v-0.141l0.557-2.236v-0.115h0.141l1.121 0.141c0.468 0.186 0.602 0.557 0.416 1.121 0 0.468-0.282 0.794-0.839 0.98-0.25 0.167-0.557 0.266-0.888 0.266-0.080 0-0.159-0.006-0.236-0.017l0.009 0.001zM40.142 21.769h1.115l-0.256 1.121h-1.14zM40.699 19.815h1.121l-0.282 0.98h-0.538c-0.198 0.139-0.433 0.238-0.688 0.28l-0.010 0.001zM42.518 17.861l-0.282 0.98-0.698 0.141c-0.215 0.056-0.401 0.153-0.56 0.284l0.002-0.002 0.282-1.397zM48.688 18.835h-4.612l-0.282 0.98h1.678l-0.282 0.839h-1.698l-0.282 0.839h1.538l-1.121 1.538c-0.069 0.081-0.169 0.134-0.281 0.141l-0.001 0c-0.096 0-0.141 0-0.141 0.070s-0.051 0.070-0.141 0.070h-0.416l-0.269 0.858h1.121c0.012 0 0.026 0.001 0.040 0.001 0.444 0 0.838-0.219 1.078-0.554l0.003-0.004 0.698-0.98 0.141 0.98c0.074 0.16 0.169 0.298 0.282 0.417l-0.001-0.001 0.282 0.141h0.98l0.404-0.999h-0.282c-0.186 0-0.282-0.045-0.282-0.141-0.006 0.001-0.014 0.002-0.021 0.002-0.067 0-0.122-0.055-0.122-0.122 0-0.007 0.001-0.015 0.002-0.022l-0 0.001-0.141-1.121h-0.692l0.282-0.282h1.678l0.282-0.839h-1.538l0.282-0.839h1.538zM43.633 11.429c-0.45 0.434-0.755 1.014-0.838 1.664l-0.001 0.014q-0.416 1.537 0.698 1.954c0.216 0.091 0.467 0.144 0.73 0.144 0.038 0 0.077-0.001 0.114-0.003l-0.005 0c0.029 0.005 0.062 0.007 0.096 0.007 0.276 0 0.511-0.174 0.601-0.419l0.001-0.004v0.282h1.819c0.082-0.94 0.23-1.798 0.441-2.631l-0.024 0.113 0.416-1.678v-0.154c-0.254 0.012-0.492 0.063-0.714 0.146l0.016-0.005c-0.292 0.082-0.628 0.133-0.976 0.141l-0.005 0-0.141 0.141v0.141c-0.062-0.241-0.278-0.417-0.534-0.417-0.008 0-0.016 0-0.024 0.001l0.001-0q-0.698-0.416-1.672 0.564zM44.331 13.806v-0.698q0.557-1.281 0.839-1.281 0.698 0 0.416 0.698v0.416l-0.141 0.282v0.282l-0.141 0.282c-0.006-0.001-0.014-0.002-0.021-0.002-0.067 0-0.122 0.055-0.122 0.122 0 0.007 0.001 0.015 0.002 0.022l-0-0.001c0 0.186-0.186 0.282-0.557 0.282zM45.452 13.248v0zM52.858 10.718h-0.141c-0.254 0.012-0.492 0.063-0.714 0.146l0.016-0.005c-0.25 0.088-0.538 0.14-0.839 0.141h-0.141c-0.186 0.468-0.352 0.865-0.487 1.185s-0.256 0.583-0.352 0.769v-0.141l-0.135-2.095h-0.141c-0.468 0.096-0.98 0.186-1.538 0.282v0.141c0.025 0.415 0.075 0.8 0.15 1.175l-0.009-0.054c0.010 0.178 0.035 0.345 0.074 0.506l-0.004-0.019c0.034 0.141 0.059 0.308 0.070 0.478l0 0.009c0.091 0.499 0.142 1.072 0.142 1.658 0 0.057-0 0.113-0.001 0.169l0-0.008-0.98 1.954-0.416 0.416c0.001 0.006 0.002 0.014 0.002 0.021 0 0.067-0.054 0.122-0.122 0.122-0.007 0-0.015-0.001-0.022-0.002l0.001 0h-0.416l-0.282 0.98h0.98c0.048 0.007 0.103 0.011 0.158 0.011 0.414 0 0.777-0.224 0.973-0.557l0.003-0.005 0.557-1.121h0.141q0.397-0.833 3.472-6.156z"></path>
</svg>
