<!-- Generated by IcoMoon.io -->
<svg version="1.1" xmlns="http://www.w3.org/2000/svg" width="64" height="32" viewBox="0 0 64 32">
<path d="M22.723 15.805c0 0.083 0 0.167 0 0.25l4.721-2.031c-0.498-0.565-1.223-0.919-2.031-0.919-1.493 0-2.703 1.21-2.703 2.703 0 0.001 0 0.002 0 0.003v-0zM32.031-0.173c-8.491 0-15.375 6.884-15.375 15.375s6.884 15.375 15.375 15.375c8.491 0 15.375-6.884 15.375-15.375v0c0-8.491-6.884-15.375-15.375-15.375v0zM38.681 10.981c0 0 0.001 0 0.001 0 2.225 0 4.093 1.529 4.611 3.593l0.007 0.033-2.095 0.173c-0.399-1.022-1.376-1.733-2.519-1.733-0.319 0-0.624 0.055-0.908 0.157l0.019-0.006-0.903-1.839c0.527-0.23 1.14-0.368 1.784-0.378l0.004-0zM22.832 19.757l1.108-1.691c0.422 0.276 0.939 0.439 1.494 0.439 0.728 0 1.39-0.282 1.883-0.742l-0.002 0.002 1.416 1.448c-0.845 0.831-2.004 1.344-3.283 1.344-0.976 0-1.883-0.299-2.633-0.81l0.016 0.010zM28.117 15.529v0l-1.922 0.858-4.702 2.018c-0.501-0.739-0.8-1.65-0.8-2.631 0-2.611 2.117-4.728 4.728-4.728 2.222 0 4.086 1.533 4.592 3.598l0.007 0.032zM33.242 20.27l-1.723-0.73c-0.641-0.275-0.884-0.679-0.884-1.525v-8.937h1.691v8.687c-0.001 0.008-0.002 0.018-0.002 0.028 0 0.079 0.051 0.146 0.123 0.17l0.001 0 1.473 0.57zM35.971 19.629c-1.242-0.87-2.043-2.294-2.043-3.905 0-1.505 0.699-2.846 1.79-3.717l0.010-0.007 1.095 1.775c-0.518 0.492-0.84 1.186-0.84 1.956 0 0.864 0.407 1.634 1.039 2.127l0.006 0.005zM38.655 20.462c-0.529-0-1.038-0.087-1.513-0.247l0.033 0.010 0.82-1.922c0.205 0.056 0.44 0.088 0.683 0.088 1.437 0 2.612-1.124 2.693-2.541l0-0.007 2.056 0.064c-0.092 2.551-2.182 4.585-4.747 4.587h-0z"></path>
</svg>
