<!-- Generated by IcoMoon.io -->
<svg version="1.1" xmlns="http://www.w3.org/2000/svg" width="64" height="32" viewBox="0 0 64 32">
<path d="M32.031 28.969h-26.906c-0.043 0.001-0.093 0.002-0.143 0.002-2.753 0-4.984-2.231-4.984-4.984 0-0.048 0.001-0.096 0.002-0.144l-0 0.007q0-7.098 0-14.19c0-1.057 0-2.108 0-3.165-0.001-0.033-0.001-0.073-0.001-0.112 0-1.644 0.811-3.098 2.056-3.984l0.015-0.010c0.775-0.569 1.74-0.92 2.787-0.948l0.007-0h53.941c0.053-0.002 0.116-0.003 0.178-0.003 0.77 0 1.502 0.166 2.161 0.465l-0.033-0.013c1.739 0.753 2.934 2.454 2.934 4.434 0 0.018-0 0.035-0 0.053l0-0.003c0.045 2.012 0 4.023 0 6.035 0 3.844 0 7.687 0 11.531 0 0.011 0 0.025 0 0.038 0 2.746-2.226 4.971-4.971 4.971-0.002 0-0.005 0-0.007 0h-27.034zM33.505 3.453h-28.335c-0.006-0-0.013-0-0.020-0-1.723 0-3.12 1.397-3.12 3.12 0 0.029 0 0.059 0.001 0.088l-0-0.004c0 3.536 0 7.047 0 10.615q0 3.286 0 6.579c-0 0.013-0 0.027-0 0.042 0 0.995 0.486 1.876 1.234 2.418l0.009 0.006c0.529 0.401 1.198 0.642 1.924 0.642 0.035 0 0.070-0.001 0.106-0.002l-0.005 0h28.188zM37.925 17.707c0.295 0.465 0.74 0.812 1.265 0.976l0.016 0.004c0.278 0.094 0.598 0.148 0.931 0.148 1.188 0 2.215-0.691 2.7-1.693l0.008-0.018c0.287-0.578 0.455-1.258 0.455-1.978 0-0.025-0-0.051-0.001-0.076l0 0.004c0-0.020 0.001-0.045 0.001-0.069 0-0.896-0.307-1.72-0.821-2.374l0.006 0.008c-0.539-0.653-1.348-1.067-2.254-1.067-0.943 0-1.782 0.448-2.315 1.143l-0.005 0.007c-0.032 0.045-0.077 0.090-0.186 0.205v-1.153h-2.197v9.686c0.801 0 1.582 0 2.396 0zM51.98 11.749c0.058 0.16 0.102 0.282 0.154 0.41l0.73 1.858c0.589 1.493 1.172 2.992 1.781 4.484 0.042 0.089 0.067 0.193 0.067 0.304 0 0.178-0.064 0.34-0.17 0.466l0.001-0.001c-0.188 0.287-0.508 0.474-0.871 0.474-0.002 0-0.004 0-0.007-0h0c-0.34 0-0.685-0.038-1.063-0.064l-0.141 1.762c0.414 0.106 0.889 0.167 1.378 0.167 0.099 0 0.197-0.003 0.295-0.007l-0.014 0.001c0.003 0 0.007 0 0.010 0 0.992 0 1.855-0.554 2.296-1.37l0.007-0.014c0.166-0.272 0.327-0.59 0.463-0.921l0.017-0.047q1.448-3.632 2.876-7.252c0.020-0.061 0.040-0.139 0.056-0.218l0.002-0.013h-2.37l-1.422 4.484-1.493-4.484zM45.164 12.031l0.070 1.557c0.564-0.135 1.095-0.282 1.64-0.384 0.158-0.030 0.34-0.047 0.525-0.047 0.269 0 0.529 0.036 0.777 0.103l-0.021-0.005c0.464 0.077 0.813 0.475 0.813 0.955 0 0.036-0.002 0.072-0.006 0.106l0-0.004c-0.048 0.004-0.104 0.006-0.16 0.006s-0.112-0.002-0.167-0.007l0.007 0c-0.255-0.037-0.549-0.059-0.849-0.059s-0.594 0.021-0.882 0.062l0.033-0.004c-0.674 0.060-1.284 0.291-1.8 0.649l0.012-0.008c-0.516 0.394-0.846 1.009-0.846 1.701 0 0.649 0.29 1.23 0.747 1.621l0.003 0.002c0.47 0.36 1.066 0.576 1.712 0.576 0.866 0 1.641-0.389 2.161-1.001l0.003-0.004c0.051-0.064 0.115-0.122 0.199-0.211l0.045 1.019h2.133c0-1.057-0.038-2.095-0.058-3.133 0-0.404 0-0.807 0-1.204 0-0.018 0.001-0.040 0.001-0.061 0-1.218-0.85-2.237-1.989-2.498l-0.017-0.003c-0.421-0.1-0.903-0.158-1.4-0.158s-0.979 0.058-1.442 0.166l0.043-0.008c-0.429 0.019-0.833 0.16-1.281 0.282zM10.948 12.909v-1.134h2.076c0 0.135 0 0.25 0 0.372q0 2.832 0 5.657c0.002 0.050 0.002 0.11 0.002 0.169 0 0.525-0.071 1.034-0.204 1.517l0.009-0.040c-0.229 0.884-0.896 1.573-1.75 1.828l-0.018 0.005c-0.415 0.132-0.899 0.228-1.399 0.268l-0.023 0.002c-0.231 0.023-0.5 0.037-0.772 0.037-0.751 0-1.478-0.102-2.168-0.294l0.057 0.013-0.352-0.109c-0.054-0.028-0.1-0.057-0.143-0.091l0.002 0.001 0.141-1.781c0.115 0.038 0.205 0.064 0.288 0.109 0.568 0.271 1.234 0.429 1.936 0.429 0.146 0 0.29-0.007 0.433-0.020l-0.018 0.001c0.025 0.001 0.055 0.002 0.085 0.002 0.925 0 1.681-0.73 1.722-1.645l0-0.004c0-0.218 0-0.436 0.038-0.73-0.092 0.078-0.176 0.158-0.255 0.242l-0.002 0.002c-0.539 0.58-1.305 0.942-2.157 0.942-1.232 0-2.287-0.757-2.724-1.832l-0.007-0.020c-0.208-0.515-0.329-1.112-0.329-1.738 0-0.644 0.128-1.257 0.36-1.817l-0.012 0.032c0.454-1.028 1.464-1.732 2.639-1.732 0.911 0 1.724 0.424 2.251 1.085l0.005 0.006 0.199 0.25zM7.828 15.113c0.054 0.332 0.128 0.623 0.223 0.904l-0.012-0.040c0.195 0.505 0.677 0.858 1.241 0.858 0.386 0 0.733-0.165 0.975-0.427l0.001-0.001c0.323-0.35 0.522-0.82 0.522-1.337 0-0.415-0.128-0.8-0.347-1.117l0.004 0.007c-0.262-0.35-0.676-0.574-1.142-0.574-0.090 0-0.178 0.008-0.264 0.024l0.009-0.001c-0.487 0.062-0.879 0.407-1.010 0.863l-0.002 0.008c-0.068 0.216-0.137 0.496-0.191 0.782l-0.008 0.051zM27.771 11.583c0.029-0.001 0.062-0.001 0.096-0.001 0.771 0 1.502 0.17 2.158 0.475l-0.032-0.013c1.153 0.565 1.932 1.729 1.932 3.076 0 0.19-0.015 0.376-0.045 0.557l0.003-0.020c-0.174 1.614-1.442 2.885-3.040 3.061l-0.015 0.001c-0.276 0.055-0.593 0.087-0.918 0.087-0.771 0-1.499-0.179-2.147-0.497l0.029 0.013c-1.125-0.545-1.886-1.678-1.886-2.989 0-0.152 0.010-0.302 0.030-0.449l-0.002 0.017c0.089-1.727 1.446-3.111 3.153-3.241l0.012-0.001c0.25-0.038 0.525-0.064 0.673-0.077zM29.469 15.202c0.003-0.042 0.004-0.092 0.004-0.142 0-0.39-0.094-0.758-0.26-1.083l0.006 0.013c-0.23-0.459-0.697-0.77-1.236-0.77-0.016 0-0.032 0-0.048 0.001l0.002-0c-0.035-0.003-0.075-0.005-0.115-0.005-0.532 0-0.991 0.31-1.207 0.759l-0.003 0.008c-0.176 0.344-0.279 0.751-0.279 1.182s0.103 0.838 0.286 1.197l-0.007-0.015c0.216 0.473 0.684 0.795 1.228 0.795 0.019 0 0.038-0 0.056-0.001l-0.003 0c0.021 0.001 0.045 0.002 0.069 0.002 0.547 0 1.020-0.316 1.247-0.775l0.004-0.008c0.163-0.306 0.259-0.669 0.259-1.055 0-0.037-0.001-0.073-0.003-0.11l0 0.005zM18.745 18.643v-6.874h2.114v1.23c0.275-0.346 0.487-0.641 0.737-0.916 0.255-0.266 0.605-0.44 0.995-0.467l0.005-0c0.365 0 0.743 0 1.166 0l-0.109 1.922h-0.871c-0.018-0.001-0.039-0.001-0.060-0.001-0.656 0-1.213 0.425-1.41 1.016l-0.003 0.010c-0.106 0.315-0.167 0.678-0.167 1.056 0 0.018 0 0.037 0 0.055l-0-0.003c0 0.967 0 1.922 0 2.966h-1.153zM14.779 11.762h2.261c0.077 0.301 0.102 6.233 0 6.861h-2.236c-0.070-0.282-0.109-6.285-0.026-6.861zM17.085 10.564h-2.351c0-0.275 0-0.545 0-0.814s0-0.551 0-0.814c0.353-0.040 0.761-0.062 1.176-0.062s0.823 0.023 1.225 0.067l-0.050-0.004zM37.925 15.1c0-0.001 0-0.001 0-0.002 0-0.412 0.13-0.793 0.35-1.106l-0.004 0.006c0.246-0.354 0.65-0.583 1.108-0.583 0.474 0 0.891 0.245 1.131 0.616l0.003 0.005c0.189 0.33 0.301 0.726 0.301 1.147 0 0.453-0.129 0.875-0.351 1.233l0.006-0.010c-0.232 0.352-0.626 0.581-1.073 0.581-0.361 0-0.686-0.149-0.919-0.389l-0-0c-0.344-0.347-0.557-0.825-0.557-1.353 0-0.052 0.002-0.103 0.006-0.153l-0 0.007zM48.976 15.58c0.003 0.037 0.005 0.079 0.005 0.123 0 0.81-0.657 1.467-1.467 1.467-0.129 0-0.255-0.017-0.374-0.048l0.010 0.002c-0.311-0.061-0.546-0.32-0.57-0.638l-0-0.002c-0.005-0.030-0.007-0.065-0.007-0.101 0-0.302 0.187-0.56 0.451-0.666l0.005-0.002c0.16-0.082 0.347-0.139 0.544-0.16l0.007-0.001c0.468 0.013 0.91 0.026 1.397 0.026z"></path>
</svg>
