<svg version="1.1" xmlns="http://www.w3.org/2000/svg" width="64" height="32" viewBox="0 0 64 32">
<path d="M7.63 13.883c-1.345-0.493-2.082-0.89-2.082-1.499s0.429-0.794 1.166-0.794c1.397 0.054 2.697 0.423 3.847 1.036l-0.048-0.023 0.551-3.434c-1.325-0.639-2.882-1.012-4.525-1.012-0.015 0-0.030 0-0.045 0h0.002c-0.086-0.005-0.186-0.007-0.287-0.007-1.316 0-2.529 0.441-3.5 1.183l0.014-0.010c-0.888 0.762-1.448 1.887-1.448 3.141 0 0.080 0.002 0.16 0.007 0.239l-0-0.011c0 2.511 1.531 3.62 4.049 4.484 1.595 0.583 2.146 0.98 2.146 1.627s-0.519 0.948-1.473 0.948c-1.616-0.119-3.098-0.594-4.399-1.346l0.050 0.026-0.551 3.466c1.486 0.795 3.249 1.267 5.121 1.281l0.004 0c0.091 0.005 0.197 0.007 0.303 0.007 1.365 0 2.631-0.427 3.67-1.155l-0.021 0.014c0.962-0.795 1.571-1.989 1.571-3.326 0-0.092-0.003-0.184-0.009-0.274l0.001 0.012c-0.006-2.582-1.57-3.652-4.113-4.574zM21.365 8.457h-2.947v-4.145l-3.953 0.641-0.551 3.498-1.409 0.243-0.519 3.158h1.922v6.72c0 1.749 0.461 2.94 1.352 3.677 0.841 0.586 1.885 0.937 3.010 0.937 0.138 0 0.274-0.005 0.409-0.016l-0.018 0.001c0.863-0.002 1.696-0.126 2.485-0.355l-0.063 0.016v-3.613c-0.394 0.107-0.855 0.184-1.329 0.217l-0.022 0.001c-0.89 0-1.281-0.493-1.281-1.531v-6.047h2.358zM30.468 8.367c-0.258-0.056-0.554-0.088-0.857-0.090h-0.001c-0.039-0.002-0.085-0.003-0.131-0.003-1.218 0-2.248 0.802-2.593 1.906l-0.005 0.019-0.308-1.717h-4.017v14.408h4.6v-9.372c0.549-0.594 1.333-0.964 2.203-0.964 0.109 0 0.216 0.006 0.322 0.017l-0.013-0.001c0.028-0.001 0.062-0.001 0.095-0.001 0.247 0 0.489 0.024 0.723 0.069l-0.024-0.004zM33.902 2.172c-0.004-0-0.008-0-0.013-0-1.33 0-2.409 1.078-2.409 2.409 0 0.005 0 0.009 0 0.014v-0.001c0 1.337 1.084 2.422 2.422 2.422s2.422-1.084 2.422-2.422v0c0-0.004 0-0.008 0-0.013 0-1.33-1.078-2.409-2.409-2.409-0.005 0-0.009 0-0.014 0h0.001zM36.195 22.89v-14.433h-4.593v14.433zM49.29 9.776c-0.746-0.99-1.92-1.624-3.242-1.624-0.056 0-0.112 0.001-0.167 0.003l0.008-0c-1.45 0.031-2.739 0.699-3.6 1.735l-0.006 0.008-0.243-1.441h-4.030v19.776l4.6-0.769v-4.625c0.62 0.202 1.334 0.325 2.075 0.339l0.007 0c0.035 0.001 0.076 0.001 0.117 0.001 1.57 0 2.986-0.659 3.987-1.716l0.002-0.003c1.281-1.352 1.871-3.434 1.871-6.195 0-2.454-0.461-4.324-1.377-5.49zM45.484 18.668c-0.29 0.613-0.889 1.037-1.591 1.070l-0.004 0c-0.020 0.001-0.044 0.001-0.069 0.001-0.441 0-0.858-0.102-1.229-0.284l0.017 0.007v-6.868c0.426-0.514 1.042-0.857 1.739-0.922l0.010-0.001c1.166 0 1.749 1.281 1.749 3.741 0.008 0.122 0.013 0.265 0.013 0.409 0 1.033-0.234 2.012-0.651 2.885l0.017-0.040zM62.378 10.141c-0.987-1.219-2.484-1.992-4.161-1.992-0.089 0-0.177 0.002-0.265 0.006l0.012-0c-3.921 0-6.342 2.883-6.342 7.54 0 2.562 0.641 4.536 1.922 5.766 1.134 1.134 2.793 1.685 4.933 1.685 0.099 0.004 0.215 0.006 0.331 0.006 1.685 0 3.264-0.457 4.619-1.253l-0.043 0.023-0.493-3.158c-1.106 0.598-2.422 0.949-3.819 0.949-0.036 0-0.071-0-0.107-0.001l0.005 0c-0.070 0.006-0.152 0.010-0.234 0.010-0.641 0-1.23-0.224-1.693-0.597l0.005 0.004c-0.526-0.509-0.855-1.218-0.865-2.003l-0-0.002h7.604c0-0.211 0.064-1.281 0.064-1.595 0-2.287-0.493-4.1-1.473-5.388zM56.157 14.312c0.122-2.056 0.673-3.005 1.717-3.005s1.595 0.98 1.653 3.005z"></path>
</svg>
