<svg version="1.1" xmlns="http://www.w3.org/2000/svg" width="64" height="32" viewBox="0 0 64 32">
<path d="M31.967 22.775v0c-0.083 0.34-0.167 0.75-0.269 1.095l-0.436 1.448h1.409l-0.442-1.448c-0.090-0.34-0.199-0.756-0.263-1.095zM26.656 22.691c-0.021-0.001-0.045-0.001-0.070-0.001-0.186 0-0.368 0.019-0.543 0.055l0.017-0.003v1.986c0.128 0.029 0.274 0.046 0.425 0.046 0.026 0 0.053-0.001 0.079-0.002l-0.004 0c0.769 0 1.236-0.397 1.236-1.083s-0.429-0.999-1.14-0.999zM17.841-0.173v30.75h28.38v-30.75zM28.348 24.985c-0.43 0.399-1.009 0.644-1.645 0.644-0.048 0-0.095-0.001-0.142-0.004l0.006 0c-0.019 0-0.041 0.001-0.063 0.001-0.154 0-0.306-0.012-0.453-0.035l0.016 0.002v2.217h-1.019v-5.766c0.433-0.078 0.931-0.123 1.44-0.123 0.045 0 0.091 0 0.136 0.001l-0.007-0c0.056-0.005 0.121-0.007 0.187-0.007 0.555 0 1.067 0.183 1.479 0.492l-0.006-0.005c0.339 0.309 0.551 0.753 0.551 1.247 0 0.012-0 0.024-0 0.037l0-0.002c0.001 0.017 0.001 0.038 0.001 0.058 0 0.48-0.186 0.917-0.489 1.243l0.001-0.001zM33.383 27.791l-0.513-1.666h-1.787l-0.487 1.666h-1.057l1.8-5.868h1.281l1.832 5.868zM37.675 25.318v2.473h-1.031v-2.447l-1.781-3.421h1.166l0.679 1.505c0.192 0.436 0.333 0.769 0.487 1.166v0c0.141-0.378 0.301-0.743 0.493-1.166l0.679-1.505h1.16zM45.484 19.796h-26.906v-19.257h26.906zM27.502 6.58l2.607 10.083h3.459l5.285-12.627h-3.434l-3.389 8.604-1.39-7.322c-0.121-0.731-0.749-1.281-1.505-1.281-0 0-0 0-0 0h-5.561l-0.077 0.365c1.212 0.253 2.282 0.625 3.286 1.113l-0.083-0.036c0.434 0.203 0.742 0.611 0.8 1.095l0.001 0.007z"></path>
</svg>
