<!-- Generated by IcoMoon.io -->
<svg version="1.1" xmlns="http://www.w3.org/2000/svg" width="64" height="32" viewBox="0 0 64 32">
<path d="M14.587 12.095h-4.292c0.007-0.073 0.011-0.159 0.011-0.245 0-0.425-0.096-0.828-0.268-1.188l0.007 0.017q-0.384-0.532-2.114-0.532c-0.125-0.011-0.27-0.017-0.417-0.017-0.651 0-1.274 0.119-1.848 0.336l0.036-0.012q-0.545 0.307-0.545 1.345c-0.009 0.057-0.014 0.124-0.014 0.191 0 0.418 0.192 0.791 0.492 1.037l0.002 0.002c0.264 0.149 0.579 0.24 0.913 0.25l0.003 0 0.865 0.064q2.787 0.186 3.479 0.256c1.22 0.030 2.333 0.467 3.213 1.18l-0.010-0.008c0.511 0.495 0.852 1.163 0.928 1.909l0.001 0.013c0.057 0.467 0.090 1.007 0.090 1.555 0 0.021-0 0.042-0 0.063v-0.003c0.008 0.14 0.013 0.303 0.013 0.467 0 0.92-0.145 1.806-0.414 2.636l0.017-0.061q-0.717 1.762-3.203 2.229c-0.833 0.13-1.793 0.203-2.771 0.203-0.152 0-0.303-0.002-0.454-0.005l0.022 0c-0.252 0.012-0.548 0.018-0.845 0.018-1.482 0-2.926-0.163-4.315-0.472l0.132 0.025c-1.087-0.284-1.94-1.084-2.293-2.117l-0.007-0.023c-0.231-0.808-0.363-1.735-0.363-2.694 0-0.107 0.002-0.214 0.005-0.32l-0 0.016h4.299c0 0.154 0 0.275 0 0.359q0 1.115 0.641 1.435c0.309 0.146 0.672 0.231 1.054 0.231 0.008 0 0.015-0 0.023-0h1.581c0.098 0.006 0.212 0.009 0.327 0.009 0.431 0 0.851-0.048 1.255-0.138l-0.038 0.007c0.358-0.127 0.637-0.398 0.772-0.741l0.003-0.009c0.062-0.222 0.097-0.477 0.097-0.74 0-0.030-0-0.060-0.001-0.090l0 0.004q0-1.134-0.826-1.377c-0.83-0.133-1.822-0.229-2.828-0.268l-0.048-0.001q-2.063-0.147-2.864-0.282-2.108-0.397-2.806-1.627c-0.41-0.821-0.65-1.789-0.65-2.812 0-0.124 0.004-0.247 0.010-0.369l-0.001 0.017c-0.002-0.071-0.003-0.154-0.003-0.238 0-0.829 0.123-1.628 0.352-2.382l-0.015 0.058c0.193-0.613 0.571-1.121 1.068-1.474l0.009-0.006c0.784-0.529 1.739-0.862 2.768-0.909l0.012-0q1.409-0.122 3.126-0.122c0.179-0.007 0.388-0.011 0.599-0.011 1.148 0 2.269 0.116 3.352 0.337l-0.107-0.018q2.806 0.756 2.806 4.222c0 0.192 0 0.474-0.045 0.852zM33.479 23.78v-17.156h8.604c0.101-0.004 0.219-0.006 0.337-0.006 0.838 0 1.651 0.107 2.426 0.309l-0.067-0.015c1.351 0.386 2.404 1.398 2.842 2.693l0.009 0.030c0.245 0.847 0.387 1.82 0.387 2.827 0 0.15-0.003 0.3-0.009 0.449l0.001-0.021c0.008 0.167 0.013 0.363 0.013 0.561 0 1.136-0.157 2.236-0.45 3.278l0.020-0.085c-0.505 1.448-1.813 2.489-3.377 2.594l-0.012 0.001q-0.301 0.051-2.563 0.090h-3.523v4.427zM38.098 15.369h2.902c0.059 0.002 0.127 0.004 0.196 0.004 0.524 0 1.030-0.079 1.506-0.225l-0.036 0.010c0.3-0.202 0.505-0.525 0.544-0.898l0-0.005c0.058-0.353 0.092-0.759 0.092-1.173 0-0.058-0.001-0.116-0.002-0.174l0 0.009c0.003-0.067 0.005-0.146 0.005-0.226 0-0.493-0.065-0.972-0.186-1.427l0.009 0.039c-0.186-0.502-0.642-0.861-1.187-0.903l-0.005-0c-0.128 0-0.423 0-0.897 0h-2.94zM57.861 20.814h-6.169l-0.826 2.966h-4.779l5.125-17.156h6.989l5.221 17.156h-4.677zM56.945 17.47l-2.159-7.431-2.101 7.431zM27.105 9.040c0.001 0 0.002 0 0.004 0 1.899 0 3.595 0.872 4.709 2.238l0.009 0.011 0.993-2.133c-1.563-1.473-3.674-2.379-5.998-2.379-3.588 0-6.672 2.16-8.023 5.25l-0.022 0.056h-1.922l-1.16 2.479h2.498c0 0.231 0 0.455 0 0.685 0.001 0.295 0.017 0.584 0.048 0.869l-0.003-0.037h-1.281l-1.147 2.46h3.037c1.378 3.067 4.406 5.164 7.924 5.164 0.016 0 0.032-0 0.048-0h-0.003c0.009 0 0.020 0 0.031 0 1.799 0 3.472-0.543 4.863-1.474l-0.032 0.020v-3.011c-1.119 1.274-2.752 2.074-4.571 2.074-2.122 0-3.99-1.088-5.076-2.737l-0.014-0.023h6.361l1.147-2.46h-8.45c-0.041-0.268-0.065-0.578-0.065-0.893 0-0.225 0.012-0.446 0.035-0.665l-0.002 0.027h9.187l1.16-2.479h-9.552c1.070-1.833 3.026-3.046 5.265-3.049h0z"></path>
</svg>
