<svg version="1.1" xmlns="http://www.w3.org/2000/svg" width="64" height="32" viewBox="0 0 64 32">
<path d="M30.949 22.038l0.295 0.243c-1.905 1.28-4.25 2.044-6.774 2.044-6.765 0-12.249-5.484-12.249-12.249s5.484-12.249 12.249-12.249c2.524 0 4.869 0.763 6.818 2.071l-0.044-0.028-0.295 0.243c-2.789 2.432-4.541 5.99-4.541 9.959s1.752 7.527 4.525 9.945l0.016 0.013zM39.603-0.173c-0.007 0-0.015-0-0.024-0-2.52 0-4.861 0.766-6.804 2.078l0.043-0.027 0.295 0.243c2.789 2.432 4.541 5.99 4.541 9.959s-1.752 7.527-4.525 9.945l-0.016 0.013-0.295 0.243c1.91 1.288 4.263 2.056 6.795 2.056 6.768 0 12.255-5.487 12.255-12.255s-5.487-12.255-12.255-12.255c-0.004 0-0.008 0-0.012 0h0.001zM32.031 2.454q-0.237 0.186-0.461 0.384c-2.589 2.257-4.216 5.561-4.216 9.244s1.627 6.987 4.202 9.232l0.015 0.012q0.224 0.199 0.461 0.384 0.237-0.186 0.461-0.384c2.589-2.257 4.216-5.561 4.216-9.244s-1.627-6.987-4.202-9.232l-0.015-0.012q-0.224-0.199-0.461-0.384zM25.779 28.54l-0.333-0.045c-0.308-0.038-0.551-0.102-0.551-0.32s0.231-0.384 0.641-0.384c0.374 0.007 0.722 0.111 1.022 0.287l-0.010-0.005 0.308-0.57c-0.355-0.214-0.784-0.341-1.242-0.341-0.029 0-0.059 0.001-0.088 0.002l0.004-0c-0.826 0-1.352 0.397-1.352 1.044 0 0.532 0.397 0.858 1.121 0.961l0.333 0.045c0.391 0.051 0.57 0.154 0.57 0.34s-0.256 0.397-0.743 0.397c-0.022 0.001-0.047 0.002-0.073 0.002-0.393 0-0.755-0.131-1.046-0.351l0.004 0.003-0.333 0.551c0.375 0.265 0.841 0.424 1.344 0.424 0.023 0 0.046-0 0.068-0.001l-0.003 0c0.942 0 1.486-0.442 1.486-1.063s-0.416-0.858-1.128-0.974zM29.238 29.905c-0.352 0-0.468-0.218-0.468-0.545v-1.473h1.16v-0.641h-1.16v-0.993h-0.718v0.987h-0.641v0.641h0.641v1.486c0 0.756 0.295 1.204 1.128 1.204 0.002 0 0.004 0 0.007 0 0.325 0 0.628-0.093 0.884-0.254l-0.007 0.004-0.205-0.609c-0.177 0.112-0.39 0.182-0.619 0.192l-0.003 0zM18.066 27.163c-0.021-0.001-0.045-0.002-0.069-0.002-0.446 0-0.839 0.228-1.068 0.574l-0.003 0.005c-0.214-0.349-0.593-0.578-1.025-0.578-0.018 0-0.036 0-0.054 0.001l0.003-0c-0.017-0.001-0.037-0.002-0.057-0.002-0.373 0-0.702 0.19-0.895 0.478l-0.002 0.004v-0.404h-0.705v3.254h0.717v-1.8c-0.005-0.031-0.007-0.067-0.007-0.104 0-0.421 0.341-0.762 0.762-0.762 0.014 0 0.027 0 0.041 0.001l-0.002-0c0.468 0 0.711 0.308 0.711 0.858v1.813h0.718v-1.807c-0.004-0.029-0.006-0.063-0.006-0.097 0-0.425 0.344-0.769 0.769-0.769 0.016 0 0.031 0 0.047 0.001l-0.002-0c0.48 0 0.718 0.308 0.718 0.858v1.813h0.692v-2.044c0.002-0.026 0.003-0.055 0.003-0.086 0-0.669-0.542-1.211-1.211-1.211-0.026 0-0.052 0.001-0.077 0.002l0.003-0zM22.627 27.637c-0.228-0.29-0.58-0.475-0.974-0.475-0.018 0-0.036 0-0.053 0.001l0.003-0c-0.899 0.057-1.606 0.799-1.606 1.707s0.707 1.651 1.601 1.707l0.005 0c0.015 0.001 0.033 0.001 0.051 0.001 0.394 0 0.746-0.185 0.972-0.472l0.002-0.003v0.397h0.711v-3.261h-0.711zM21.692 29.937c-0.019 0.001-0.041 0.002-0.064 0.002-0.577 0-1.044-0.468-1.044-1.044s0.468-1.044 1.044-1.044c0.576 0 1.043 0.466 1.044 1.042v0c0.002 0.021 0.003 0.046 0.003 0.070 0 0.538-0.436 0.974-0.974 0.974-0.003 0-0.006 0-0.009-0h0zM44.94 27.637v-0.397h-0.698v3.254h0.705v-1.839c0-0.538 0.231-0.839 0.692-0.839 0.003-0 0.008-0 0.012-0 0.155 0 0.303 0.031 0.438 0.086l-0.008-0.003 0.218-0.641c-0.151-0.056-0.324-0.089-0.506-0.090h-0c-0.008-0-0.018-0-0.027-0-0.349 0-0.654 0.186-0.822 0.464l-0.002 0.004zM32.127 27.163c-0.888 0.068-1.583 0.806-1.583 1.706 0 0.918 0.723 1.667 1.631 1.709l0.004 0c0.020 0.001 0.044 0.001 0.069 0.001 0.482 0 0.924-0.172 1.267-0.459l-0.003 0.003-0.346-0.525c-0.258 0.207-0.588 0.335-0.947 0.34h-0.001c-0.023 0.002-0.050 0.003-0.077 0.003-0.462 0-0.842-0.346-0.897-0.793l-0-0.004h2.415c0-0.090 0-0.179 0-0.275 0.004-0.042 0.006-0.091 0.006-0.141 0-0.854-0.685-1.548-1.536-1.563l-0.001-0zM31.25 28.585c0.028-0.441 0.392-0.788 0.838-0.788 0.010 0 0.019 0 0.029 0l-0.001-0c0.006-0 0.013-0 0.019-0 0.439 0 0.796 0.351 0.807 0.787l0 0.001zM42.595 27.637c-0.228-0.29-0.58-0.475-0.974-0.475-0.018 0-0.036 0-0.053 0.001l0.003-0c-0.899 0.057-1.606 0.799-1.606 1.707s0.707 1.651 1.601 1.707l0.005 0c0.015 0.001 0.033 0.001 0.051 0.001 0.394 0 0.746-0.185 0.972-0.472l0.002-0.003v0.397h0.705v-3.261h-0.705zM41.641 29.937c-0.019 0.001-0.041 0.002-0.064 0.002-0.577 0-1.044-0.468-1.044-1.044s0.468-1.044 1.044-1.044c0.576 0 1.043 0.466 1.044 1.042v0c0.002 0.021 0.003 0.046 0.003 0.070 0 0.538-0.436 0.974-0.974 0.974-0.003 0-0.006 0-0.009-0h0zM49.168 27.637c-0.228-0.29-0.58-0.475-0.974-0.475-0.018 0-0.036 0-0.053 0.001l0.003-0c-0.899 0.057-1.606 0.799-1.606 1.707s0.707 1.651 1.601 1.707l0.005 0c0.015 0.001 0.033 0.001 0.051 0.001 0.394 0 0.746-0.185 0.972-0.472l0.002-0.003v0.397h0.711v-4.568h-0.711zM48.226 29.937c-0.019 0.001-0.041 0.002-0.064 0.002-0.577 0-1.044-0.468-1.044-1.044s0.468-1.044 1.044-1.044c0.576 0 1.043 0.466 1.044 1.042v0c0.002 0.021 0.003 0.046 0.003 0.070 0 0.538-0.436 0.974-0.974 0.974-0.003 0-0.006 0-0.009-0h0zM35.106 27.637v-0.397h-0.705v3.254h0.705v-1.839c0-0.538 0.231-0.839 0.692-0.839 0.003-0 0.008-0 0.012-0 0.155 0 0.303 0.031 0.438 0.086l-0.008-0.003 0.218-0.641c-0.151-0.056-0.324-0.089-0.506-0.090h-0c-0.006-0-0.014-0-0.021-0-0.349 0-0.654 0.186-0.822 0.464l-0.002 0.004zM38.393 27.829c0.322 0.004 0.618 0.114 0.855 0.297l-0.003-0.002 0.34-0.57c-0.293-0.244-0.673-0.392-1.087-0.392-0.021 0-0.042 0-0.063 0.001l0.003-0c-0.031-0.002-0.068-0.003-0.105-0.003-0.945 0-1.71 0.766-1.71 1.71s0.766 1.71 1.71 1.71c0.037 0 0.073-0.001 0.11-0.003l-0.005 0c0.025 0.001 0.054 0.002 0.084 0.002 0.415 0 0.795-0.148 1.091-0.395l-0.003 0.002-0.34-0.57c-0.234 0.181-0.53 0.291-0.851 0.295h-0.001c-0.54-0.044-0.962-0.493-0.962-1.041s0.422-0.997 0.959-1.041l0.004-0z"></path>
</svg>
