<svg version="1.1" xmlns="http://www.w3.org/2000/svg" width="64" height="32" viewBox="0 0 64 32">
<path d="M6.227 18.758c-0.304-0.197-0.654-0.367-1.024-0.49l-0.033-0.009c-0.343-0.114-0.737-0.179-1.147-0.179-0.002 0-0.005 0-0.007 0h0c-0.005-0-0.012-0-0.019-0-0.248 0-0.489 0.030-0.719 0.088l0.020-0.004c-0.211 0.051-0.397 0.132-0.564 0.241l0.007-0.004c-0.149 0.096-0.271 0.221-0.362 0.367l-0.003 0.005c-0.081 0.135-0.128 0.297-0.128 0.471 0 0.006 0 0.011 0 0.017v-0.001c-0 0.006-0 0.012-0 0.019 0 0.15 0.043 0.289 0.117 0.407l-0.002-0.003c0.082 0.122 0.19 0.222 0.316 0.292l0.005 0.002c0.147 0.083 0.318 0.151 0.498 0.196l0.014 0.003c0.18 0.054 0.411 0.107 0.647 0.148l0.039 0.006 0.545 0.070c0.356 0.049 0.672 0.121 0.978 0.216l-0.042-0.011c0.309 0.085 0.58 0.21 0.824 0.372l-0.011-0.007c0.238 0.168 0.431 0.382 0.572 0.631l0.005 0.010c0.138 0.253 0.219 0.554 0.219 0.874 0 0.019-0 0.038-0.001 0.057l0-0.003c0 0.012 0 0.026 0 0.039 0 0.375-0.095 0.728-0.262 1.035l0.006-0.011c-0.173 0.317-0.406 0.58-0.685 0.783l-0.007 0.005c-0.287 0.208-0.622 0.373-0.984 0.475l-0.022 0.005c-0.352 0.102-0.757 0.16-1.175 0.16-0.012 0-0.025-0-0.037-0h0.002c-0.295-0.002-0.583-0.027-0.864-0.075l0.031 0.004c-0.328-0.051-0.615-0.12-0.893-0.21l0.041 0.011c-0.311-0.098-0.577-0.209-0.829-0.34l0.028 0.013c-0.258-0.135-0.481-0.288-0.683-0.465l0.004 0.003 0.692-1.012c0.142 0.129 0.302 0.244 0.474 0.339l0.013 0.007c0.37 0.209 0.799 0.369 1.254 0.457l0.027 0.004c0.208 0.040 0.447 0.064 0.692 0.064h0c0.010 0 0.021 0 0.033 0 0.245 0 0.483-0.028 0.712-0.081l-0.021 0.004c0.229-0.044 0.433-0.122 0.618-0.229l-0.010 0.005c0.158-0.095 0.288-0.22 0.388-0.367l0.003-0.004c0.088-0.133 0.141-0.296 0.141-0.471 0-0.005-0-0.011-0-0.016v0.001c0-0.002 0-0.005 0-0.007 0-0.31-0.185-0.576-0.45-0.696l-0.005-0.002c-0.396-0.188-0.857-0.315-1.343-0.358l-0.015-0.001-0.641-0.083c-0.325-0.047-0.614-0.119-0.892-0.215l0.034 0.010c-0.287-0.095-0.536-0.23-0.755-0.401l0.006 0.004c-0.22-0.172-0.399-0.385-0.527-0.63l-0.005-0.011c-0.126-0.255-0.2-0.556-0.2-0.873 0-0.022 0-0.043 0.001-0.065l-0 0.003c-0-0.014-0-0.030-0-0.046 0-0.367 0.090-0.713 0.25-1.017l-0.006 0.012c0.16-0.307 0.375-0.563 0.635-0.765l0.005-0.004c0.281-0.206 0.61-0.369 0.965-0.469l0.022-0.005c0.35-0.102 0.751-0.16 1.167-0.16 0.013 0 0.027 0 0.040 0h-0.002c0.041-0.001 0.088-0.002 0.136-0.002 0.537 0 1.054 0.085 1.539 0.242l-0.035-0.010c0.489 0.17 0.912 0.386 1.299 0.652l-0.018-0.012zM10.519 19.36c0.008-0 0.017-0 0.027-0 0.363 0 0.708 0.075 1.021 0.212l-0.017-0.006c0.318 0.138 0.587 0.333 0.805 0.575l0.002 0.002c0.223 0.252 0.402 0.551 0.519 0.878l0.006 0.019c0.118 0.329 0.186 0.708 0.186 1.103 0 0.017-0 0.035-0 0.052l0-0.003c0 0.077 0 0.147 0 0.224s0 0.147 0 0.211h-4.004c0.029 0.239 0.101 0.456 0.21 0.65l-0.005-0.009c0.097 0.166 0.219 0.306 0.362 0.42l0.003 0.002c0.136 0.106 0.296 0.189 0.47 0.241l0.010 0.003c0.161 0.049 0.346 0.077 0.538 0.077 0.004 0 0.009 0 0.013-0h-0.001c0.292-0.001 0.572-0.055 0.83-0.153l-0.016 0.005c0.285-0.105 0.531-0.246 0.748-0.42l-0.005 0.004 0.589 0.82c-0.294 0.258-0.645 0.46-1.030 0.584l-0.021 0.006c-0.341 0.106-0.734 0.167-1.14 0.167-0.009 0-0.018-0-0.027-0h0.001c-0.004 0-0.008 0-0.012 0-0.397 0-0.776-0.078-1.122-0.219l0.020 0.007c-0.34-0.138-0.63-0.333-0.871-0.576l-0-0c-0.244-0.249-0.438-0.547-0.564-0.879l-0.006-0.018c-0.13-0.335-0.205-0.723-0.205-1.128 0-0.013 0-0.027 0-0.040l-0 0.002c-0-0.010-0-0.022-0-0.034 0-0.402 0.073-0.786 0.206-1.141l-0.007 0.022c0.129-0.348 0.316-0.646 0.552-0.898l-0.001 0.001c0.233-0.244 0.515-0.439 0.829-0.571l0.016-0.006c0.299-0.118 0.645-0.187 1.007-0.187 0.029 0 0.058 0 0.086 0.001l-0.004-0zM10.519 20.404c-0.007-0-0.015-0-0.023-0-0.192 0-0.376 0.035-0.545 0.1l0.011-0.003c-0.165 0.065-0.306 0.158-0.423 0.275l-0 0c-0.117 0.119-0.214 0.259-0.285 0.414l-0.004 0.009c-0.073 0.156-0.129 0.337-0.159 0.527l-0.001 0.011h2.793c-0.041-0.383-0.204-0.721-0.449-0.981l0.001 0.001c-0.229-0.219-0.541-0.353-0.884-0.353-0.018 0-0.036 0-0.054 0.001l0.003-0zM16.772 19.36c0.008-0 0.017-0 0.026-0 0.4 0 0.781 0.080 1.128 0.225l-0.019-0.007c0.352 0.145 0.649 0.363 0.881 0.637l0.003 0.003-0.756 0.807c-0.17-0.165-0.367-0.305-0.582-0.41l-0.013-0.006c-0.196-0.089-0.425-0.141-0.666-0.141-0.011 0-0.023 0-0.034 0l0.002-0c-0.006-0-0.012-0-0.019-0-0.225 0-0.438 0.047-0.631 0.132l0.010-0.004c-0.198 0.085-0.367 0.204-0.505 0.352l-0.001 0.001c-0.141 0.153-0.254 0.334-0.329 0.533l-0.004 0.011c-0.077 0.209-0.121 0.45-0.121 0.701s0.044 0.493 0.126 0.716l-0.005-0.015c0.079 0.211 0.192 0.392 0.334 0.546l-0.001-0.001c0.14 0.148 0.308 0.267 0.496 0.349l0.010 0.004c0.183 0.081 0.397 0.128 0.621 0.128 0.007 0 0.014-0 0.020-0h-0.001c0.003 0 0.006 0 0.010 0 0.259 0 0.505-0.059 0.724-0.165l-0.010 0.004c0.229-0.109 0.425-0.244 0.597-0.405l-0.001 0.001 0.705 0.814c-0.239 0.275-0.537 0.493-0.875 0.635l-0.016 0.006c-0.325 0.138-0.703 0.218-1.1 0.218-0.010 0-0.020-0-0.029-0h0.002c-0.012 0-0.026 0-0.040 0-0.406 0-0.793-0.080-1.146-0.225l0.020 0.007c-0.686-0.271-1.218-0.806-1.48-1.475l-0.006-0.018c-0.129-0.334-0.204-0.72-0.204-1.124s0.075-0.79 0.211-1.146l-0.007 0.022c0.265-0.683 0.79-1.216 1.45-1.486l0.017-0.006c0.334-0.138 0.721-0.218 1.127-0.218 0.020 0 0.041 0 0.061 0.001l-0.003-0zM24.792 22.602c0.001 0.021 0.001 0.046 0.001 0.071 0 0.373-0.078 0.727-0.219 1.047l0.007-0.017c-0.135 0.299-0.326 0.551-0.561 0.754l-0.003 0.002c-0.225 0.189-0.492 0.336-0.785 0.425l-0.016 0.004c-0.276 0.087-0.593 0.138-0.922 0.138s-0.647-0.050-0.945-0.144l0.022 0.006c-0.308-0.094-0.575-0.241-0.804-0.432l0.004 0.003c-0.239-0.203-0.43-0.456-0.558-0.743l-0.005-0.013c-0.134-0.305-0.212-0.661-0.212-1.036 0-0.023 0-0.046 0.001-0.070l-0 0.003v-3.107h1.179v2.998c-0 0.006-0 0.014-0 0.021 0 0.222 0.038 0.435 0.107 0.633l-0.004-0.013c0.060 0.173 0.154 0.321 0.276 0.442v0c0.115 0.109 0.254 0.192 0.409 0.241l0.008 0.002c0.155 0.049 0.334 0.076 0.519 0.076s0.364-0.028 0.532-0.080l-0.013 0.003c0.162-0.051 0.302-0.135 0.417-0.244l-0 0c0.121-0.121 0.215-0.269 0.273-0.434l0.002-0.008c0.065-0.185 0.103-0.398 0.103-0.62 0-0.007-0-0.015-0-0.022v0.001-2.998h1.192zM29.084 19.354c0.004-0 0.009-0 0.014-0 0.167 0 0.331 0.014 0.49 0.041l-0.017-0.002c0.158 0.027 0.298 0.067 0.431 0.12l-0.014-0.005-0.282 1.166c-0.126-0.065-0.272-0.116-0.425-0.146l-0.011-0.002c-0.138-0.031-0.297-0.050-0.46-0.051h-0.001c-0.004-0-0.009-0-0.014-0-0.182 0-0.355 0.035-0.514 0.099l0.009-0.003c-0.159 0.065-0.294 0.161-0.403 0.281l-0.001 0.001c-0.113 0.128-0.203 0.279-0.26 0.446l-0.003 0.009c-0.061 0.175-0.097 0.377-0.097 0.587 0 0.019 0 0.038 0.001 0.057l-0-0.003v2.966h-1.172v-5.42h1.192v0.609c0.16-0.243 0.376-0.437 0.631-0.566l0.009-0.004c0.25-0.11 0.541-0.174 0.847-0.174 0.018 0 0.035 0 0.053 0.001l-0.003-0zM33.037 19.354c0.008-0 0.017-0 0.027-0 0.363 0 0.708 0.075 1.021 0.212l-0.017-0.006c0.318 0.138 0.587 0.333 0.805 0.575l0.002 0.002c0.224 0.252 0.402 0.551 0.519 0.878l0.006 0.019c0.118 0.329 0.186 0.708 0.186 1.103 0 0.017-0 0.035-0 0.052l0-0.003c0 0.077 0 0.147 0 0.224s0 0.147 0 0.211h-4.010c0.029 0.239 0.101 0.456 0.21 0.65l-0.005-0.009c0.097 0.166 0.218 0.306 0.362 0.42l0.003 0.002c0.136 0.106 0.296 0.189 0.47 0.241l0.010 0.003c0.161 0.049 0.346 0.077 0.538 0.077 0.004 0 0.009 0 0.013-0h-0.001c0.292-0.001 0.572-0.055 0.83-0.153l-0.016 0.005c0.285-0.105 0.531-0.246 0.748-0.42l-0.005 0.004 0.583 0.839c-0.294 0.258-0.645 0.46-1.030 0.584l-0.021 0.006c-0.341 0.106-0.734 0.167-1.14 0.167-0.009 0-0.018-0-0.027-0h0.001c-0.401-0.004-0.781-0.086-1.128-0.232l0.020 0.007c-0.34-0.137-0.63-0.332-0.871-0.576l-0-0c-0.244-0.249-0.438-0.547-0.564-0.879l-0.006-0.018c-0.13-0.335-0.205-0.723-0.205-1.128 0-0.013 0-0.027 0-0.040l-0 0.002c-0-0.010-0-0.022-0-0.034 0-0.402 0.073-0.786 0.206-1.141l-0.007 0.022c0.129-0.348 0.316-0.646 0.552-0.898l-0.001 0.001c0.233-0.244 0.515-0.439 0.829-0.571l0.016-0.006c0.299-0.118 0.645-0.187 1.008-0.187 0.031 0 0.062 0 0.092 0.002l-0.004-0zM33.037 20.398c-0.007-0-0.015-0-0.023-0-0.192 0-0.376 0.035-0.545 0.1l0.011-0.003c-0.165 0.065-0.306 0.158-0.423 0.275l-0 0c-0.117 0.119-0.214 0.259-0.285 0.414l-0.004 0.009c-0.073 0.156-0.129 0.337-0.159 0.527l-0.001 0.011h2.793c-0.041-0.383-0.204-0.721-0.449-0.981l0.001 0.001c-0.229-0.215-0.538-0.348-0.877-0.348-0.023 0-0.045 0.001-0.067 0.002l0.003-0zM40.68 16.862c0.001 0 0.001 0 0.002 0 0.358 0 0.707 0.042 1.041 0.121l-0.030-0.006c0.345 0.079 0.648 0.192 0.932 0.337l-0.022-0.010c0.291 0.148 0.541 0.321 0.766 0.522l-0.003-0.003c0.223 0.198 0.414 0.426 0.569 0.679l0.007 0.013-1.083 0.705c-0.24-0.342-0.552-0.616-0.915-0.807l-0.014-0.007c-0.356-0.19-0.779-0.302-1.228-0.302-0.019 0-0.037 0-0.056 0.001l0.003-0c-0.011-0-0.024-0-0.037-0-0.388 0-0.759 0.075-1.098 0.212l0.020-0.007c-0.345 0.139-0.639 0.337-0.884 0.583l-0 0c-0.246 0.252-0.444 0.552-0.577 0.885l-0.006 0.018c-0.134 0.346-0.212 0.747-0.212 1.166s0.078 0.82 0.219 1.189l-0.008-0.023c0.139 0.351 0.337 0.652 0.583 0.904l-0.001-0c0.245 0.247 0.539 0.444 0.867 0.577l0.017 0.006c0.319 0.13 0.689 0.205 1.077 0.205 0.013 0 0.027-0 0.040-0l-0.002 0c0.020 0.001 0.044 0.001 0.067 0.001 0.88 0 1.657-0.444 2.118-1.12l0.006-0.009 1.038 0.762c-0.174 0.243-0.371 0.453-0.59 0.636l-0.005 0.004c-0.22 0.189-0.468 0.355-0.735 0.49l-0.021 0.010c-0.256 0.132-0.553 0.242-0.864 0.315l-0.027 0.005c-0.3 0.069-0.645 0.109-0.999 0.109-0.597 0-1.167-0.113-1.691-0.319l0.031 0.011c-0.988-0.394-1.756-1.16-2.143-2.121l-0.009-0.026c-0.192-0.484-0.303-1.044-0.303-1.63s0.111-1.147 0.314-1.661l-0.011 0.031c0.397-0.986 1.165-1.752 2.127-2.137l0.026-0.009c0.475-0.191 1.026-0.302 1.603-0.302 0.027 0 0.053 0 0.080 0.001l-0.004-0zM47.63 19.354c0.007-0 0.016-0 0.025-0 0.407 0 0.794 0.080 1.149 0.225l-0.020-0.007c0.358 0.144 0.665 0.346 0.923 0.596l-0.001-0.001c0.254 0.249 0.46 0.547 0.602 0.879l0.007 0.018c0.138 0.333 0.219 0.719 0.219 1.124s-0.080 0.792-0.226 1.144l0.007-0.020c-0.149 0.35-0.354 0.648-0.608 0.896l-0 0c-0.258 0.25-0.564 0.451-0.904 0.589l-0.019 0.007c-0.343 0.137-0.74 0.216-1.156 0.216s-0.813-0.079-1.178-0.224l0.022 0.008c-0.356-0.144-0.66-0.346-0.917-0.596l0.001 0c-0.251-0.25-0.455-0.548-0.595-0.879l-0.007-0.018c-0.138-0.333-0.219-0.719-0.219-1.124s0.080-0.792 0.226-1.144l-0.007 0.020c0.147-0.349 0.351-0.647 0.602-0.897l0-0c0.256-0.25 0.56-0.452 0.897-0.589l0.019-0.007c0.33-0.134 0.713-0.212 1.113-0.212 0.007 0 0.014 0 0.022 0h-0.001zM47.63 20.462c-0.231 0.002-0.451 0.049-0.652 0.132l0.012-0.004c-0.207 0.085-0.384 0.204-0.532 0.352l-0 0c-0.148 0.152-0.267 0.333-0.348 0.533l-0.004 0.011c-0.082 0.208-0.13 0.449-0.13 0.701s0.048 0.493 0.134 0.715l-0.005-0.013c0.085 0.212 0.204 0.392 0.353 0.545l-0-0c0.148 0.148 0.325 0.268 0.521 0.349l0.011 0.004c0.198 0.080 0.428 0.127 0.669 0.127s0.471-0.047 0.682-0.131l-0.012 0.004c0.411-0.166 0.731-0.486 0.893-0.886l0.004-0.011c0.082-0.208 0.13-0.449 0.13-0.701s-0.048-0.493-0.134-0.715l0.005 0.013c-0.086-0.212-0.208-0.393-0.359-0.545l0 0c-0.15-0.148-0.329-0.268-0.527-0.348l-0.011-0.004c-0.191-0.078-0.413-0.123-0.645-0.123-0.028 0-0.055 0.001-0.082 0.002l0.004-0zM54.069 19.354c0.015-0 0.033-0.001 0.051-0.001 0.655 0 1.239 0.31 1.611 0.79l0.003 0.005v-3.363h1.179v8.104h-1.179v-0.641c-0.187 0.239-0.42 0.433-0.687 0.571l-0.012 0.005c-0.273 0.134-0.594 0.212-0.933 0.212-0.021 0-0.042-0-0.063-0.001l0.003 0c-0.010 0-0.022 0-0.033 0-0.741 0-1.41-0.307-1.888-0.8l-0.001-0.001c-0.243-0.25-0.438-0.548-0.57-0.879l-0.006-0.018c-0.133-0.338-0.21-0.73-0.21-1.14s0.077-0.802 0.217-1.162l-0.007 0.022c0.139-0.348 0.334-0.646 0.577-0.898l-0.001 0.001c0.478-0.494 1.148-0.801 1.888-0.801 0.012 0 0.024 0 0.035 0l-0.002-0zM54.21 20.462c-0.011-0-0.024-0-0.037-0-0.235 0-0.458 0.050-0.659 0.139l0.010-0.004c-0.199 0.091-0.367 0.217-0.505 0.37l-0.001 0.001c-0.137 0.155-0.246 0.338-0.317 0.539l-0.004 0.012c-0.071 0.2-0.113 0.43-0.113 0.669s0.041 0.47 0.117 0.684l-0.004-0.014c0.075 0.213 0.184 0.396 0.322 0.553l-0.002-0.002c0.139 0.155 0.307 0.28 0.497 0.368l0.009 0.004c0.199 0.085 0.43 0.135 0.673 0.135s0.474-0.049 0.684-0.139l-0.011 0.004c0.201-0.089 0.371-0.212 0.512-0.364l0.001-0.001c0.141-0.153 0.254-0.334 0.329-0.533l0.004-0.011c0.075-0.204 0.118-0.44 0.118-0.685s-0.043-0.481-0.123-0.7l0.005 0.014c-0.079-0.211-0.192-0.392-0.334-0.546l0.001 0.001c-0.141-0.152-0.312-0.276-0.503-0.361l-0.010-0.004c-0.183-0.078-0.397-0.123-0.621-0.123-0.023 0-0.045 0-0.068 0.001l0.003-0zM60.859 19.36c0.008-0 0.017-0 0.027-0 0.363 0 0.708 0.075 1.021 0.212l-0.017-0.006c0.318 0.138 0.587 0.333 0.805 0.575l0.002 0.002c0.224 0.252 0.402 0.551 0.519 0.878l0.006 0.019c0.118 0.328 0.186 0.707 0.186 1.102 0 0.018-0 0.036-0 0.053l0-0.003c0 0.077 0 0.147 0 0.224s0 0.147 0 0.211h-4.036c0.028 0.239 0.101 0.456 0.21 0.649l-0.005-0.009c0.096 0.166 0.218 0.307 0.362 0.42l0.003 0.002c0.136 0.106 0.296 0.19 0.47 0.241l0.010 0.003c0.161 0.049 0.346 0.077 0.538 0.077 0.004 0 0.009 0 0.013-0h-0.001c0.292-0.001 0.572-0.055 0.83-0.153l-0.016 0.005c0.285-0.105 0.531-0.246 0.748-0.42l-0.005 0.004 0.583 0.839c-0.294 0.258-0.645 0.459-1.030 0.584l-0.021 0.006c-0.341 0.106-0.733 0.167-1.139 0.167-0.009 0-0.019-0-0.028-0h0.001c-0.401-0.006-0.781-0.090-1.128-0.238l0.019 0.007c-0.34-0.137-0.63-0.332-0.871-0.576l-0-0c-0.243-0.249-0.437-0.548-0.564-0.879l-0.006-0.018c-0.13-0.335-0.205-0.723-0.205-1.128 0-0.013 0-0.027 0-0.040l-0 0.002c-0-0.010-0-0.022-0-0.034 0-0.402 0.073-0.786 0.206-1.141l-0.007 0.022c0.129-0.348 0.316-0.646 0.552-0.898l-0.001 0.001c0.233-0.244 0.515-0.439 0.829-0.571l0.016-0.006c0.3-0.119 0.647-0.188 1.010-0.188 0.039 0 0.078 0.001 0.117 0.002l-0.006-0zM60.859 20.404c-0.007-0-0.015-0-0.023-0-0.192 0-0.376 0.035-0.545 0.1l0.011-0.003c-0.165 0.065-0.306 0.158-0.423 0.275l-0 0c-0.117 0.119-0.214 0.259-0.285 0.414l-0.004 0.009c-0.073 0.156-0.129 0.337-0.159 0.527l-0.001 0.011h2.793c-0.040-0.383-0.204-0.721-0.449-0.981l0.001 0.001c-0.23-0.22-0.542-0.355-0.885-0.355-0.029 0-0.058 0.001-0.086 0.003l0.004-0zM10.096 13.774h-1.32v-6.72l-2.37 5.919h-1.403l-2.383-5.855v6.656h-1.339v-8.181h2.044l2.377 5.849 2.37-5.849h2.024zM17.041 13.774h-1.217v-0.641c-0.194 0.247-0.436 0.448-0.712 0.59l-0.012 0.006c-0.268 0.123-0.581 0.194-0.911 0.194-0.033 0-0.066-0.001-0.099-0.002l0.005 0c-0.009 0-0.021 0-0.032 0-0.766 0-1.459-0.317-1.953-0.826l-0.001-0.001c-0.25-0.26-0.452-0.568-0.589-0.91l-0.007-0.019c-0.137-0.351-0.216-0.757-0.216-1.182s0.079-0.831 0.224-1.205l-0.008 0.023c0.144-0.361 0.345-0.669 0.597-0.93l-0.001 0.001c0.496-0.514 1.191-0.833 1.96-0.833 0.009 0 0.018 0 0.027 0h-0.001c0.018-0.001 0.039-0.001 0.060-0.001 0.354 0 0.688 0.083 0.984 0.231l-0.013-0.006c0.288 0.149 0.529 0.349 0.72 0.591l0.004 0.005v-0.705h1.217zM14.209 9.187c-0.011-0-0.023-0-0.036-0-0.244 0-0.477 0.052-0.686 0.146l0.011-0.004c-0.206 0.095-0.381 0.224-0.524 0.383l-0.001 0.001c-0.142 0.16-0.255 0.35-0.329 0.558l-0.004 0.012c-0.074 0.207-0.117 0.446-0.117 0.695s0.043 0.488 0.121 0.71l-0.005-0.015c0.078 0.22 0.191 0.41 0.335 0.572l-0.002-0.002c0.144 0.16 0.319 0.29 0.515 0.38l0.010 0.004c0.206 0.088 0.446 0.14 0.698 0.14s0.492-0.051 0.71-0.144l-0.012 0.004c0.208-0.092 0.385-0.22 0.531-0.377l0.001-0.001c0.146-0.158 0.264-0.345 0.342-0.552l0.004-0.012c0.077-0.212 0.122-0.456 0.122-0.711s-0.045-0.499-0.127-0.726l0.005 0.015c-0.082-0.218-0.2-0.406-0.347-0.565l0.001 0.001c-0.147-0.158-0.323-0.285-0.522-0.374l-0.010-0.004c-0.194-0.085-0.421-0.135-0.659-0.135-0.009 0-0.019 0-0.028 0l0.001-0zM22.64 9.584c-0.084-0.050-0.187-0.103-0.293-0.152l-0.021-0.009c-0.111-0.051-0.249-0.103-0.391-0.147l-0.025-0.007c-0.127-0.040-0.289-0.080-0.454-0.111l-0.027-0.004c-0.152-0.029-0.326-0.045-0.504-0.045-0.005 0-0.010 0-0.015 0h0.001c-0.024-0.001-0.052-0.002-0.080-0.002-0.258 0-0.5 0.070-0.708 0.192l0.007-0.004c-0.166 0.098-0.275 0.277-0.275 0.48v0c-0 0.005-0 0.010-0 0.015 0 0.085 0.026 0.164 0.072 0.23l-0.001-0.001c0.052 0.070 0.119 0.126 0.195 0.165l0.003 0.001c0.085 0.044 0.183 0.079 0.287 0.101l0.367 0.065 0.577 0.090c0.54 0.056 1.027 0.247 1.438 0.538l-0.009-0.006c0.314 0.246 0.514 0.625 0.514 1.052 0 0.022-0.001 0.044-0.002 0.066l0-0.003c0 0.004 0 0.009 0 0.014 0 0.264-0.064 0.512-0.177 0.731l0.004-0.009c-0.122 0.232-0.288 0.425-0.489 0.573l-0.005 0.003c-0.228 0.166-0.495 0.296-0.784 0.374l-0.017 0.004c-0.314 0.090-0.676 0.141-1.049 0.141-0.007 0-0.015-0-0.022-0h0.001q-0.218 0-0.5 0c-0.229-0.022-0.436-0.058-0.637-0.109l0.029 0.006c-0.251-0.065-0.464-0.139-0.669-0.229l0.028 0.011c-0.245-0.103-0.455-0.226-0.648-0.371l0.008 0.006 0.564-0.916c0.095 0.073 0.201 0.146 0.313 0.21l0.014 0.007c0.114 0.066 0.248 0.126 0.387 0.174l0.017 0.005c0.138 0.051 0.304 0.095 0.475 0.125l0.018 0.003c0.173 0.029 0.372 0.045 0.576 0.045 0.023 0 0.046-0 0.068-0.001l-0.003 0c0.342-0.005 0.661-0.097 0.939-0.255l-0.010 0.005c0.189-0.091 0.318-0.28 0.32-0.499v-0c-0.003-0.166-0.094-0.311-0.228-0.39l-0.002-0.001c-0.213-0.12-0.463-0.201-0.73-0.224l-0.007-0-0.577-0.051c-0.539-0.045-1.025-0.243-1.422-0.549l0.006 0.005c-0.31-0.255-0.506-0.638-0.506-1.067 0-0.010 0-0.020 0-0.030l-0 0.001c-0-0.009-0-0.019-0-0.029 0-0.262 0.059-0.509 0.165-0.731l-0.004 0.010c0.111-0.227 0.267-0.415 0.457-0.561l0.004-0.003c0.211-0.16 0.459-0.286 0.728-0.361l0.016-0.004c0.278-0.081 0.596-0.128 0.926-0.128 0.012 0 0.024 0 0.036 0h-0.002c0.010-0 0.022-0 0.033-0 0.43 0 0.846 0.056 1.243 0.161l-0.034-0.008c0.386 0.1 0.726 0.249 1.033 0.444l-0.015-0.009zM28.405 9.289h-2.14v2.434c-0 0.010-0 0.021-0 0.033 0 0.16 0.026 0.314 0.074 0.458l-0.003-0.010c0.042 0.127 0.108 0.236 0.193 0.327l-0.001-0.001c0.076 0.082 0.171 0.145 0.277 0.184l0.005 0.002c0.1 0.037 0.216 0.058 0.337 0.058 0.003 0 0.006 0 0.010-0h-0c0.21-0 0.41-0.040 0.594-0.113l-0.011 0.004c0.209-0.079 0.389-0.17 0.557-0.276l-0.012 0.007 0.487 0.974c-0.219 0.148-0.471 0.279-0.736 0.382l-0.026 0.009c-0.274 0.106-0.591 0.167-0.922 0.167-0.011 0-0.023-0-0.034-0l0.002 0c-0.019 0.001-0.041 0.001-0.063 0.001-0.529 0-1.009-0.205-1.367-0.54l0.001 0.001c-0.332-0.388-0.533-0.896-0.533-1.452 0-0.066 0.003-0.132 0.009-0.197l-0.001 0.008v-2.46h-1.147v-1.134h1.115v-1.666h1.198v1.666h2.14zM32.159 8.008c0.010-0 0.021-0 0.033-0 0.375 0 0.731 0.078 1.054 0.218l-0.017-0.007c0.328 0.145 0.606 0.348 0.831 0.6l0.002 0.002c0.231 0.262 0.416 0.57 0.538 0.909l0.006 0.020c0.126 0.345 0.199 0.744 0.199 1.16 0 0.011-0 0.022-0 0.033v-0.002c0 0.077 0 0.154 0 0.231s0 0.154 0 0.224h-4.132c0.035 0.24 0.111 0.456 0.222 0.649l-0.005-0.009c0.1 0.174 0.226 0.32 0.375 0.44l0.003 0.002c0.14 0.111 0.304 0.198 0.483 0.253l0.011 0.003c0.17 0.053 0.366 0.083 0.569 0.083 0 0 0.001 0 0.001 0h-0c0.304-0.001 0.595-0.057 0.862-0.159l-0.017 0.006c0.296-0.099 0.553-0.236 0.782-0.409l-0.007 0.005 0.609 0.871c-0.303 0.278-0.667 0.497-1.068 0.634l-0.021 0.006c-0.354 0.11-0.761 0.173-1.183 0.173-0.010 0-0.019-0-0.029-0h0.001c-0.009 0-0.019 0-0.030 0-0.404 0-0.79-0.078-1.144-0.219l0.021 0.007c-0.353-0.141-0.653-0.343-0.903-0.596l-0-0c-0.251-0.258-0.451-0.567-0.583-0.91l-0.006-0.018c-0.134-0.346-0.212-0.747-0.212-1.166 0-0.016 0-0.031 0-0.047l-0 0.002c-0-0.012-0-0.025-0-0.039 0-0.416 0.075-0.814 0.213-1.182l-0.008 0.023c0.134-0.36 0.327-0.669 0.572-0.93l-0.001 0.002c0.242-0.254 0.534-0.458 0.861-0.596l0.017-0.006c0.333-0.145 0.72-0.23 1.127-0.231h0zM32.159 9.091c-0.011-0-0.024-0-0.038-0-0.196 0-0.383 0.035-0.556 0.1l0.011-0.004c-0.17 0.067-0.315 0.162-0.436 0.282l0-0c-0.122 0.123-0.223 0.267-0.297 0.426l-0.004 0.009c-0.076 0.162-0.134 0.349-0.165 0.546l-0.002 0.012h2.902c-0.042-0.398-0.213-0.749-0.468-1.019l0.001 0.001c-0.225-0.201-0.524-0.324-0.852-0.324-0.034 0-0.068 0.001-0.101 0.004l0.004-0zM39.078 8.040c0.007-0 0.015-0 0.023-0 0.171 0 0.338 0.014 0.501 0.041l-0.018-0.002c0.165 0.029 0.311 0.071 0.451 0.127l-0.015-0.005-0.301 1.204c-0.129-0.067-0.279-0.12-0.437-0.152l-0.011-0.002c-0.144-0.032-0.31-0.050-0.48-0.051h-0.001c-0.007-0-0.015-0-0.024-0-0.185 0-0.362 0.035-0.524 0.1l0.010-0.003c-0.167 0.068-0.308 0.168-0.422 0.294l-0.001 0.001c-0.119 0.133-0.213 0.291-0.273 0.464l-0.003 0.010c-0.061 0.18-0.096 0.386-0.096 0.601 0 0.014 0 0.028 0 0.041l-0-0.002v3.075h-1.217v-5.625h1.211v0.641c0.173-0.255 0.407-0.456 0.682-0.585l0.010-0.004c0.251-0.106 0.543-0.168 0.85-0.168 0.030 0 0.060 0.001 0.090 0.002l-0.004-0zM43.249 8.040c0.008-0 0.017-0 0.027-0 0.413 0 0.807 0.082 1.166 0.232l-0.020-0.007c0.363 0.144 0.67 0.362 0.914 0.638l0.002 0.003-0.782 0.833c-0.182-0.172-0.394-0.316-0.626-0.423l-0.015-0.006c-0.204-0.093-0.443-0.148-0.694-0.148-0.011 0-0.021 0-0.032 0l0.002-0c-0.232 0.001-0.452 0.050-0.651 0.139l0.010-0.004c-0.206 0.088-0.38 0.212-0.525 0.364l-0.001 0.001c-0.147 0.158-0.264 0.345-0.342 0.552l-0.004 0.012c-0.080 0.216-0.126 0.466-0.126 0.727s0.046 0.511 0.131 0.742l-0.005-0.015c0.082 0.218 0.199 0.406 0.347 0.565l-0.001-0.001c0.145 0.153 0.32 0.277 0.515 0.361l0.010 0.004c0.189 0.084 0.409 0.133 0.64 0.135h0c0.002 0 0.005 0 0.007 0 0.27 0 0.525-0.061 0.752-0.171l-0.010 0.005c0.246-0.111 0.457-0.25 0.643-0.418l-0.002 0.002 0.75 0.839c-0.25 0.276-0.558 0.494-0.906 0.635l-0.017 0.006c-0.336 0.142-0.727 0.224-1.137 0.224-0.010 0-0.021-0-0.031-0h0.002c-0.014 0-0.031 0-0.047 0-0.419 0-0.819-0.082-1.184-0.232l0.021 0.008c-0.705-0.286-1.25-0.84-1.518-1.532l-0.006-0.018c-0.133-0.346-0.21-0.747-0.21-1.166s0.077-0.819 0.218-1.189l-0.008 0.023c0.274-0.711 0.82-1.265 1.507-1.544l0.018-0.006c0.304-0.108 0.655-0.171 1.020-0.171 0.060 0 0.12 0.002 0.179 0.005l-0.008-0zM51.839 13.806h-1.23v-0.641c-0.194 0.247-0.436 0.447-0.712 0.59l-0.012 0.006c-0.285 0.142-0.622 0.225-0.977 0.225-0.019 0-0.038-0-0.057-0.001l0.003 0c-0.010 0-0.021 0-0.032 0-0.766 0-1.459-0.317-1.953-0.826l-0.001-0.001c-0.25-0.26-0.452-0.568-0.589-0.91l-0.007-0.019c-0.137-0.351-0.216-0.757-0.216-1.182s0.079-0.831 0.224-1.205l-0.008 0.023c0.144-0.361 0.345-0.669 0.597-0.93l-0.001 0.001c0.495-0.51 1.188-0.827 1.954-0.827 0.011 0 0.023 0 0.034 0l-0.002-0c0.018-0.001 0.039-0.001 0.060-0.001 0.354 0 0.688 0.083 0.984 0.231l-0.013-0.006c0.284 0.129 0.525 0.307 0.722 0.524l0.002 0.002v-0.705h1.217zM49.008 9.219c-0.011-0-0.023-0-0.036-0-0.244 0-0.477 0.052-0.686 0.146l0.011-0.004c-0.206 0.095-0.381 0.224-0.524 0.383l-0.001 0.001c-0.142 0.16-0.255 0.35-0.329 0.558l-0.004 0.012c-0.074 0.207-0.117 0.446-0.117 0.695s0.043 0.488 0.121 0.71l-0.005-0.015c0.078 0.22 0.191 0.41 0.335 0.572l-0.002-0.002c0.144 0.16 0.319 0.29 0.516 0.38l0.010 0.004c0.206 0.088 0.446 0.14 0.698 0.14s0.492-0.051 0.71-0.144l-0.012 0.004c0.208-0.093 0.385-0.22 0.531-0.377l0.001-0.001c0.147-0.158 0.264-0.345 0.342-0.552l0.004-0.012c0.078-0.212 0.122-0.456 0.122-0.711s-0.045-0.499-0.127-0.726l0.005 0.015c-0.082-0.218-0.199-0.406-0.347-0.565l0.001 0.001c-0.147-0.158-0.324-0.285-0.522-0.374l-0.010-0.004c-0.208-0.102-0.452-0.163-0.71-0.167h-0.001zM56.465 8.072c0.007-0 0.015-0 0.023-0 0.171 0 0.338 0.014 0.501 0.041l-0.018-0.002c0.165 0.029 0.311 0.071 0.451 0.127l-0.015-0.005-0.295 1.211c-0.129-0.067-0.279-0.12-0.437-0.152l-0.011-0.002c-0.144-0.032-0.31-0.050-0.48-0.051h-0.001c-0.007-0-0.016-0-0.025-0-0.185 0-0.361 0.035-0.523 0.1l0.010-0.003c-0.167 0.068-0.308 0.168-0.422 0.294l-0.001 0.001c-0.119 0.133-0.213 0.291-0.273 0.464l-0.003 0.010c-0.061 0.18-0.096 0.386-0.096 0.601 0 0.014 0 0.028 0 0.041l-0-0.002v3.075h-1.217v-5.663h1.211v0.641c0.173-0.255 0.407-0.456 0.682-0.585l0.010-0.004c0.251-0.106 0.543-0.167 0.849-0.167 0.021 0 0.043 0 0.064 0.001l-0.003-0zM60.469 8.072c0.018-0.001 0.039-0.001 0.060-0.001 0.354 0 0.688 0.083 0.984 0.231l-0.013-0.006c0.288 0.149 0.529 0.35 0.72 0.591l0.004 0.005v-3.523h1.198v8.405h-1.217v-0.641c-0.194 0.247-0.436 0.447-0.712 0.59l-0.012 0.006c-0.285 0.142-0.622 0.225-0.977 0.225-0.019 0-0.038-0-0.057-0.001l0.003 0c-0.010 0-0.021 0-0.032 0-0.766 0-1.459-0.317-1.953-0.826l-0.001-0.001c-0.25-0.26-0.452-0.568-0.589-0.91l-0.007-0.019c-0.137-0.351-0.216-0.757-0.216-1.182s0.079-0.831 0.224-1.205l-0.008 0.023c0.144-0.361 0.345-0.669 0.597-0.93l-0.001 0.001c0.495-0.51 1.188-0.827 1.954-0.827 0.011 0 0.023 0 0.034 0l-0.002-0zM60.616 9.219c-0.011-0-0.023-0-0.036-0-0.244 0-0.477 0.052-0.686 0.146l0.011-0.004c-0.206 0.095-0.381 0.224-0.524 0.383l-0.001 0.001c-0.142 0.16-0.255 0.35-0.329 0.558l-0.004 0.012c-0.074 0.207-0.117 0.446-0.117 0.695s0.043 0.488 0.121 0.71l-0.005-0.015c0.078 0.22 0.191 0.41 0.335 0.572l-0.002-0.002c0.144 0.16 0.319 0.29 0.516 0.38l0.010 0.004c0.206 0.088 0.446 0.14 0.698 0.14s0.492-0.051 0.71-0.144l-0.012 0.004c0.208-0.093 0.385-0.22 0.531-0.377l0.001-0.001c0.147-0.158 0.264-0.345 0.342-0.552l0.004-0.012c0.078-0.212 0.122-0.456 0.122-0.711s-0.045-0.499-0.127-0.726l0.005 0.015c-0.082-0.218-0.199-0.406-0.347-0.565l0.001 0.001c-0.147-0.158-0.324-0.285-0.522-0.374l-0.010-0.004c-0.208-0.102-0.452-0.163-0.71-0.167h-0.001z"></path>
</svg>
