<svg version="1.1" xmlns="http://www.w3.org/2000/svg" width="64" height="32" viewBox="0 0 64 32">
<path d="M8.046-0.173v30.75h47.97v-30.75zM25.183 29.655h-16.214v-28.905h46.125v17.617c-4.023 2.39-14.241 7.771-29.911 11.288zM11.941 9.18h-2.050v7.194h2.050c0.067 0.004 0.145 0.007 0.224 0.007 0.889 0 1.706-0.312 2.346-0.832l-0.007 0.005c0.786-0.669 1.281-1.66 1.281-2.766 0-0.001 0-0.001 0-0.002v0c0.026-2.114-1.55-3.607-3.844-3.607zM13.581 14.607c-0.454 0.359-1.034 0.576-1.666 0.576-0.090 0-0.179-0.004-0.267-0.013l0.011 0.001h-0.365v-4.76h0.365c0.083-0.010 0.179-0.015 0.277-0.015 0.628 0 1.204 0.226 1.649 0.601l-0.004-0.003c0.477 0.437 0.775 1.063 0.775 1.759 0 0.012-0 0.024-0 0.036l0-0.002c0 0.009 0 0.020 0 0.030 0 0.704-0.295 1.339-0.768 1.788l-0.001 0.001zM16.464 9.18h1.403v7.201h-1.403v-7.201zM21.301 11.948c-0.846-0.301-1.083-0.519-1.083-0.91s0.429-0.801 1.038-0.801c0.468 0.007 0.882 0.233 1.144 0.579l0.003 0.004 0.737-0.948c-0.55-0.497-1.283-0.801-2.087-0.801-0.012 0-0.023 0-0.035 0h0.002c-0.040-0.003-0.088-0.004-0.135-0.004-1.147 0-2.080 0.913-2.113 2.051l-0 0.003c0 0.993 0.455 1.512 1.775 1.986 0.373 0.112 0.695 0.251 0.997 0.422l-0.024-0.012c0.247 0.144 0.41 0.408 0.41 0.71 0 0.009-0 0.018-0 0.028l0-0.001c0 0.001 0 0.001 0 0.002 0 0.563-0.456 1.019-1.019 1.019-0.023 0-0.045-0.001-0.067-0.002l0.003 0c-0.013 0-0.027 0.001-0.042 0.001-0.657 0-1.225-0.383-1.491-0.939l-0.004-0.010-0.903 0.878c0.497 0.834 1.394 1.385 2.419 1.385 0.023 0 0.047-0 0.070-0.001l-0.003 0c0.050 0.004 0.108 0.006 0.167 0.006 1.281 0 2.319-1.038 2.319-2.319 0-0.022-0-0.045-0.001-0.067l0 0.003c0-1.16-0.474-1.678-2.076-2.261zM23.831 12.787c-0 0.008-0 0.017-0 0.026 0 2.063 1.672 3.735 3.735 3.735 0.025 0 0.050-0 0.074-0.001l-0.004 0c0.011 0 0.025 0 0.038 0 0.624 0 1.213-0.152 1.732-0.42l-0.021 0.010v-1.666c-0.408 0.482-1.009 0.789-1.683 0.801l-0.002 0c-0.020 0.001-0.044 0.001-0.068 0.001-1.302 0-2.358-1.056-2.358-2.357 0-0.045 0.001-0.091 0.004-0.135l-0 0.006c-0.001-0.023-0.001-0.050-0.001-0.077 0-1.313 1.050-2.38 2.356-2.408l0.003-0c0.7 0.005 1.326 0.321 1.746 0.817l0.003 0.003v-1.685c-0.498-0.27-1.091-0.429-1.721-0.429-0.003 0-0.006 0-0.009 0h0c-0.013-0-0.029-0-0.045-0-2.087 0-3.78 1.692-3.78 3.78 0 0 0 0 0 0v0zM37.624 12.832c0 2.162-1.752 3.914-3.914 3.914s-3.914-1.752-3.914-3.914c0-2.162 1.752-3.914 3.914-3.914s3.914 1.752 3.914 3.914zM40.539 14.024l-1.922-4.843h-1.538l3.069 7.393h0.762l3.107-7.393h-1.531l-1.947 4.843zM44.645 16.375h3.978v-1.211h-2.569v-1.941h2.486v-1.211h-2.486v-1.602h2.569v-1.23h-3.978v7.194zM52.531 13.351c0.935-0.14 1.644-0.938 1.644-1.902 0-0.045-0.002-0.090-0.005-0.135l0 0.006c0-1.365-0.929-2.14-2.563-2.14h-2.056v7.194h1.403v-2.87h0.192l1.922 2.876h1.73zM51.34 12.505h-0.41v-2.178h0.436c0.884 0 1.365 0.365 1.365 1.057s-0.455 1.121-1.358 1.121z"></path>
</svg>
