<svg id="Layer_1" xmlns="http://www.w3.org/2000/svg" viewBox="0 0 425 272"><g id="GooglePay_mark_800_gray"><path d="M425 30c-.1-2.7-.2-5.3-.7-8s-1.3-5.2-2.5-7.6c-1.2-2.4-2.8-4.6-4.7-6.5-1.9-1.9-4.1-3.5-6.5-4.7-2.4-1.2-4.9-2-7.6-2.5-2.6-.5-5.3-.6-8-.7-1.2 0-2.5 0-3.7-.1-1.7.2-3.1.2-4.6.2H33.6c-1.2 0-2.4 0-3.7.1-2.7.1-5.4.2-8 .7-2.7.5-5.2 1.3-7.6 2.5C12 4.6 9.9 6.2 8 8.1c-1.9 1.9-3.5 4.1-4.7 6.5-1.2 2.4-2 4.9-2.5 7.6-.5 2.6-.6 5.3-.7 8 0 1.2 0 2.4-.1 3.7v204.5c0 1.2 0 2.4.1 3.7.1 2.7.2 5.3.7 8s1.3 5.2 2.5 7.6c1.2 2.4 2.8 4.6 4.7 6.5 1.9 1.9 4.1 3.5 6.5 4.7s4.9 2 7.6 2.5c2.6.5 5.3.6 8 .7 1.2 0 2.4 0 3.7.1h357.5c1.2 0 2.4 0 3.7-.1 2.7-.1 5.4-.2 8-.7 2.7-.5 5.2-1.3 7.6-2.5 2.4-1.2 4.6-2.8 6.5-4.7 1.9-1.9 3.5-4.1 4.7-6.5 1.2-2.4 2-4.9 2.5-7.6.5-2.6.6-5.3.7-8 0-1.2 0-2.4.1-3.7V33.7c0-1.2 0-2.4-.1-3.7zm-9.2 208.2c0 1.2 0 2.3-.1 3.5-.1 2-.2 4.4-.6 6.6-.3 1.9-.9 3.5-1.7 5.1-.8 1.5-1.8 2.9-3 4.2-1.2 1.2-2.6 2.2-4.2 3-1.5.8-3.2 1.3-5.1 1.7-2.3.4-4.7.5-6.6.6H30.1c-1.9-.1-4.4-.2-6.6-.6-1.9-.3-3.5-.9-5.1-1.7-1.5-.8-2.9-1.8-4.2-3-1.2-1.2-2.2-2.6-3-4.2-.8-1.5-1.3-3.2-1.7-5.1-.4-2.2-.5-4.6-.6-6.6 0-1.2 0-2.3-.1-3.5V33.8c0-1.2 0-2.3.1-3.5.1-2 .2-4.4.6-6.6.3-1.9.9-3.5 1.7-5.1.8-1.5 1.8-2.9 3-4.2 1.2-1.2 2.6-2.2 4.2-3 1.5-.8 3.2-1.3 5.1-1.7 2.2-.4 4.6-.5 6.6-.6 1.2 0 2.3 0 3.5-.1h353.1v.1h4.3c1.2 0 2.3 0 3.5.1 2 .1 4.4.2 6.6.6 1.9.3 3.5.9 5.1 1.7 1.5.8 2.9 1.8 4.2 3 1.2 1.2 2.3 2.6 3 4.2.8 1.5 1.3 3.1 1.7 5.1.4 2.2.5 4.6.6 6.6 0 1.2 0 2.3.1 3.5v204.3z"/><g id="GPay-logo" transform="translate(48.759 76.981)"><g id="Pay" transform="translate(143.57 7.625)"><path id="Shape" d="M12.2 57.6v38.7H.1V.8h32.1c7.7-.2 15.3 2.8 20.7 8.3 11 10.4 11.7 27.8 1.4 39l-1.4 1.4c-5.6 5.4-12.6 8.2-20.7 8.2h-20v-.1zm0-45.1v33.4h20.3c4.5.2 8.9-1.7 12-5 6.3-6.6 6.2-17.3-.4-23.7-3.1-3-7.2-4.7-11.6-4.7H12.2z"/><path d="M89.5 28.8c8.9 0 16 2.4 21.2 7.2s7.7 11.5 7.7 20v40.3h-11.6v-9.1h-.5c-5 7.5-11.7 11.2-20 11.2-7.1 0-13.1-2.1-17.8-6.4-4.7-4-7.3-9.8-7.1-16 0-6.8 2.6-12.1 7.6-16.2s11.8-6 20.2-6c7.2 0 13.1 1.4 17.7 4V55c0-4.2-1.8-8.2-5-10.9-3.2-2.9-7.4-4.5-11.7-4.5-6.8 0-12.1 2.9-16 8.7l-10.7-6.8c5.9-8.4 14.5-12.7 26-12.7zM73.9 76.3c0 3.2 1.5 6.2 4 8 2.7 2.1 6 3.3 9.4 3.2 5.1 0 10-2.1 13.6-5.7 4-3.8 6-8.3 6-13.5-3.8-3-9-4.6-15.8-4.5-4.9 0-9 1.2-12.3 3.6s-4.9 5.3-4.9 8.9z"/><path id="Path" class="st1" d="M184.9 31l-40.4 94.1H132l15-32.9L120.5 31h13.1l19.2 46.9h.2L171.8 31h13.1z"/></g><g id="Super-G"><path class="st1" d="M106.8 56.9c0-3.7-.3-7.5-.9-11.1h-51v21.1h29.2c-1.2 6.8-5.1 12.9-10.8 16.7v13.7h17.4c10.2-9.5 16.1-23.6 16.1-40.4z"/><path class="st1" d="M54.9 110.6c14.6 0 26.9-4.9 35.9-13.3L73.3 83.6c-4.9 3.4-11.1 5.3-18.4 5.3-14.1 0-26.1-9.7-30.4-22.6h-18v14.2c9.2 18.4 27.9 30.1 48.4 30.1z"/><path class="st1" d="M24.5 66.2c-2.3-6.8-2.3-14.2 0-21V31h-18c-7.7 15.5-7.7 33.8 0 49.3l18-14.1z"/><path class="st1" d="M54.9 22.5c7.7-.2 15.2 2.8 20.7 8.2L91.1 15C81.3 5.7 68.3.6 54.9.8 34.4.8 15.7 12.5 6.5 31l18 14.2c4.3-13 16.2-22.7 30.4-22.7z"/></g></g></g></svg>
