<svg version="1.1" xmlns="http://www.w3.org/2000/svg" width="64" height="32" viewBox="0 0 64 32">
<path d="M20.327 26.221c-0.002 0.665-0.318 1.255-0.809 1.63l-0.005 0.004c-0.43 0.421-1.020 0.681-1.671 0.681-0.034 0-0.068-0.001-0.102-0.002l0.005 0c-0.051 0.005-0.11 0.007-0.17 0.007-0.656 0-1.237-0.321-1.595-0.815l-0.004-0.006c-0.409-0.373-0.668-0.905-0.679-1.497l-0-0.002h0.679c-0.001 0.021-0.002 0.045-0.002 0.070 0 0.396 0.157 0.756 0.412 1.019l-0-0c0.375 0.294 0.839 0.491 1.347 0.544l0.011 0.001q1.768 0 1.768-1.634 0-1.089-2.044-1.499c-0.571-0.136-1.073-0.371-1.512-0.688l0.012 0.009c-0.257-0.292-0.415-0.677-0.415-1.1 0-0.044 0.002-0.087 0.005-0.13l-0 0.006q0-2.044 2.178-2.044c0.033-0.002 0.073-0.003 0.112-0.003 0.537 0 1.025 0.208 1.388 0.549l-0.001-0.001c0.414 0.309 0.679 0.798 0.679 1.349 0 0.003 0 0.007-0 0.010v-0.001h-0.698q0-1.224-1.499-1.224c-0.999 0-1.499 0.455-1.499 1.358q0 0.814 1.358 1.224 2.748 0.557 2.748 2.185zM26.041 23.908c-0.389-0.587-1.047-0.969-1.794-0.969-0.088 0-0.174 0.005-0.259 0.015l0.010-0.001q-2.857 0.006-2.857 2.723c-0 0.019-0.001 0.042-0.001 0.065 0 1.543 1.251 2.793 2.793 2.793 0.023 0 0.046-0 0.068-0.001l-0.003 0c0.034 0.002 0.075 0.003 0.115 0.003 0.815 0 1.528-0.433 1.923-1.082l0.006-0.010v3.133h0.679v-7.482h-0.679zM26.176 25.677q0 2.178-2.178 2.178t-2.178-2.178q0-2.172 2.178-2.178t2.185 2.178zM41.147 2.954c0.001-0.028 0.001-0.061 0.001-0.094 0-0.838-0.338-1.598-0.886-2.149l0 0c-0.525-0.545-1.262-0.884-2.078-0.884-0.011 0-0.021 0-0.032 0h-12.247c-0.009-0-0.020-0-0.030-0-0.816 0-1.552 0.339-2.077 0.883l-0.001 0.001c-0.547 0.55-0.886 1.309-0.886 2.146 0 0.034 0.001 0.067 0.002 0.101l-0-0.005v12.249c0.014 1.646 1.345 2.977 2.99 2.992h12.25c1.646-0.014 2.977-1.345 2.992-2.99v-0.001zM37.88 13.844c0 0.73-0.32 1.089-0.955 1.089h-9.795c-0.641 0-0.955-0.359-0.955-1.089v-9.661c-0.006-0.037-0.009-0.081-0.009-0.125 0-0.463 0.376-0.839 0.839-0.839 0.044 0 0.087 0.003 0.129 0.010l-0.005-0.001h9.802c0.033-0.005 0.072-0.007 0.111-0.007 0.467 0 0.846 0.379 0.846 0.846 0 0.041-0.003 0.081-0.009 0.121l0.001-0.005zM32.031 22.96h0.679v5.445h-0.679v-0.82c-0.251 0.572-0.812 0.963-1.465 0.963-0.059 0-0.118-0.003-0.176-0.010l0.007 0.001c-0.073 0.009-0.158 0.014-0.244 0.014-0.681 0-1.287-0.322-1.674-0.823l-0.004-0.005c-0.264-0.436-0.42-0.963-0.42-1.526 0-0.085 0.004-0.169 0.011-0.253l-0.001 0.011v-2.998h0.698v2.992q0 1.922 1.634 1.922c0.020 0.001 0.044 0.002 0.068 0.002 0.397 0 0.757-0.157 1.022-0.412l-0 0c0.343-0.388 0.552-0.902 0.552-1.464 0-0.064-0.003-0.128-0.008-0.191l0.001 0.008zM34.478 7.041v3.946c0.003 0.021 0.005 0.045 0.005 0.069 0 0.265-0.215 0.48-0.48 0.48-0.024 0-0.048-0.002-0.072-0.005l0.003 0h-3.825c-0.021 0.003-0.045 0.005-0.069 0.005-0.265 0-0.48-0.215-0.48-0.48 0-0.024 0.002-0.048 0.005-0.072l-0 0.003v-3.946c-0.003-0.021-0.005-0.045-0.005-0.069 0-0.265 0.215-0.48 0.48-0.48 0.024 0 0.048 0.002 0.072 0.005l-0.003-0h3.844c0.015-0.002 0.032-0.003 0.050-0.003 0.265 0 0.48 0.215 0.48 0.48 0 0.024-0.002 0.047-0.005 0.069l0-0.003zM38.694 23.915c-0.504-0.587-1.246-0.956-2.075-0.956-0.036 0-0.072 0.001-0.108 0.002l0.005-0c-0.027-0.001-0.059-0.001-0.091-0.001-0.752 0-1.438 0.285-1.955 0.753l0.002-0.002c-0.502 0.469-0.815 1.135-0.815 1.875 0 0.035 0.001 0.069 0.002 0.103l-0-0.005c-0 0.019-0.001 0.041-0.001 0.063 0 0.786 0.341 1.491 0.882 1.978l0.002 0.002c0.509 0.497 1.205 0.805 1.973 0.807h0.001c0.024 0.001 0.052 0.001 0.081 0.001 0.864 0 1.628-0.427 2.092-1.082l0.005-0.008v0.955h0.679v-5.304h-0.673zM38.694 25.683q0 2.178-2.178 2.178t-2.178-2.178q0.006-2.152 2.178-2.152t2.185 2.146zM42.922 22.96v0.679q-1.499 0-1.499 1.634v3.126h-0.685v-5.304h0.679v0.679q0.275-0.814 1.505-0.814zM45.914 22.96c-1.488 0.038-2.684 1.235-2.723 2.719l-0 0.004c-0 0.019-0.001 0.042-0.001 0.065 0 1.543 1.251 2.793 2.793 2.793 0.023 0 0.045-0 0.068-0.001l-0.003 0c0.024 0.001 0.053 0.001 0.081 0.001 1.188 0 2.187-0.808 2.477-1.905l0.004-0.018h-0.66c-0.369 0.732-1.114 1.225-1.974 1.225-0.024 0-0.049-0-0.073-0.001l0.004 0q-1.768 0-2.044-1.922h4.901v-0.135c0-0.019 0.001-0.042 0.001-0.065 0-1.543-1.251-2.793-2.793-2.793-0.023 0-0.045 0-0.068 0.001l0.003-0zM43.87 25.407c0.027-1.073 0.902-1.932 1.979-1.932 0.070 0 0.139 0.004 0.208 0.011l-0.009-0.001q1.768 0 2.044 1.922z"></path>
</svg>
