<svg version="1.1" xmlns="http://www.w3.org/2000/svg" width="64" height="32" viewBox="0 0 64 32">
<path d="M18.181 18.969c-0.012 1.571-0.723 2.974-1.837 3.914l-0.008 0.006q-1.845 1.685-5.362 1.685c-0.161 0.004-0.35 0.006-0.54 0.006-1.968 0-3.88-0.236-5.711-0.68l0.165 0.034v-4.164c1.446 0.609 3.127 0.963 4.891 0.963 0.082 0 0.164-0.001 0.246-0.002l-0.012 0q2.883 0 2.883-1.602 0-1.281-1.922-1.281-6.406-0.48-6.406-5.445c-0-0.007-0-0.014-0-0.022 0-1.536 0.644-2.922 1.676-3.903l0.002-0.002q1.685-1.678 5.208-1.678c0.030-0 0.065-0 0.1-0 2.141 0 4.199 0.352 6.121 1.001l-0.135-0.040v4.004l-1.281-0.48c-1.192-0.377-2.565-0.608-3.987-0.64l-0.017-0q-2.723 0-2.723 1.441c0 0.858 0.641 1.281 1.922 1.281q6.727 0.48 6.727 5.605zM24.107 24.415h-4.645v-16.656l4.645-0.961v9.289q2.563-3.203 2.563-4.484h5.445c-0.814 2.392-1.956 4.464-3.397 6.29l0.034-0.044q2.563 4.324 3.043 6.566h-5.605c-0.375-1.941-1.101-3.662-2.114-5.176l0.032 0.051zM37.4 24.415h-4.645v-7.207q0-5.605 6.406-5.766c0.168-0.053 0.361-0.084 0.561-0.084s0.393 0.031 0.574 0.087l-0.014-0.004v3.844q-1.762 0-2.319 0.724c-0.361 0.601-0.575 1.327-0.575 2.103 0 0.135 0.006 0.268 0.019 0.399l-0.001-0.017zM43.966 10.321q-2.242 0-2.242-2.242t2.242-2.242 2.242 2.242-2.242 2.242zM46.208 24.415h-4.484v-12.813h4.484zM48.29 7.758l4.484-0.961v17.617h-4.484zM59.501 24.415h-4.645v-16.656l4.645-0.961z"></path>
</svg>
