<svg xmlns="http://www.w3.org/2000/svg" width="24" height="24" viewBox="0 0 24 24"><path d="M22.193 15.431l-4.427-4.47c-.304-.309-.858-.471-1.43.088l-.224.218a54.82 54.82 0 0 0-.956.946c-.076.034-.627-.022-1.779-.992-1.767-1.487-2.834-3.23-2.78-3.554l1.348-1.321a.934.934 0 0 0 .281-.665.93.93 0 0 0-.269-.665L7.549.52A.944.944 0 0 0 6.217.507c-.148.145-.302.29-.459.438-1.093 1.027-2.331 2.192-2.371 4.131-.047 2.319 1.652 5.154 5.345 8.923 1.789 1.823 5.396 5.502 8.82 5.501.893 0 1.771-.27 2.604-.868.092.757-.006 2.046-1.296 3.337a2.654 2.654 0 0 1-2.011.78c-.999-.026-2.021-.517-2.747-1.326l-7.391-7.578c-.697-.565-2.414-1.259-3.912.148a3.068 3.068 0 0 0-.992 2.265c-.001.826.32 1.602.903 2.185l2.581 2.581a.5.5 0 0 0 .707-.707l-2.581-2.581c-.394-.395-.611-.918-.61-1.477s.219-1.083.673-1.533c1.213-1.143 2.464-.213 2.558-.144l7.333 7.523c.892.995 2.182 1.609 3.451 1.644l.114.002c1.019 0 1.926-.371 2.63-1.075 1.976-1.977 1.682-3.995 1.46-4.782.395-.384 1.147-1.119 1.184-1.158a.941.941 0 0 0-.017-1.305zm-4.783-4.119l-.355.35a.031.031 0 0 1-.006-.004l.361-.346zm2.703 6.074l-.084.079c-3.003 2.814-7.231-.751-10.583-4.167-3.445-3.515-5.1-6.198-5.06-8.202.031-1.519 1.061-2.487 2.056-3.423.163-.152.323-.303.392-.454l4.412 4.414-1.36 1.334c-.498.525-.251 1.46.733 2.781.997 1.338 3.631 4.043 4.988 3.359.042-.021.149-.097.184-.129.069-.063.646-.626 1.022-.996l.224-.218a.78.78 0 0 1 .063-.056l4.388 4.337c-.072.073-1.293 1.265-1.375 1.341z"/></svg>
