<svg xmlns="http://www.w3.org/2000/svg" width="24" height="24" viewBox="0 0 24 24"><path d="M8.5 21h6.9a.5.5 0 0 0 0-1H8.5a.5.5 0 1 0 0 1zM8.5 19h6.9a.5.5 0 0 0 0-1H8.5a.5.5 0 1 0 0 1zM21.5 3h-3.8l-.011-.014L15.553.345C15.306.1 15.037.1 14.8.1H7c-.58 0-1 .42-1 1V3H2.5A2.503 2.503 0 0 0 0 5.5v6.9c0 1.379 1.122 2.5 2.5 2.5h19c1.379 0 2.5-1.121 2.5-2.5V5.5C24 4.121 22.879 3 21.5 3zM7 1.1h7.8c.03 0 .056-.003.08 0l2.066 2.554c.019.02.054.079.054.046v3.4H7v-6zm16 11.3c0 .827-.673 1.5-1.5 1.5h-19c-.827 0-1.5-.673-1.5-1.5V5.5C1 4.673 1.673 4 2.5 4H6v3.6a.5.5 0 0 0 .5.5h11a.5.5 0 0 0 .5-.5V4h3.5c.827 0 1.5.673 1.5 1.5v6.9z"/><path d="M17.5 16.1a.5.5 0 0 0-.5.5V23H7v-6.4a.5.5 0 0 0-1 0V23c0 .579.42 1 1 1h10c.579 0 1-.421 1-1v-6.4a.5.5 0 0 0-.5-.5zM20.5 11h-.1c-.276 0-.45.224-.45.5s.274.5.55.5a.5.5 0 0 0 0-1z"/></svg>
