<svg xmlns="http://www.w3.org/2000/svg" width="24" height="24" viewBox="0 0 24 24"><path d="M23.261 20.802l-6.12-6.12a9.172 9.172 0 0 0 1.619-5.209c0-5.087-4.139-9.226-9.225-9.226C4.448.247.309 4.386.309 9.473s4.139 9.226 9.226 9.226a9.17 9.17 0 0 0 5.209-1.619l6.12 6.12c.32.32.746.497 1.198.497l.001-.001a1.697 1.697 0 0 0 1.198-2.894zM1.309 9.473c0-4.536 3.69-8.226 8.226-8.226s8.225 3.69 8.225 8.226c0 4.535-3.689 8.226-8.225 8.226s-8.226-3.69-8.226-8.226zm21.245 13.02a.688.688 0 0 1-.49.203h-.001a.69.69 0 0 1-.491-.203l-6.031-6.031a9.31 9.31 0 0 0 .983-.983l6.031 6.031c.27.271.27.711-.001.983z"/><path d="M10.119 2.969A6.717 6.717 0 0 0 5.085 4.95a6.733 6.733 0 0 0-1.982 5.035.5.5 0 0 0 .499.483h.017a.5.5 0 0 0 .483-.516 5.738 5.738 0 0 1 1.69-4.294c1.143-1.143 2.681-1.733 4.294-1.69.294.038.507-.207.516-.483a.498.498 0 0 0-.483-.516z"/></svg>
