<svg xmlns="http://www.w3.org/2000/svg" width="24" height="24" viewBox="0 0 24 24"><path d="M14.041 8.398l-5.65 6.843-2.855-3.064a.5.5 0 1 0-.732.682l3.243 3.48a.5.5 0 0 0 .366.16h.015a.502.502 0 0 0 .37-.182l6.015-7.282a.5.5 0 0 0-.772-.637z"/><path d="M12.755 21.597a12.55 12.55 0 0 1-2.794 1.172c-.365-.104-8.955-2.641-8.955-11.12l.007-6.476c.03-.098.133-.151.215-.131 1.856.627 5.84.133 8.647-3.87a.213.213 0 0 1 .158-.043c.033.004.095.02.128.06 2.331 3.337 5.12 4.037 7.041 4.037a6.864 6.864 0 0 0 1.615-.185c.093.005.19.097.19.182v5.757a.5.5 0 1 0 1 0V5.217a1.18 1.18 0 0 0-.356-.836 1.18 1.18 0 0 0-.83-.34.827.827 0 0 0-.308.04 5.29 5.29 0 0 1-1.233.146c-1.702-.003-4.185-.585-6.315-3.631a1.207 1.207 0 0 0-.809-.46 1.194 1.194 0 0 0-.896.248c-.08.063-.152.135-.227.232C6.468 4.286 2.88 4.543 1.53 4.09A1.19 1.19 0 0 0 .006 5.223v6.426c0 9.226 9.287 11.97 9.688 12.083.1.028.202.041.307.041.11 0 .221-.014.334-.045a14.911 14.911 0 0 0 2.912-1.26.501.501 0 0 0-.492-.871z"/><path d="M21.862 16.059h-.802v-1.74c-.078-1.323-1.195-2.34-2.493-2.282a2.431 2.431 0 0 0-2.545 2.31v1.712h-.795c-.864-.015-1.587.672-1.607 1.601l.485 4.818a1.58 1.58 0 0 0 1.569 1.54H21.36c.858-.001 1.595-.671 1.614-1.502l.49-4.918c-.022-.868-.73-1.528-1.603-1.54zm-4.84-1.682c.045-.78.725-1.372 1.545-1.342.748-.03 1.45.563 1.494 1.313v1.71h-3.039v-1.681zm4.956 8.076c-.008.32-.28.557-.605.565h-5.688c-.313 0-.572-.251-.582-.602l-.486-4.793a.582.582 0 0 1 .581-.564h6.675c.269.004.585.246.596.502l-.491 4.892z"/><path d="M18.541 19.538a.5.5 0 0 0-.5.5v1.114a.5.5 0 1 0 1 0v-1.114a.5.5 0 0 0-.5-.5z"/></svg>
