<svg xmlns="http://www.w3.org/2000/svg" width="24" height="24" viewBox="0 0 24 24"><path d="M11.557 3.026h-4a.5.5 0 0 0-.5.5v3a.5.5 0 1 0 1 0v-2.5h3.5a.5.5 0 1 0 0-1zM11.557 20.026h-3.5v-1.5a.5.5 0 1 0-1 0v2a.5.5 0 0 0 .5.5h4a.5.5 0 1 0 0-1zM23.645 3.047l-9.944-3a.5.5 0 0 0-.645.479v23a.5.5 0 0 0 .645.479l9.944-3a.5.5 0 0 0 .355-.479v-17a.5.5 0 0 0-.355-.479zM23 20.155l-8.943 2.698V1.2L23 3.897v16.258z"/><path d="M15.557 13.026h1a.5.5 0 1 0 0-1h-1a.5.5 0 1 0 0 1zM10.018 12.718a.499.499 0 0 0 .032-.154c0-.013.007-.024.007-.038a.5.5 0 0 0-.039-.193.497.497 0 0 0-.092-.137c-.006-.007-.009-.017-.015-.024L6.6 8.863a.5.5 0 1 0-.707.707l2.456 2.456H.725a.5.5 0 1 0 0 1H8.35l-2.456 2.456a.5.5 0 1 0 .707.707l3.308-3.307a.498.498 0 0 0 .11-.164z"/></svg>
